
<svg width="170px" height="143px" viewBox="0 0 170 143" version="1.1" xmlns="http://www.w3.org/2000/svg" xmlns:xlink="http://www.w3.org/1999/xlink">
    <g id="Website" stroke="none" stroke-width="1" fill="none" fill-rule="evenodd">
        <g id="About-us" transform="translate(-620.000000, -4589.000000)" fill="#F1F1F1">
            <g id="Message">
                <g transform="translate(0.000000, 4357.000000)">
                    <g id="Stacked-Group-4" transform="translate(140.000000, 80.000000)">
                        <g id="Message" transform="translate(0.000000, 124.000000)">
                            <g id="Innovation-happens.-2" transform="translate(770.000000, 341.500000) rotate(-360.000000) translate(-770.000000, -341.500000) translate(480.000000, 28.000000)">
                                <path d="M170,0 L170,24.4863014 C160.609849,26.9675923 153.46953,30.4935845 148.578826,35.0643836 C143.688123,39.6351827 139.775619,45.4791882 136.841197,52.5965753 C133.906775,59.7139625 132.439586,68.3657025 132.439586,78.5520548 C144.438111,78.5520548 153.339058,81.9801027 159.142693,88.8363014 C164.946327,95.6925 167.848101,102.973021 167.848101,110.678082 C167.848101,119.81968 164.65289,127.491978 158.262371,133.695205 C151.871851,139.898433 144.438094,143 135.960875,143 C124.87528,143 115.387458,138.266029 107.497123,128.797945 C99.6067883,119.329861 95.6616801,106.368575 95.6616801,89.9136986 C95.6616801,75.4177357 98.7916833,61.8361364 105.051784,49.1684932 C111.311884,36.5008499 119.82158,25.6616889 130.581128,16.6506849 C141.340675,7.63968097 154.480168,2.08950816 170,0 Z M74.3383199,0 L74.3383199,24.4863014 C64.9481694,26.9675923 57.8078495,30.4935845 52.9171461,35.0643836 C48.0264428,39.6351827 44.1139387,45.4791882 41.1795167,52.5965753 C38.2450946,59.7139625 36.7779056,68.3657025 36.7779056,78.5520548 C48.9068501,78.5520548 57.8404009,81.9801027 63.5788262,88.8363014 C69.3172516,95.6925 72.1864212,102.973021 72.1864212,110.678082 C72.1864212,119.81968 68.9912096,127.491978 62.6006904,133.695205 C56.2101713,139.898433 48.7764137,143 40.2991945,143 C29.3440189,143 19.8888008,138.266029 11.9332566,128.797945 C3.97771243,119.329861 0,106.368575 0,89.9136986 C0,75.4177357 3.13000322,61.8361364 9.39010357,49.1684932 C15.6502039,36.5008499 24.1599002,25.6616889 34.9194476,16.6506849 C45.6789951,7.63968097 58.8184878,2.08950816 74.3383199,0 Z" id="“"></path>
                            </g>
                        </g>
                    </g>
                </g>
            </g>
        </g>
    </g>
</svg>
