<svg width="60" height="60" viewBox="0 0 60 60" fill="none" xmlns="http://www.w3.org/2000/svg">
<path opacity="0.8" d="M33.2539 54H27.7461C27.0724 54 26.4982 53.5132 26.388 52.849L25.5421 47.685C24.262 47.3153 23.0289 46.8029 21.8591 46.1534L17.669 49.1453C17.1217 49.5339 16.3701 49.4734 15.8954 48.9987L12.0012 45.1045C11.5251 44.6285 11.4633 43.8782 11.8546 43.3309L14.8465 39.1408C14.1971 37.971 13.6847 36.7379 13.3149 35.4578L8.15095 34.6119C7.4868 34.5018 7 33.9276 7 33.2539V27.7461C7 27.0724 7.4868 26.4982 8.15104 26.388L13.315 25.5421C13.6847 24.262 14.1971 23.0289 14.8466 21.8591L11.8547 17.669C11.4633 17.1217 11.5252 16.3714 12.0013 15.8954L15.8955 12.0012C16.3702 11.5238 17.1218 11.4606 17.6691 11.8546L21.8592 14.8465C23.029 14.1971 24.2621 13.6847 25.5422 13.3149L26.3881 8.15095C26.4982 7.4868 27.0724 7 27.7461 7H33.2539C33.9276 7 34.5018 7.4868 34.612 8.15104L35.4579 13.315C36.738 13.6847 37.9711 14.1971 39.1409 14.8466L43.331 11.8547C43.8756 11.4607 44.6259 11.5238 45.1046 12.0013L48.9988 15.8955C49.4749 16.3715 49.5367 17.1218 49.1454 17.6691L46.1535 21.8592C46.8029 23.029 47.3153 24.2621 47.6851 25.5422L52.8491 26.3881C53.5132 26.4982 54 27.0724 54 27.7461V33.2539C54 33.9276 53.5132 34.5018 52.849 34.612L47.685 35.4579C47.3153 36.738 46.8029 37.9711 46.1534 39.1409L49.1453 43.331C49.5367 43.8783 49.4748 44.6286 48.9987 45.1046L45.1045 48.9988C44.6258 49.4735 43.8754 49.534 43.3309 49.1454L39.1408 46.1535C37.971 46.8029 36.7379 47.3153 35.4578 47.6851L34.6119 52.8491C34.5018 53.5132 33.9276 54 33.2539 54ZM52.623 33.2539H52.6499H52.623Z" fill="url(#paint0_linear_2648_4391)"/>
<circle cx="30.5002" cy="30.5007" r="11.28" fill="white"/>
<path d="M35.8439 26.906L28.5819 33.4625L25.5209 30.4016C24.957 29.8376 24.0442 29.8376 23.4803 30.4016C22.9163 30.9655 22.9163 31.8782 23.4803 32.4422L27.5616 36.5235C28.1255 37.0874 29.0382 37.0874 29.6022 36.5235L37.8845 28.9467C38.4485 28.3827 38.4485 27.47 37.8845 26.906C37.3205 26.342 36.4078 26.342 35.8439 26.906Z" fill="url(#paint1_linear_2648_4391)"/>
<defs>
<linearGradient id="paint0_linear_2648_4391" x1="-19.7087" y1="46.9781" x2="59.1065" y2="89.079" gradientUnits="userSpaceOnUse">
<stop stop-color="#F57B94"/>
<stop offset="1" stop-color="#E3486A"/>
</linearGradient>
<linearGradient id="paint1_linear_2648_4391" x1="22.3015" y1="42.595" x2="45.6622" y2="40.3207" gradientUnits="userSpaceOnUse">
<stop stop-color="#F57B94"/>
<stop offset="1" stop-color="#E3486A"/>
</linearGradient>
</defs>
</svg>
