<svg width="60" height="60" viewBox="0 0 60 60" fill="none" xmlns="http://www.w3.org/2000/svg">
<path d="M50.5231 40.7219C49.2061 44.2913 47.2143 47.3949 44.6022 49.9456C41.6291 52.8489 37.7359 55.1558 33.0308 56.8015C32.8764 56.8553 32.7153 56.8994 32.5534 56.932C32.3395 56.9742 32.122 56.997 31.9063 57H31.864C31.6341 57 31.4031 56.9768 31.1739 56.932C31.012 56.8994 30.8532 56.8553 30.6995 56.8026C25.9887 55.1596 22.0907 52.8537 19.1146 49.9505C16.5014 47.3998 14.51 44.298 13.1948 40.7286C10.8033 34.2387 10.9394 27.0894 11.049 21.3442L11.0508 21.256C11.0729 20.7816 11.0871 20.2833 11.0949 19.733C11.1349 17.0312 13.283 14.796 15.9851 14.6454C21.6189 14.331 25.9772 12.4935 29.701 8.86392L29.7335 8.83401C30.3518 8.2669 31.1309 7.98876 31.9063 8.00035C32.6539 8.01007 33.3986 8.28783 33.9949 8.83401L34.0267 8.86392C37.7513 12.4935 42.1095 14.331 47.7433 14.6454C50.4454 14.796 52.5935 17.0312 52.6335 19.733C52.6413 20.287 52.6555 20.7846 52.6776 21.256L52.6787 21.2934C52.7879 27.0494 52.9232 34.2129 50.5231 40.7219Z" fill="url(#paint0_linear_2648_4358)"/>
<path d="M50.5231 40.7215C49.2061 44.2909 47.2143 47.3946 44.6022 49.9453C41.6291 52.8485 37.7359 55.1555 33.0308 56.8011C32.8764 56.855 32.7152 56.8991 32.5534 56.9316C32.3395 56.9738 32.122 56.9966 31.9062 56.9996V8C32.6539 8.00972 33.3986 8.28748 33.9949 8.83366L34.0267 8.86357C37.7512 12.4932 42.1095 14.3306 47.7433 14.645C50.4454 14.7957 52.5935 17.0309 52.6335 19.7326C52.6413 20.2866 52.6555 20.7842 52.6776 21.2556L52.6787 21.293C52.7879 27.049 52.9232 34.2126 50.5231 40.7215Z" fill="url(#paint1_linear_2648_4358)"/>
<path d="M44.075 32.5009C44.075 39.22 38.6196 44.6893 31.9061 44.7132H31.8631C25.1299 44.7132 19.6509 39.2346 19.6509 32.5009C19.6509 25.7677 25.1299 20.2891 31.8631 20.2891H31.9061C38.6196 20.313 44.075 25.7823 44.075 32.5009Z" fill="white"/>
<path d="M44.0751 32.5009C44.0751 39.22 38.6197 44.6893 31.9062 44.7132V20.2891C38.6197 20.313 44.0751 25.7823 44.0751 32.5009Z" fill="#FCF2F4"/>
<path d="M37.4063 30.7415L31.9064 36.2422L30.7179 37.4306C30.4372 37.7114 30.0689 37.8515 29.7011 37.8515C29.3328 37.8515 28.965 37.7114 28.6839 37.4306L26.1287 34.8743C25.5671 34.3128 25.5671 33.4032 26.1287 32.8413C26.6894 32.2798 27.6001 32.2798 28.1616 32.8413L29.7011 34.3808L35.3734 28.7085C35.9349 28.1466 36.8455 28.1466 37.4063 28.7085C37.9678 29.27 37.9678 30.1807 37.4063 30.7415Z" fill="#E8788D"/>
<path d="M37.4062 30.7415L31.9062 36.2422V32.1751L35.3733 28.7085C35.9348 28.1466 36.8454 28.1466 37.4062 28.7085C37.9677 29.27 37.9677 30.1807 37.4062 30.7415Z" fill="#E13F5E"/>
<defs>
<linearGradient id="paint0_linear_2648_4358" x1="-12.7124" y1="49.6793" x2="61.8072" y2="83.5774" gradientUnits="userSpaceOnUse">
<stop stop-color="#F6B4C2"/>
<stop offset="1" stop-color="#F6708E"/>
</linearGradient>
<linearGradient id="paint1_linear_2648_4358" x1="20.0743" y1="49.679" x2="62.7533" y2="59.3663" gradientUnits="userSpaceOnUse">
<stop stop-color="#F29DAF"/>
<stop offset="1" stop-color="#E3486A"/>
</linearGradient>
</defs>
</svg>
