<svg width="260" height="240" viewBox="0 0 260 240" fill="none" xmlns="http://www.w3.org/2000/svg">
<rect width="260" height="240" fill="#E7E7E7"/>
<mask id="mask0" mask-type="alpha" maskUnits="userSpaceOnUse" x="0" y="0" width="260" height="240">
<rect width="260" height="240" fill="#2C2D32"/>
</mask>
<g mask="url(#mask0)">
<path d="M-608.046 -210.401C-605.035 -208.653 -600.154 -208.653 -597.143 -210.401C-597.022 -210.474 -596.925 -210.571 -596.803 -210.644L-428.358 -113.41V7.61575L-648.427 -119.431V-117.44L-387.224 33.3505V167.147L-246.34 248.478L-271.277 262.875L-408.423 183.704L-407.986 182.952L-538.478 107.617V91.1565L-564.97 75.8613V28.7376L-648.427 -19.4543V-17.4635L-566.669 29.733V74.8659L-600.397 55.3949C-598.212 53.6469 -598.455 51.2191 -601.174 49.641C-604.185 47.893 -609.066 47.893 -612.077 49.641C-615.088 51.389 -615.088 54.2053 -612.077 55.929C-609.357 57.5071 -605.132 57.6285 -602.121 56.3661L-540.177 92.1033V108.564L-410.754 183.267H-470.852L-648.427 80.8383V82.8291L-474.324 183.34H-648.427V185.064H-409.515L-273.001 263.87L-298.837 278.777L-397.787 221.651L-397.981 221.53H-648.427V223.253H-470.949L-524.928 254.402H-648.427V256.126H-524.443L-467.477 223.253H-398.418L-300.513 279.772L-323.241 292.883L-409.88 242.87L-410.074 242.749H-445.016L-515.822 283.608H-648.451V285.332H-515.361L-444.554 244.472H-410.584L-347.669 280.792H-379.114L-409.807 263.069H-433.628L-486.635 293.66C-489.646 292.47 -493.75 292.64 -496.421 294.194C-499.432 295.942 -499.432 298.758 -496.421 300.482C-493.41 302.23 -488.529 302.23 -485.518 300.482C-482.75 298.879 -482.556 296.379 -484.887 294.631L-433.166 264.769H-410.268L-379.576 282.492H-344.682L-325.014 293.854L-357.017 312.329H-404.198L-462.62 346.052C-465.631 344.789 -469.856 344.935 -472.576 346.489C-475.587 348.237 -475.587 351.053 -472.576 352.777C-469.565 354.525 -464.684 354.525 -461.673 352.777C-458.954 351.198 -458.711 348.771 -460.896 347.023L-403.736 314.029H-360.004L-375.059 322.72L-351.675 336.219L-414.955 372.733H-481.488L-551.663 332.213C-549.478 330.465 -549.72 328.037 -552.44 326.459C-555.451 324.711 -560.332 324.711 -563.343 326.459C-566.354 328.207 -566.354 331.023 -563.343 332.747C-560.623 334.325 -556.398 334.447 -553.387 333.184L-517.255 354.039H-648.476V356.03L-648.039 355.763H-514.293L-482.192 374.287L-481.998 374.408H-417.99L-444.239 389.558H-594.788L-633.639 411.991H-648.5V413.714H-636.626L-648.427 420.658V422.649L-594.229 391.379H-443.68L-349.927 337.263L-306.219 362.488L-415.319 425.441H-532.699L-648.427 492.254V494.245L-532.237 427.164H-418.306L-562.371 510.341V576.911L-648.427 626.584V628.575L-560.647 577.907V511.336L-304.495 363.483L-266.906 385.188L-420.855 474.045V607.842L-507.688 657.976H-504.24L-419.131 608.837V475.041L-265.182 386.183L-241.993 399.585L-356.07 465.427V622.263L-410.899 653.921V658H-409.175V654.917L-354.346 623.258V466.422L-240.269 400.58L-208.969 418.643L-296.239 469.02V657.976H-294.515V577.543L-250.759 602.816V658H-249.035V601.821L-294.515 575.552V529.278L-236.942 562.515C-238.958 564.238 -238.642 566.617 -235.995 568.147C-232.984 569.895 -228.104 569.895 -225.093 568.147C-222.082 566.399 -222.082 563.583 -225.093 561.859C-227.885 560.257 -232.232 560.16 -235.267 561.519L-294.54 527.311V470.039L-207.27 419.663L-179.394 435.759L-221.815 460.231V496.308L-211.106 502.499V520.878L-134.666 565.015V596.164L-72.431 632.095C-74.6163 633.843 -74.3736 636.271 -71.654 637.849C-68.643 639.597 -63.7623 639.597 -60.7513 637.849C-57.7403 636.101 -57.7403 633.285 -60.7513 631.561C-63.4709 629.983 -67.696 629.862 -70.707 631.124L-132.942 595.193V564.044L-209.382 519.907V503.519L-80.8812 577.688C-82.8967 579.412 -82.5809 581.791 -79.9342 583.321C-76.9232 585.069 -72.0425 585.069 -69.0316 583.321C-66.0206 581.573 -66.0206 578.757 -69.0316 577.033C-71.824 575.43 -76.1704 575.333 -79.2057 576.693L-182.235 517.236H-130.538L-71.2654 551.444C-73.4508 553.192 -73.2081 555.62 -70.4885 557.198C-67.4775 558.946 -62.5967 558.946 -59.5858 557.198C-56.5748 555.45 -56.5748 552.633 -59.5858 550.91C-62.3054 549.331 -66.5305 549.21 -69.5414 550.473L-129.883 515.634L-130.077 515.512H-185.076V515.609L-220.115 495.386V461.299L-177.694 436.827L-169.292 441.683L-158.365 435.37L19.7197 538.164L19.9139 538.285H68.4781C68.7695 539.11 69.4737 539.912 70.5907 540.567C73.6017 542.315 78.4824 542.315 81.4933 540.567C84.5043 538.819 84.5043 536.003 81.4933 534.279C78.4824 532.531 73.6017 532.531 70.5907 534.279C69.4737 534.935 68.7695 535.736 68.4781 536.561H20.3752L-156.666 434.375L-129.591 418.74L18.4084 504.174C16.223 505.922 16.4658 508.35 19.1854 509.928C22.1964 511.676 27.0771 511.676 30.0881 509.928C33.0991 508.18 33.0991 505.364 30.0881 503.64C27.3685 502.062 23.1434 501.941 20.1324 503.203L-127.77 417.623L-99.7241 401.43L109.393 522.14V623.21L49.2224 657.976H52.6705L88.5352 637.266L124.4 657.976H127.848L90.2592 636.271L111.118 624.229V544.743L146.472 565.161V614.809L218.372 656.325C217.716 656.835 217.328 657.417 217.109 658H232.14C231.848 657.175 231.144 656.398 230.051 655.766C227.332 654.188 223.107 654.067 220.096 655.329L148.196 613.814V564.165L111.118 542.752V521.169L-98.0001 400.459L-67.1861 382.663L338.228 616.679V657.976H339.952V615.683L-65.462 381.667L-40.5244 367.271L168.423 487.884L168.618 488.005H320.648L387.715 526.729H387.327V567.856L463.281 611.702C461.096 613.45 461.339 615.878 464.058 617.456C467.069 619.204 471.95 619.204 474.961 617.456C477.972 615.708 477.972 612.891 474.961 611.168C472.241 609.59 468.016 609.468 465.005 610.731L389.051 566.885V527.506L504.294 594.027L504.488 594.149H759.814L808.5 565.986V563.995L759.329 592.376H504.925L321.304 486.379L321.109 486.257H169.079L-38.8003 366.251L-16.8492 353.578L180.88 467.709L181.074 467.83H355.541L440.529 516.872C438.343 518.62 438.586 521.048 441.306 522.626C444.317 524.374 449.198 524.374 452.208 522.626C455.219 520.878 455.219 518.061 452.208 516.338C449.489 514.76 445.264 514.638 442.253 515.901L356.221 466.228L356.027 466.106H181.56L152.3 449.209H385.457L569.831 342.774C572.842 344.036 577.067 343.891 579.787 342.337C582.798 340.589 582.798 337.773 579.787 336.049C576.776 334.301 571.895 334.301 568.884 336.049C566.164 337.627 565.922 340.055 568.107 341.803L384.995 447.509H149.289L75.5443 404.926L104.513 388.198H155.918L204.045 360.4C207.056 361.662 211.281 361.517 214.001 359.963C217.012 358.215 217.012 355.399 214.001 353.675C210.99 351.927 206.109 351.927 203.098 353.675C200.379 355.253 200.136 357.681 202.321 359.429L155.457 386.474H107.499L219.537 321.798H323.125L380.916 355.156C378.731 356.904 378.974 359.332 381.693 360.91C384.704 362.658 389.585 362.658 392.596 360.91C395.607 359.162 395.607 356.345 392.596 354.622C389.876 353.044 385.651 352.922 382.64 354.185L323.78 320.22L323.586 320.098H219.052L73.7959 403.955L12.0464 368.314H46.1385L73.5774 352.485C76.5884 353.796 80.8862 353.675 83.6544 352.097C86.6654 350.349 86.6654 347.532 83.6544 345.809C80.6434 344.061 75.7628 344.061 72.7518 345.809C70.0807 347.362 69.7894 349.742 71.8776 351.49L45.6772 366.615H9.05975L-15.1495 352.631L36.5471 322.793L20.351 313.446L109.539 261.977H139.285L174.81 282.492C172.624 284.24 172.867 286.667 175.587 288.246C178.598 289.994 183.478 289.994 186.489 288.246C189.5 286.497 189.5 283.681 186.489 281.958C183.77 280.379 179.545 280.258 176.534 281.521L139.94 260.399L139.746 260.277H109.054L44.2446 297.69V263.433L104.998 258.352C108.009 259.614 112.234 259.468 114.954 257.915C117.965 256.167 117.965 253.35 114.954 251.627C111.943 249.879 107.062 249.879 104.051 251.627C101.332 253.205 101.089 255.632 103.274 257.38L42.5206 262.462V298.709L18.6027 312.524L-65.5106 263.968L-26.4893 241.437H24.1147L104.124 195.261H164.83L249.234 243.987C247.049 245.735 247.292 248.163 250.011 249.741C253.022 251.489 257.903 251.489 260.914 249.741C263.925 247.993 263.925 245.176 260.914 243.453C258.194 241.875 253.969 241.753 250.958 243.016L165.485 193.683L165.291 193.561H103.663L23.6533 239.738H-23.5026L210.917 104.412H376.521L480.861 44.1785L481.298 43.9357V-48.6607C483.508 -48.5393 485.791 -48.9521 487.49 -49.9232C490.501 -51.6712 490.501 -54.4875 487.49 -56.2112C484.479 -57.9592 479.599 -57.9592 476.588 -56.2112C473.577 -54.4632 473.577 -51.6469 476.588 -49.9232C477.462 -49.4133 478.482 -49.0734 479.574 -48.8792V42.9403L376.084 102.689H210.48L-67.2104 262.996L-98.7285 244.812L181.633 82.9748L182.07 82.732V-13.9917L277.984 -69.3699C280.995 -68.1074 285.22 -68.2531 287.94 -69.8069C290.951 -71.5549 290.951 -74.3712 287.94 -76.0949C284.929 -77.8429 280.048 -77.8429 277.037 -76.0949C274.318 -74.5168 274.075 -72.089 276.26 -70.341L180.759 -15.2299L180.322 -14.9871V81.7366L-100.477 243.817L-133.573 224.71L30.8894 129.783L31.3265 129.54V46.5334L-251.147 -116.712C-248.962 -118.46 -249.205 -120.888 -251.924 -122.466C-254.935 -124.214 -259.816 -124.214 -262.827 -122.466C-265.838 -120.718 -265.838 -117.902 -262.827 -116.178C-260.108 -114.6 -255.882 -114.478 -252.871 -115.741L-45.1379 4.16827H-107.591L-219.605 -60.4841C-217.42 -62.2321 -217.662 -64.6599 -220.382 -66.238C-223.393 -67.986 -228.274 -67.986 -231.285 -66.238C-234.296 -64.49 -234.296 -61.6738 -231.285 -59.95C-228.565 -58.3719 -224.34 -58.2505 -221.329 -59.513L-108.247 5.74635L-108.053 5.86774H-42.1512L29.651 47.3104V128.326L-102.735 204.753V163.578L-21.39 116.624L-20.9529 116.381V74.696C-21.101 74.696 -44.2953 60.5 -44.5 60.5C-44.5 60 -46.5 60 -46.5 60.5L-22.6769 74.696V115.386L-104.022 162.34L-104.459 162.582V205.749L-135.225 223.52L-169.195 203.904L-189.811 215.8V125.898L-118.057 84.48C-115.046 85.7425 -110.821 85.5968 -108.101 84.043C-105.09 82.295 -105.09 79.4787 -108.101 77.755C-111.112 76.007 -115.993 76.007 -119.004 77.755C-121.724 79.333 -121.966 81.7609 -119.781 83.5089L-191.098 124.684L-191.535 124.927V161.611L-245.174 130.633V95.8421L-128.183 28.3006C-125.172 29.5631 -120.947 29.4174 -118.227 27.8636C-115.216 26.1156 -115.216 23.2994 -118.227 21.5756C-121.238 19.8276 -126.119 19.8276 -129.13 21.5756C-131.849 23.1537 -132.092 25.5815 -129.907 27.3295L-246.485 94.6282L-246.922 94.871V131.652L-191.559 163.626V216.844L-220.916 233.79L-245.733 219.466V186.909L-283.37 165.18C-281.184 163.432 -281.427 161.004 -284.147 159.426C-287.158 157.678 -292.039 157.678 -295.049 159.426C-298.06 161.174 -298.06 163.991 -295.049 165.714C-292.33 167.292 -288.105 167.414 -285.094 166.151L-247.457 187.88V218.446L-329.53 171.055V99.7023L-206.007 28.3978L-205.57 28.155V1.27919L-275.43 -39.0466C-273.244 -40.7946 -273.487 -43.2224 -276.207 -44.8005C-279.218 -46.5485 -284.098 -46.5485 -287.109 -44.8005C-290.12 -43.0525 -290.12 -40.2363 -287.109 -38.5125C-284.39 -36.9344 -280.165 -36.813 -277.154 -38.0755L-207.294 2.25031V27.1353L-330.817 98.4399L-331.254 98.6826V172.027L-222.616 234.737L-244.567 247.41L-385.452 166.078V32.2822L-426.586 8.53831V-114.478L-595.444 -211.858C-594.302 -213.46 -594.861 -215.378 -597.119 -216.689C-600.13 -218.437 -605.011 -218.437 -608.022 -216.689C-611.057 -214.965 -611.057 -212.149 -608.046 -210.401Z" fill="#DADADA"/>
</g>
</svg>
