<svg width="64" height="64" viewBox="0 0 64 64" fill="none" xmlns="http://www.w3.org/2000/svg">
<rect width="64" height="64" rx="16" fill="url(#paint0_linear_2670_626)"/>
<path d="M29.0879 33.2305L31.5657 35.7082L24.4421 42.8318L21.9644 40.354L29.0879 33.2305Z" fill="url(#paint1_linear_2670_626)"/>
<path d="M16.0727 48.7262C14.9094 47.5628 14.9094 45.6767 16.0727 44.5133L24.0442 36.5419C24.4776 36.1084 25.1803 36.1084 25.6137 36.5419L28.257 39.1852C28.6905 39.6187 28.6905 40.3213 28.257 40.7547L20.2856 48.7262C19.1223 49.8895 17.2361 49.8895 16.0727 48.7262Z" fill="#FAD3DB"/>
<path d="M37.6248 39.1501C44.2387 39.1501 49.6003 33.7885 49.6003 27.1747C49.6003 20.5608 44.2387 15.1992 37.6248 15.1992C31.011 15.1992 25.6494 20.5608 25.6494 27.1747C25.6494 33.7885 31.011 39.1501 37.6248 39.1501Z" fill="#FAD3DB"/>
<path d="M37.6246 35.7501C42.3611 35.7501 46.2008 31.9104 46.2008 27.1739C46.2008 22.4374 42.3611 18.5977 37.6246 18.5977C32.888 18.5977 29.0483 22.4374 29.0483 27.1739C29.0483 31.9104 32.888 35.7501 37.6246 35.7501Z" fill="white"/>
<path d="M41.6672 24.3447L36.1723 29.3058L33.8562 26.9897C33.4294 26.5629 32.7388 26.5629 32.3121 26.9897C31.8853 27.4164 31.8853 28.107 32.3121 28.5338L35.4003 31.6219C35.827 32.0487 36.5176 32.0487 36.9443 31.6219L43.2113 25.8888C43.638 25.4621 43.638 24.7715 43.2113 24.3447C42.7845 23.918 42.0939 23.918 41.6672 24.3447Z" fill="#E13F5E"/>
<path d="M28.2569 39.1858L26.5965 37.5254C27.0299 37.9588 27.0299 38.6615 26.5965 39.0949L18.6251 47.0663C17.7566 47.9349 16.4853 48.1546 15.4126 47.7263C15.558 48.0905 15.7778 48.4319 16.0726 48.7267C17.236 49.89 19.1222 49.89 20.2855 48.7267L28.257 40.7552C28.6903 40.3219 28.6903 39.6192 28.2569 39.1858Z" fill="url(#paint2_linear_2670_626)" fill-opacity="0.6"/>
<defs>
<linearGradient id="paint0_linear_2670_626" x1="-36.3693" y1="54.4382" x2="70.9535" y2="111.767" gradientUnits="userSpaceOnUse">
<stop stop-color="#F57B94"/>
<stop offset="1" stop-color="#E3486A"/>
</linearGradient>
<linearGradient id="paint1_linear_2670_626" x1="21.6206" y1="37.8817" x2="25.8238" y2="44.0033" gradientUnits="userSpaceOnUse">
<stop stop-color="#F6B4C2"/>
<stop offset="1" stop-color="#FFBAC9"/>
</linearGradient>
<linearGradient id="paint2_linear_2670_626" x1="7.92882" y1="47.7953" x2="29.1203" y2="60.1424" gradientUnits="userSpaceOnUse">
<stop stop-color="#F6B4C2"/>
<stop offset="1" stop-color="#F6708E"/>
</linearGradient>
</defs>
</svg>
