<?xml version="1.0" encoding="utf-8"?>
<svg height="80px" viewBox="0 0 86 80" version="1.1"
xmlns="http://www.w3.org/2000/svg"
xmlns:xlink="http://www.w3.org/1999/xlink">
  <!-- Generator: Sketch 51.1 (57501) - http://www.bohemiancoding.com/sketch -->
  <title>ic-Leanthinking</title>
  <desc>Created with Sketch.</desc>
  <defs>
    <linearGradient x1="-12.0388617%" y1="1.21379425%"
    x2="155.65304%" y2="90.7901921%" id="linearGradient-1">
      <stop stop-color="#F57B94" offset="0%"></stop>
      <stop stop-color="#E3486A" offset="100%"></stop>
    </linearGradient>
    <linearGradient x1="-12.0388617%" y1="1.21379425%"
    x2="155.65304%" y2="90.7901921%" id="linearGradient-2">
      <stop stop-color="#FBA4B5" offset="0%"></stop>
      <stop stop-color="#E3486A" offset="100%"></stop>
    </linearGradient>
  </defs>
  <g id="Page-1" stroke="none" stroke-width="1" fill="none"
  fill-rule="evenodd">
    <g id="Tech" transform="translate(-497.000000, -2941.000000)">
      <g id="Agile-dwarves"
      transform="translate(0.000000, 2731.000000)">
        <g id="Lean-thinking"
        transform="translate(361.000000, 152.000000)">
          <g id="ic-Leanthinking"
          transform="translate(136.000000, 58.000000)">
            <path d="M41,21.1040078 C31.4466705,22.103401 24,30.1820689 24,40 C24,49.8179311 31.4466705,57.896599 41,58.8959922 L41,76.8607209 C38.5978423,78.8221357 35.5270954,80 32.1858506,80 C26.0086307,80 20.6173859,75.9011677 18.866805,70.172618 C11.6024896,69.3416822 5.94244813,63.1883567 5.94244813,55.7420883 C5.94244813,54.5269927 6.09215768,53.3338974 6.38817427,52.1746488 C2.44809129,49.4956845 0,44.9940768 0,40.167541 C0,35.5491623 2.14356846,31.3301743 5.74,28.615671 C4.92170124,26.972415 4.48618257,25.1514639 4.48618257,23.2949738 C4.48618257,16.6847182 9.89273859,11.308174 16.5378008,11.308174 C17.1859751,11.308174 17.8341494,11.3606363 18.4721162,11.4638687 C19.610249,4.96023016 25.3264315,0 32.1858506,0 C35.5270954,0 38.5978423,1.17786427 41,3.13927907 L41,21.1040078 Z"
            id="Combined-Shape" fill="url(#linearGradient-1)"
            fill-rule="nonzero"></path>
            <path d="M45,58.8959922 C54.5533295,57.896599 62,49.8179311 62,40 C62,30.1820689 54.5533295,22.103401 45,21.1040078 L45,3.13927907 C47.4021577,1.17786427 50.4729046,0 53.8141494,0 C60.6735685,0 66.389751,4.96023016 67.5278838,11.4638687 C68.1658506,11.3606363 68.8140249,11.308174 69.4621992,11.308174 C76.1072614,11.308174 81.5138174,16.6847182 81.5138174,23.2949738 C81.5138174,25.1514639 81.0782988,26.972415 80.26,28.615671 C83.8564315,31.3301743 86,35.5491623 86,40.167541 C86,44.9940768 83.5519087,49.4956845 79.6118257,52.1746488 C79.9078423,53.3338974 80.0575519,54.5269927 80.0575519,55.7420883 C80.0575519,63.1883567 74.3975104,69.3416822 67.133195,70.172618 C65.3826141,75.9011677 59.9913693,80 53.8141494,80 C50.4729046,80 47.4021577,78.8221357 45,76.8607209 L45,59.2621425 L45,58.8959922 Z"
            id="Combined-Shape" fill="url(#linearGradient-2)"
            fill-rule="nonzero"></path>
            <path d="M43,53 C50.1797017,53 56,47.1797017 56,40 C56,32.8202983 50.1797017,27 43,27 C35.8202983,27 30,32.8202983 30,40 C30,47.1797017 35.8202983,53 43,53 Z"
            id="Oval-10" stroke="#E98699" stroke-width="2"
            stroke-dasharray="2"></path>
            <path d="M43,46 C46.3137085,46 49,43.3137085 49,40 C49,36.6862915 46.3137085,34 43,34 C39.6862915,34 37,36.6862915 37,40 C37,43.3137085 39.6862915,46 43,46 Z"
            id="Oval-10" fill="#E03E5E"></path>
          </g>
        </g>
      </g>
    </g>
  </g>
</svg>
