<svg width="559" height="529" viewBox="0 0 559 529" fill="none" xmlns="http://www.w3.org/2000/svg">
<g clip-path="url(#clip0)">
<path d="M118.627 539.249L11.4873 477.455L247.044 341.658L354.184 403.453L118.627 539.249Z" fill="url(#paint0_linear)"/>
<path d="M110.023 514.55L58.8262 485.276L171.402 420.901L193.241 433.673C205.823 441.032 205.775 459.234 193.153 466.526L110.023 514.55Z" fill="url(#paint1_linear)"/>
</g>
<path d="M385.734 497.055L307.873 452.319L479.058 354.008L541.825 390.072C548.517 393.916 548.516 403.571 541.824 407.414L385.734 497.055Z" fill="url(#paint2_linear)"/>
<path d="M264.299 398.26L186.438 353.524L357.623 255.213L420.39 291.276C427.081 295.121 427.08 304.775 420.388 308.619L264.299 398.26Z" fill="url(#paint3_linear)"/>
<path d="M446.255 219.948L402.918 194.931C400.089 193.293 400.387 190.315 403.663 188.528L433.299 171.404C436.575 169.468 441.638 169.319 444.468 170.957L487.805 195.974C490.634 197.612 490.336 200.59 487.06 202.377L457.424 219.501C454.148 221.437 449.085 221.586 446.255 219.948Z" fill="url(#paint4_linear)"/>
<path d="M450.723 83.8461V221.139C448.936 221.139 447.298 220.692 446.107 220.097L402.77 195.08C401.728 194.485 401.132 193.74 400.834 192.847V55.4047L450.723 83.8461Z" fill="url(#paint5_linear)"/>
<path d="M450.723 83.8461L400.834 55.4047V192.698C400.983 193.591 401.579 194.336 402.77 194.931L446.107 219.948C447.298 220.692 448.936 220.99 450.723 220.99C452.957 220.99 455.489 220.543 457.276 219.352L486.912 202.228C488.55 201.185 489.592 199.994 489.592 198.803V61.6588L450.723 83.8461Z" fill="url(#paint6_linear)"/>
<path d="M446.257 82.6549L402.92 57.6384C400.091 56.0004 400.389 53.0222 403.665 51.2353L433.301 34.1109C436.577 32.1751 441.64 32.0262 444.47 33.6642L487.956 58.6807C490.785 60.3187 490.487 63.2969 487.211 65.0838L457.575 82.2082C454.15 84.144 449.087 84.2929 446.257 82.6549Z" fill="url(#paint7_linear)"/>
<path d="M480.807 62.7017C480.509 63.1484 479.914 63.4462 479.318 63.8929L455.192 77.8903C452.512 79.3794 448.342 79.6772 446.108 78.337L410.813 57.9366C410.515 57.7877 410.217 57.4899 410.069 57.341C408.728 56.0008 409.175 54.065 411.558 52.7248L435.683 38.7275C438.364 37.2384 442.534 36.9406 444.768 38.2808L480.062 58.6812C481.85 59.5746 481.998 61.2126 480.807 62.7017Z" fill="url(#paint8_linear)"/>
<path d="M480.805 62.7013C480.507 63.1481 479.911 63.4459 479.316 63.8926L455.19 77.89C452.51 79.379 448.34 79.6768 446.106 78.3367L410.811 57.9363C410.513 57.7874 410.215 57.4896 410.066 57.3407C410.364 56.8939 410.96 56.5961 411.556 56.1494L435.681 42.1521C438.362 40.663 442.532 40.3652 444.766 41.7053L480.06 62.1057C480.358 62.2546 480.656 62.4035 480.805 62.7013Z" fill="url(#paint9_linear)"/>
<path d="M405.749 186.593L404.558 185.848V67.1686L405.749 67.9131V186.593Z" fill="#BDBDBD"/>
<path d="M412.153 190.167L410.962 189.422V70.8915L412.153 71.4871V190.167Z" fill="#BDBDBD"/>
<path d="M418.558 193.741L417.366 193.145V74.4657L418.558 75.2102V193.741Z" fill="#BDBDBD"/>
<path d="M424.812 197.463L423.62 196.719V78.0389L424.812 78.7835V197.463Z" fill="#BDBDBD"/>
<path d="M431.215 201.037L430.023 200.441V81.7615L431.215 82.506V201.037Z" fill="#BDBDBD"/>
<path d="M437.619 204.759L436.428 204.015V85.3353L437.619 86.0799V204.759Z" fill="#BDBDBD"/>
<path d="M444.022 208.333L442.831 207.589V89.0579L444.022 89.6535V208.333Z" fill="#BDBDBD"/>
<path d="M484.977 193.74L486.168 193.145V74.465L484.977 75.2095V193.74Z" fill="#BDBDBD"/>
<path d="M478.572 197.463L479.764 196.718V78.0388L478.572 78.7834V197.463Z" fill="#BDBDBD"/>
<path d="M472.17 201.037L473.361 200.441V81.7615L472.17 82.506V201.037Z" fill="#BDBDBD"/>
<path d="M465.767 204.76L466.958 204.016V85.3362L465.767 86.0807V204.76Z" fill="#BDBDBD"/>
<path d="M459.511 208.333L460.702 207.589V89.058L459.511 89.6536V208.333Z" fill="#BDBDBD"/>
<path d="M449.086 41.4074V77.1453C447.895 77.1453 446.853 76.8474 445.959 76.4007L416.621 59.4252C415.876 58.9785 415.43 58.5318 415.43 57.9361V22.1982L449.086 41.4074Z" fill="url(#paint10_linear)"/>
<path d="M449.086 41.4074L415.43 22.1982V57.9361C415.579 58.5318 416.025 58.9785 416.621 59.4252L445.959 76.4007C446.853 76.8474 447.895 77.1453 449.086 77.1453C450.576 77.1453 452.214 76.8474 453.554 76.1029L473.659 64.4881C474.85 63.8924 475.446 62.999 475.446 62.1056V26.3677L449.086 41.4074Z" fill="url(#paint11_linear)"/>
<path d="M445.96 40.5138L416.622 23.5384C414.686 22.496 414.983 20.4113 417.217 19.22L437.322 7.60521C439.556 6.26504 442.981 6.11613 444.917 7.30739L474.255 24.2829C476.191 25.4742 475.893 27.41 473.659 28.6012L453.555 40.216C451.321 41.5562 447.896 41.7051 445.96 40.5138Z" fill="url(#paint12_linear)"/>
<path d="M469.34 26.9633C469.042 27.2611 468.744 27.5589 468.297 27.7079L451.916 37.089C450.129 38.1314 447.299 38.2803 445.81 37.3869L421.982 23.5384C421.833 23.3895 421.536 23.2406 421.387 23.0917C420.493 22.1983 420.791 20.8581 422.429 19.9646L438.811 10.5834C440.598 9.54109 443.427 9.39218 444.917 10.2856L468.744 24.1341C469.936 25.0275 470.234 26.0699 469.34 26.9633Z" fill="url(#paint13_linear)"/>
<path d="M469.341 26.9636C469.043 27.2614 468.745 27.5592 468.299 27.7081L451.917 37.0893C450.13 38.1317 447.3 38.2806 445.811 37.3871L421.983 23.5387C421.834 23.3898 421.537 23.2409 421.388 23.092C421.686 22.7942 421.983 22.4964 422.43 22.3475L438.812 12.9663C440.599 11.9239 443.428 11.775 444.918 12.6684L468.745 26.5169C469.043 26.8147 469.192 26.8147 469.341 26.9636Z" fill="url(#paint14_linear)"/>
<path d="M418.557 53.7666L417.812 53.3198V30.0902L418.557 30.5369V53.7666Z" fill="#BDBDBD"/>
<path d="M422.876 56.1494L422.132 55.7027V32.6219L422.876 33.0687V56.1494Z" fill="#BDBDBD"/>
<path d="M427.195 58.681L426.45 58.2343V35.0046L427.195 35.4514V58.681Z" fill="#BDBDBD"/>
<path d="M431.513 61.0631L430.769 60.6164V37.5356L431.513 37.9824V61.0631Z" fill="#BDBDBD"/>
<path d="M435.833 63.5944L435.088 63.1477V39.9181L435.833 40.3648V63.5944Z" fill="#BDBDBD"/>
<path d="M440.15 65.977L439.257 65.5303V42.4496L440.15 42.8963V65.977Z" fill="#BDBDBD"/>
<path d="M444.471 68.5085L443.577 68.0618V44.8322L444.471 45.2789V68.5085Z" fill="#BDBDBD"/>
<path d="M472.171 58.6805L472.915 58.2338V35.0042L472.171 35.4509V58.6805Z" fill="#BDBDBD"/>
<path d="M467.852 61.0631L468.596 60.6164V37.5356L467.852 37.9824V61.0631Z" fill="#BDBDBD"/>
<path d="M463.533 63.5948L464.278 63.1481V39.9185L463.533 40.3652V63.5948Z" fill="#BDBDBD"/>
<path d="M459.214 65.9777L459.959 65.5309V42.4502L459.214 42.8969V65.9777Z" fill="#BDBDBD"/>
<path d="M454.896 68.5091L455.64 68.0624V44.8328L454.896 45.2795V68.5091Z" fill="#BDBDBD"/>
<g style="mix-blend-mode:multiply">
<path d="M444.469 113.925V219.054L402.919 195.08C401.877 194.485 401.281 193.74 400.983 192.847V89.0577L444.469 113.925Z" fill="url(#paint15_linear)"/>
</g>
<path d="M212.297 202.228L260.995 230.371V162.767L212.297 134.624V202.228Z" fill="url(#paint16_linear)"/>
<path d="M309.693 202.228L260.995 230.371V162.767L309.693 134.773V202.228Z" fill="url(#paint17_linear)"/>
<path d="M212.297 202.228L260.995 230.371V162.767L212.297 134.624V202.228Z" fill="url(#paint18_linear)"/>
<path d="M261.145 162.767L212.298 134.624L260.847 106.629L309.694 134.772L261.145 162.767Z" fill="url(#paint19_linear)"/>
<path d="M296.886 134.773L293.461 136.857L261.144 155.471L228.53 136.708L224.956 134.624L260.847 113.925L296.886 134.773Z" fill="url(#paint20_linear)"/>
<path d="M293.461 136.857L261.145 155.471L228.53 136.708L260.847 118.095L293.461 136.857Z" fill="url(#paint21_linear)"/>
<path d="M266.207 214.587L263.526 216.225V170.362L266.207 168.873V214.587Z" fill="#BDBDBD"/>
<path d="M265.611 213.992L263.526 215.183V216.225L266.207 214.587V168.873L265.611 169.319V213.992Z" fill="#D8D8D8"/>
<path d="M272.759 210.716L270.228 212.205V166.49L272.759 165.001V210.716Z" fill="#BDBDBD"/>
<path d="M272.164 210.12L270.228 211.162V212.205L272.759 210.716V165.001L272.164 165.299V210.12Z" fill="#D8D8D8"/>
<path d="M279.461 206.844L276.78 208.333V162.618L279.461 160.98V206.844Z" fill="#BDBDBD"/>
<path d="M278.865 206.099L276.78 207.291V208.333L279.461 206.844V160.98L278.865 161.427V206.099Z" fill="#D8D8D8"/>
<path d="M286.013 202.823L283.332 204.313V158.598L286.013 157.109V202.823Z" fill="#BDBDBD"/>
<path d="M285.417 202.228L283.332 203.419V204.313L286.013 202.823V157.109L285.417 157.407V202.228Z" fill="#D8D8D8"/>
<path d="M292.715 198.952L290.034 200.441V154.726L292.715 153.088V198.952Z" fill="#BDBDBD"/>
<path d="M291.97 198.207L290.034 199.399V200.441L292.715 198.952V153.088L291.97 153.535V198.207Z" fill="#D8D8D8"/>
<path d="M299.268 194.931L296.588 196.569V150.706L299.268 149.217V194.931Z" fill="#BDBDBD"/>
<path d="M298.673 194.336L296.588 195.527V196.569L299.268 194.931V149.217L298.673 149.663V194.336Z" fill="#D8D8D8"/>
<path d="M305.821 191.06L303.289 192.549V146.834L305.821 145.345V191.06Z" fill="#BDBDBD"/>
<path d="M305.225 190.464L303.289 191.507V192.549L305.821 191.06V145.345L305.225 145.643V190.464Z" fill="#D8D8D8"/>
<path d="M254.59 168.873L257.27 170.362V216.225L254.59 214.587V168.873Z" fill="#BDBDBD"/>
<path d="M255.334 213.992L257.27 215.183V216.225L254.59 214.587V168.873L255.334 169.319V213.992Z" fill="#D8D8D8"/>
<path d="M248.039 165.001L250.72 166.49V212.205L248.039 210.716V165.001Z" fill="#BDBDBD"/>
<path d="M248.635 210.12L250.72 211.162V212.205L248.039 210.716V165.001L248.635 165.299V210.12Z" fill="#D8D8D8"/>
<path d="M241.484 160.98L244.016 162.618V208.333L241.484 206.844V160.98Z" fill="#BDBDBD"/>
<path d="M242.08 206.099L244.016 207.291V208.333L241.484 206.844V160.98L242.08 161.427V206.099Z" fill="#D8D8D8"/>
<path d="M234.784 157.109L237.465 158.598V204.313L234.784 202.823V157.109Z" fill="#BDBDBD"/>
<path d="M235.529 202.228L237.465 203.419V204.313L234.784 202.823V157.109L235.529 157.407V202.228Z" fill="#D8D8D8"/>
<path d="M228.231 153.088L230.912 154.726V200.441L228.231 198.952V153.088Z" fill="#BDBDBD"/>
<path d="M228.827 198.207L230.912 199.398V200.441L228.231 198.952V153.088L228.827 153.535V198.207Z" fill="#D8D8D8"/>
<path d="M221.681 149.217L224.212 150.706V196.57L221.681 194.932V149.217Z" fill="#BDBDBD"/>
<path d="M222.276 194.336L224.212 195.527V196.57L221.681 194.932V149.217L222.276 149.664V194.336Z" fill="#D8D8D8"/>
<path d="M214.978 145.345L217.658 146.834V192.549L214.978 191.06V145.345Z" fill="#BDBDBD"/>
<path d="M215.573 190.464L217.658 191.506V192.549L214.978 191.06V145.345L215.573 145.643V190.464Z" fill="#D8D8D8"/>
<path d="M218.105 134.177L260.995 158.896V99.3326L218.105 74.465V134.177Z" fill="url(#paint22_linear)"/>
<path d="M303.886 134.177L260.996 158.896V99.3326L303.886 74.6139V134.177Z" fill="url(#paint23_linear)"/>
<path d="M218.105 134.177L260.995 158.896V99.3326L218.105 74.465V134.177Z" fill="url(#paint24_linear)"/>
<path d="M261.144 99.3326L218.105 74.4649L260.846 49.8951L303.885 74.6138L261.144 99.3326Z" fill="url(#paint25_linear)"/>
<path d="M292.718 74.6144L289.59 76.4013L261.146 92.93L232.404 76.4013L229.276 74.6144L260.848 56.2987L292.718 74.6144Z" fill="url(#paint26_linear)"/>
<path d="M289.59 76.4015L261.146 92.9302L232.403 76.4015L260.848 59.8727L289.59 76.4015Z" fill="url(#paint27_linear)"/>
<path d="M265.611 145.047L263.229 146.387V106.033L265.611 104.693V145.047Z" fill="#BDBDBD"/>
<path d="M265.016 144.452L263.229 145.494V146.387L265.611 145.047V104.693L265.016 104.991V144.452Z" fill="#D8D8D8"/>
<path d="M271.42 141.622L269.037 142.963V102.608L271.42 101.268V141.622Z" fill="#BDBDBD"/>
<path d="M270.824 141.027L269.037 142.069V142.963L271.42 141.622V101.268L270.824 101.566V141.027Z" fill="#D8D8D8"/>
<path d="M277.229 138.049L274.846 139.389V99.1837L277.229 97.8435V138.049Z" fill="#BDBDBD"/>
<path d="M276.633 137.602L274.846 138.495V139.389L277.229 138.049V97.8435L276.633 98.1413V137.602Z" fill="#D8D8D8"/>
<path d="M283.037 134.624L280.803 135.964V95.6098L283.037 94.2697V134.624Z" fill="#BDBDBD"/>
<path d="M282.441 134.028L280.803 135.07V135.964L283.037 134.624V94.2697L282.441 94.5675V134.028Z" fill="#D8D8D8"/>
<path d="M288.843 131.199L286.609 132.539V92.1849L288.843 90.8447V131.199Z" fill="#BDBDBD"/>
<path d="M288.396 130.603L286.609 131.645V132.539L288.843 131.199V90.8447L288.396 91.1425V130.603Z" fill="#D8D8D8"/>
<path d="M294.801 127.774L292.418 129.114V88.7601L294.801 87.4199V127.774Z" fill="#BDBDBD"/>
<path d="M294.205 127.178L292.418 128.221V129.114L294.801 127.774V87.4199L294.205 87.7177V127.178Z" fill="#D8D8D8"/>
<path d="M300.608 124.2L298.226 125.54V85.1862L300.608 83.8461V124.2Z" fill="#BDBDBD"/>
<path d="M300.013 123.604L298.226 124.647V125.54L300.608 124.2V83.8461L300.013 84.2928V123.604Z" fill="#D8D8D8"/>
<path d="M255.485 104.693L257.719 106.033V146.387L255.485 145.047V104.693Z" fill="#BDBDBD"/>
<path d="M255.932 144.452L257.719 145.494V146.387L255.485 145.047V104.693L255.932 104.991V144.452Z" fill="#D8D8D8"/>
<path d="M249.53 101.268L251.913 102.608V142.963L249.53 141.622V101.268Z" fill="#BDBDBD"/>
<path d="M250.126 141.027L251.913 142.069V142.963L249.53 141.622V101.268L250.126 101.566V141.027Z" fill="#D8D8D8"/>
<path d="M243.72 97.8435L246.103 99.1837V139.389L243.72 138.049V97.8435Z" fill="#BDBDBD"/>
<path d="M244.315 137.602L246.103 138.495V139.389L243.72 138.049V97.8435L244.315 98.1413V137.602Z" fill="#D8D8D8"/>
<path d="M237.912 94.2697L240.295 95.6098V135.964L237.912 134.624V94.2697Z" fill="#BDBDBD"/>
<path d="M238.508 134.028L240.295 135.07V135.964L237.912 134.624V94.2697L238.508 94.5675V134.028Z" fill="#D8D8D8"/>
<path d="M232.104 90.8448L234.487 92.185V132.539L232.104 131.199V90.8448Z" fill="#BDBDBD"/>
<path d="M232.7 130.603L234.487 131.646V132.539L232.104 131.199V90.8448L232.7 91.1427V130.603Z" fill="#D8D8D8"/>
<path d="M226.298 87.4202L228.681 88.7603V129.114L226.298 127.774V87.4202Z" fill="#BDBDBD"/>
<path d="M226.894 127.179L228.681 128.221V129.114L226.298 127.774V87.4202L226.894 87.718V127.179Z" fill="#D8D8D8"/>
<path d="M220.488 83.8462L222.722 85.1864V125.54L220.488 124.2V83.8462Z" fill="#BDBDBD"/>
<path d="M221.084 123.605L222.722 124.647V125.54L220.488 124.2V83.8462L221.084 84.2929V123.605Z" fill="#D8D8D8"/>
<path d="M223.317 74.4648L260.995 96.2053V43.7897L223.317 22.0492V74.4648Z" fill="url(#paint28_linear)"/>
<path d="M298.673 74.4648L260.995 96.2053V43.7898L298.673 22.1981V74.4648Z" fill="url(#paint29_linear)"/>
<path d="M223.317 74.4648L260.995 96.2053V43.7897L223.317 22.0492V74.4648Z" fill="url(#paint30_linear)"/>
<path d="M261.144 43.9387L223.317 22.0493L260.846 0.308716L298.673 22.1982L261.144 43.9387Z" fill="url(#paint31_linear)"/>
<path d="M288.845 22.1986L286.164 23.6877L260.996 38.1318L235.828 23.6877L233.147 22.0497L260.847 5.96765L288.845 22.1986Z" fill="url(#paint32_linear)"/>
<path d="M286.163 23.6872L260.995 38.1313L235.827 23.6872L260.846 9.24316L286.163 23.6872Z" fill="url(#paint33_linear)"/>
<path d="M265.015 83.9949L262.93 85.1861V49.7461L265.015 48.5548V83.9949Z" fill="#BDBDBD"/>
<path d="M264.568 83.5482L262.93 84.4416V85.1861L265.015 83.9949V48.5548L264.568 48.8526V83.5482Z" fill="#D8D8D8"/>
<path d="M270.228 81.0167L268.144 82.208V46.7679L270.228 45.5767V81.0167Z" fill="#BDBDBD"/>
<path d="M269.633 80.4211L268.144 81.3146V82.208L270.228 81.0167V45.5767L269.633 45.8745V80.4211Z" fill="#D8D8D8"/>
<path d="M275.291 77.8895L273.206 79.0808V43.6407L275.291 42.4495V77.8895Z" fill="#BDBDBD"/>
<path d="M274.844 77.4428L273.206 78.3363V79.0808L275.291 77.8895V42.4495L274.844 42.7473V77.4428Z" fill="#D8D8D8"/>
<path d="M280.354 74.9115L278.418 76.1028V40.6627L280.354 39.4714V74.9115Z" fill="#BDBDBD"/>
<path d="M279.907 74.3159L278.418 75.3582V76.1028L280.354 74.9115V39.4714L279.907 39.7693V74.3159Z" fill="#D8D8D8"/>
<path d="M285.565 71.7844L283.48 72.9757V37.5356L285.565 36.3444V71.7844Z" fill="#BDBDBD"/>
<path d="M284.97 71.3377L283.48 72.2312V72.9757L285.565 71.7844V36.3444L284.97 36.6422V71.3377Z" fill="#D8D8D8"/>
<path d="M290.631 68.8063L288.546 69.9976V34.5575L290.631 33.3662V68.8063Z" fill="#BDBDBD"/>
<path d="M290.184 68.3596L288.546 69.253V69.9976L290.631 68.8063V33.3662L290.184 33.664V68.3596Z" fill="#D8D8D8"/>
<path d="M295.843 65.6792L293.758 66.8705V31.4304L295.843 30.2391V65.6792Z" fill="#BDBDBD"/>
<path d="M295.247 65.2325L293.758 66.1259V66.8705L295.843 65.6792V30.2391L295.247 30.5369V65.2325Z" fill="#D8D8D8"/>
<path d="M256.08 48.5549L258.165 49.7462V85.1863L256.08 83.995V48.5549Z" fill="#BDBDBD"/>
<path d="M256.527 83.5483L258.165 84.4417V85.1863L256.08 83.995V48.5549L256.527 48.8527V83.5483Z" fill="#D8D8D8"/>
<path d="M251.018 45.5768L252.954 46.768V82.2081L251.018 81.0169V45.5768Z" fill="#BDBDBD"/>
<path d="M251.464 80.4212L252.954 81.3147V82.2081L251.018 81.0169V45.5768L251.464 45.8746V80.4212Z" fill="#D8D8D8"/>
<path d="M245.807 42.4497L247.892 43.641V79.081L245.807 77.8898V42.4497Z" fill="#BDBDBD"/>
<path d="M246.402 77.4431L247.892 78.3365V79.081L245.807 77.8898V42.4497L246.402 42.7475V77.4431Z" fill="#D8D8D8"/>
<path d="M240.742 39.4716L242.827 40.6628V76.1029L240.742 74.9116V39.4716Z" fill="#BDBDBD"/>
<path d="M241.189 74.316L242.827 75.3584V76.1029L240.742 74.9116V39.4716L241.189 39.7694V74.316Z" fill="#D8D8D8"/>
<path d="M235.529 36.3445L237.614 37.5357V72.9758L235.529 71.7846V36.3445Z" fill="#BDBDBD"/>
<path d="M236.125 71.3378L237.614 72.2313V72.9758L235.529 71.7846V36.3445L236.125 36.6423V71.3378Z" fill="#D8D8D8"/>
<path d="M230.467 33.3666L232.552 34.5578V69.9979L230.467 68.8067V33.3666Z" fill="#BDBDBD"/>
<path d="M230.914 68.3599L232.552 69.2534V69.9979L230.467 68.8067V33.3666L230.914 33.6644V68.3599Z" fill="#D8D8D8"/>
<path d="M225.403 30.2393L227.339 31.4305V66.8706L225.403 65.6793V30.2393Z" fill="#BDBDBD"/>
<path d="M225.85 65.2326L227.339 66.1261V66.8706L225.403 65.6793V30.2393L225.85 30.5371V65.2326Z" fill="#D8D8D8"/>
<path d="M212.297 202.228L260.995 230.371V162.767L212.297 134.624V202.228Z" fill="url(#paint34_linear)"/>
<path d="M307.907 298.422L372.987 335.947V164.107L307.907 126.583V298.422Z" fill="url(#paint35_linear)"/>
<path d="M438.067 298.422L372.987 335.947V164.107L438.067 126.88V298.422Z" fill="url(#paint36_linear)"/>
<path d="M307.907 298.422L372.987 335.649V163.809L307.907 126.583V298.422Z" fill="url(#paint37_linear)"/>
<path d="M373.285 164.256L307.907 126.583L372.838 89.0577L438.066 126.88L373.285 164.256Z" fill="url(#paint38_linear)"/>
<path d="M421.089 126.731L416.324 129.561L373.136 154.428L329.65 129.412L324.885 126.582L372.838 98.8856L421.089 126.731Z" fill="url(#paint39_linear)"/>
<path d="M416.323 129.561L373.135 154.428L329.649 129.412L372.837 104.395L416.323 129.561Z" fill="url(#paint40_linear)"/>
<path d="M379.987 314.951L376.562 317.036V174.382L379.987 172.446V314.951Z" fill="#BDBDBD"/>
<path d="M379.242 314.058L376.562 315.696V317.036L379.987 314.951V172.446L379.242 172.893V314.058Z" fill="#D8D8D8"/>
<path d="M388.922 309.59L385.348 311.675V169.17L388.922 167.086V309.59Z" fill="#BDBDBD"/>
<path d="M388.028 308.846L385.348 310.335V311.675L388.922 309.59V167.086L388.028 167.681V308.846Z" fill="#D8D8D8"/>
<path d="M397.709 304.379L394.135 306.463V163.958L397.709 161.874V304.379Z" fill="#BDBDBD"/>
<path d="M396.815 303.485L394.135 305.123V306.463L397.709 304.379V161.874L396.815 162.32V303.485Z" fill="#D8D8D8"/>
<path d="M406.495 299.167L403.069 301.252V158.598L406.495 156.662V299.167Z" fill="#BDBDBD"/>
<path d="M405.75 298.273L403.069 299.911V301.252L406.495 299.167V156.662L405.75 157.109V298.273Z" fill="#D8D8D8"/>
<path d="M415.43 293.806L411.855 295.891V153.386L415.43 151.301V293.806Z" fill="#BDBDBD"/>
<path d="M414.536 293.062L411.855 294.551V295.891L415.43 293.806V151.301L414.536 151.897V293.062Z" fill="#D8D8D8"/>
<path d="M424.217 288.594L420.643 290.679V148.174L424.217 146.09V288.594Z" fill="#BDBDBD"/>
<path d="M423.323 287.701L420.643 289.339V290.679L424.217 288.594V146.09L423.323 146.536V287.701Z" fill="#D8D8D8"/>
<path d="M433.152 283.383L429.578 285.467V142.814L433.152 140.878V283.383Z" fill="#BDBDBD"/>
<path d="M432.259 282.489L429.578 284.127V285.467L433.152 283.383V140.878L432.259 141.325V282.489Z" fill="#D8D8D8"/>
<path d="M364.648 172.446L368.074 174.382V317.036L364.648 314.951V172.446Z" fill="#BDBDBD"/>
<path d="M365.393 314.058L368.074 315.696V317.036L364.648 314.951V172.446L365.393 172.893V314.058Z" fill="#D8D8D8"/>
<path d="M355.712 167.086L359.286 169.17V311.675L355.712 309.59V167.086Z" fill="#BDBDBD"/>
<path d="M356.605 308.846L359.286 310.335V311.675L355.712 309.59V167.086L356.605 167.681V308.846Z" fill="#D8D8D8"/>
<path d="M346.927 161.874L350.501 163.959V306.463L346.927 304.379V161.874Z" fill="#BDBDBD"/>
<path d="M347.82 303.485L350.501 305.123V306.463L346.927 304.379V161.874L347.82 162.321V303.485Z" fill="#D8D8D8"/>
<path d="M337.99 156.662L341.564 158.598V301.252L337.99 299.167V156.662Z" fill="#BDBDBD"/>
<path d="M338.884 298.273L341.564 299.911V301.252L337.99 299.167V156.662L338.884 157.109V298.273Z" fill="#D8D8D8"/>
<path d="M329.205 151.301L332.779 153.386V295.891L329.205 293.806V151.301Z" fill="#BDBDBD"/>
<path d="M330.099 293.062L332.779 294.551V295.891L329.205 293.806V151.301L330.099 151.897V293.062Z" fill="#D8D8D8"/>
<path d="M320.418 146.089L323.843 148.174V290.679L320.418 288.594V146.089Z" fill="#BDBDBD"/>
<path d="M321.163 287.701L323.843 289.339V290.679L320.418 288.594V146.089L321.163 146.536V287.701Z" fill="#D8D8D8"/>
<path d="M311.482 140.878L315.057 142.814V285.467L311.482 283.383V140.878Z" fill="#BDBDBD"/>
<path d="M312.376 282.489L315.057 284.127V285.467L311.482 283.383V140.878L312.376 141.325V282.489Z" fill="#D8D8D8"/>
<path d="M401.134 129.561L372.987 145.792V139.835L401.134 123.753V129.561Z" fill="url(#paint41_linear)"/>
<path d="M344.84 129.561L372.986 145.792V139.836L344.84 123.605V129.561Z" fill="url(#paint42_linear)"/>
<path d="M373.135 139.836L344.84 123.605L372.986 107.374L401.133 123.754L373.135 139.836Z" fill="url(#paint43_linear)"/>
<g style="mix-blend-mode:multiply">
<path d="M307.873 298.779L372.708 336.513V164.307L307.873 126.573V298.779Z" fill="url(#paint44_linear)"/>
</g>
<g style="mix-blend-mode:multiply">
<path d="M438 302.537L396 323V190.586L438 170V302.537Z" fill="url(#paint45_linear)"/>
</g>
<path d="M42.9922 349.892L0.166992 325.443L94.3345 271.678L137.04 296.127L42.9922 349.892Z" fill="url(#paint46_linear)"/>
<path d="M489.147 428.717L420.642 389.107C416.174 386.427 416.621 381.96 421.982 378.833L468.893 351.731C474.105 348.753 482.147 348.456 486.615 350.987L555.12 390.596C559.587 393.277 559.141 397.744 553.779 400.871L506.868 427.972C501.656 430.95 493.614 431.248 489.147 428.717Z" fill="url(#paint47_linear)"/>
<path d="M496.295 213.545V430.355C493.615 430.355 490.934 429.759 488.998 428.568L420.493 388.958C418.855 388.065 417.812 386.725 417.515 385.385V168.724L496.295 213.545Z" fill="url(#paint48_linear)"/>
<path d="M496.295 213.545L417.663 168.724V385.534C417.961 386.874 419.003 388.065 420.642 389.107L489.146 428.717C491.082 429.759 493.614 430.355 496.443 430.504C500.018 430.504 503.89 429.759 506.868 427.972L553.779 400.871C556.46 399.382 557.949 397.297 558.098 395.51V178.552L496.295 213.545Z" fill="url(#paint49_linear)"/>
<path d="M489.147 211.758L420.642 172.148C416.174 169.468 416.621 165.001 421.982 161.874L468.893 134.773C474.105 131.794 482.147 131.497 486.615 134.028L555.12 173.637C559.587 176.318 559.141 180.785 553.779 183.912L506.868 211.013C501.656 214.14 493.614 214.438 489.147 211.758Z" fill="url(#paint50_linear)"/>
<path d="M543.802 180.19C543.206 180.786 542.461 181.53 541.419 181.977L503.145 204.015C498.827 206.398 492.423 206.696 488.7 204.611L432.854 172.447C432.407 172.149 431.96 171.851 431.513 171.553C429.28 169.32 430.173 166.342 433.896 164.108L472.169 142.07C476.488 139.538 482.892 139.389 486.615 141.474L542.461 173.638C545.44 175.276 545.738 177.956 543.802 180.19Z" fill="url(#paint51_linear)"/>
<path d="M543.802 180.19C543.206 180.785 542.462 181.53 541.419 181.976L503.146 204.015C498.827 206.397 492.423 206.695 488.7 204.61L432.854 172.446C432.407 172.149 431.96 171.851 431.514 171.553C432.109 170.957 432.854 170.213 433.896 169.766L472.17 147.728C476.489 145.196 482.892 145.047 486.615 147.132L542.462 179.296C543.057 179.445 543.504 179.743 543.802 180.19Z" fill="url(#paint52_linear)"/>
<path d="M425.259 375.854L423.323 374.812V187.337L425.259 188.528V375.854Z" fill="#CECECE"/>
<path d="M435.237 381.662L433.301 380.471V193.144L435.237 194.187V381.662Z" fill="#CECECE"/>
<path d="M445.364 387.32L443.428 386.278V198.803L445.364 199.994V387.32Z" fill="#CECECE"/>
<path d="M455.49 393.128L453.554 391.936V204.61L455.49 205.653V393.128Z" fill="#CECECE"/>
<path d="M465.468 398.786L463.681 397.744V210.269L465.468 211.46V398.786Z" fill="#CECECE"/>
<path d="M475.596 404.594L473.66 403.402V216.076L475.596 217.119V404.594Z" fill="#CECECE"/>
<path d="M485.722 410.252L483.786 409.21V221.735L485.722 222.926V410.252Z" fill="#CECECE"/>
<path d="M550.354 387.32L552.29 386.278V198.803L550.354 199.994V387.32Z" fill="#D9D9D9"/>
<path d="M540.227 393.128L542.163 391.936V204.61L540.227 205.653V393.128Z" fill="#D9D9D9"/>
<path d="M530.248 398.786L532.035 397.744V210.269L530.248 211.46V398.786Z" fill="#D9D9D9"/>
<path d="M520.121 404.594L522.057 403.402V216.076L520.121 217.119V404.594Z" fill="#D9D9D9"/>
<path d="M509.995 410.252L511.931 409.21V221.735L509.995 222.926V410.252Z" fill="#D9D9D9"/>
<path d="M56.375 292.912L99.5628 317.78V121.817L56.375 96.9497V292.912Z" fill="url(#paint53_linear)"/>
<path d="M142.751 292.913L99.5635 317.78V121.817L142.751 97.0988V292.913Z" fill="url(#paint54_linear)"/>
<path d="M56.375 292.912L99.5628 317.482V121.668L56.375 96.9497V292.912Z" fill="url(#paint55_linear)"/>
<path d="M99.7117 121.966L56.375 96.9498L99.4138 72.0822L142.751 97.0987L99.7117 121.966Z" fill="url(#paint56_linear)"/>
<path d="M131.434 97.0992L128.306 98.8861L99.7129 115.415L70.8217 98.8861L67.6943 96.9503L99.415 78.6346L131.434 97.0992Z" fill="url(#paint57_linear)"/>
<path d="M128.307 98.8863L99.7134 115.415L70.8223 98.8863L99.4155 82.3575L128.307 98.8863Z" fill="url(#paint58_linear)"/>
<path d="M104.181 303.783L101.798 305.123V128.667L104.181 127.327V303.783Z" fill="#BDBDBD"/>
<path d="M103.585 303.187L101.798 304.229V305.123L104.181 303.783V127.327L103.585 127.625V303.187Z" fill="#D8D8D8"/>
<path d="M110.138 300.358L107.755 301.698V125.242L110.138 123.902V300.358Z" fill="#BDBDBD"/>
<path d="M109.542 299.762L107.755 300.805V301.698L110.138 300.358V123.902L109.542 124.2V299.762Z" fill="#D8D8D8"/>
<path d="M115.946 296.784L113.563 298.273V121.669L115.946 120.328V296.784Z" fill="#BDBDBD"/>
<path d="M115.351 296.337L113.563 297.38V298.273L115.946 296.784V120.328L115.351 120.626V296.337Z" fill="#D8D8D8"/>
<path d="M121.754 293.359L119.371 294.699V118.244L121.754 116.903V293.359Z" fill="#BDBDBD"/>
<path d="M121.158 292.764L119.371 293.806V294.699L121.754 293.359V116.903L121.158 117.201V292.764Z" fill="#D8D8D8"/>
<path d="M127.711 289.934L125.328 291.275V114.67L127.711 113.33V289.934Z" fill="#BDBDBD"/>
<path d="M127.115 289.339L125.328 290.381V291.275L127.711 289.934V113.33L127.115 113.776V289.339Z" fill="#D8D8D8"/>
<path d="M133.519 286.361L131.136 287.701V111.245L133.519 109.905V286.361Z" fill="#BDBDBD"/>
<path d="M132.923 285.765L131.136 286.807V287.701L133.519 286.361V109.905L132.923 110.203V285.765Z" fill="#D8D8D8"/>
<path d="M139.326 282.936L136.943 284.276V107.82L139.326 106.48V282.936Z" fill="#BDBDBD"/>
<path d="M138.73 282.34L136.943 283.382V284.276L139.326 282.936V106.48L138.73 106.778V282.34Z" fill="#D8D8D8"/>
<path d="M93.9043 127.327L96.2871 128.667V305.123L93.9043 303.783V127.327Z" fill="#BDBDBD"/>
<path d="M94.5 303.187L96.2871 304.23V305.123L93.9043 303.783V127.327L94.5 127.625V303.187Z" fill="#D8D8D8"/>
<path d="M88.0967 123.902L90.4795 125.242V301.698L88.0967 300.358V123.902Z" fill="#BDBDBD"/>
<path d="M88.6924 299.762L90.4795 300.805V301.698L88.0967 300.358V123.902L88.6924 124.2V299.762Z" fill="#D8D8D8"/>
<path d="M82.2881 120.328L84.6709 121.669V298.273L82.2881 296.784V120.328Z" fill="#BDBDBD"/>
<path d="M82.8838 296.338L84.6709 297.38V298.273L82.2881 296.784V120.328L82.8838 120.626V296.338Z" fill="#D8D8D8"/>
<path d="M76.3311 116.903L78.7138 118.244V294.699L76.3311 293.359V116.903Z" fill="#BDBDBD"/>
<path d="M76.9267 292.764L78.7138 293.806V294.699L76.3311 293.359V116.903L76.9267 117.201V292.764Z" fill="#D8D8D8"/>
<path d="M70.5234 113.33L72.9062 114.67V291.275L70.5234 289.934V113.33Z" fill="#BDBDBD"/>
<path d="M71.1191 289.339L72.9062 290.381V291.275L70.5234 289.934V113.33L71.1191 113.776V289.339Z" fill="#D8D8D8"/>
<path d="M64.7158 109.905L66.9497 111.245V287.701L64.7158 286.361V109.905Z" fill="#BDBDBD"/>
<path d="M65.3115 285.765L66.9497 286.808V287.701L64.7158 286.361V109.905L65.3115 110.203V285.765Z" fill="#D8D8D8"/>
<path d="M58.7588 106.48L61.1416 107.82V284.276L58.7588 282.936V106.48Z" fill="#BDBDBD"/>
<path d="M59.3545 282.34L61.1416 283.383V284.276L58.7588 282.936V106.48L59.3545 106.778V282.34Z" fill="#D8D8D8"/>
<path d="M355.712 402.658L265.167 454.925V409.061L355.712 357.092V402.658Z" fill="url(#paint59_linear)"/>
<path d="M174.621 402.658L265.166 454.925V409.061L174.621 356.794V402.658Z" fill="url(#paint60_linear)"/>
<path d="M265.465 409.21L174.622 356.794L264.87 304.677L355.713 357.092L265.465 409.21Z" fill="url(#paint61_linear)"/>
<path d="M345.288 355.752L265.167 401.913V382.555L345.288 336.543V355.752Z" fill="url(#paint62_linear)"/>
<path d="M185.046 355.752L265.167 401.913V382.555L185.046 336.245V355.752Z" fill="url(#paint63_linear)"/>
<path d="M265.464 382.704L185.046 336.245L264.869 290.232L345.287 336.543L265.464 382.704Z" fill="url(#paint64_linear)"/>
<path d="M200.087 335.649L265.166 373.323V201.483L200.087 163.958V335.649Z" fill="url(#paint65_linear)"/>
<path d="M330.246 335.649L265.167 373.323V201.483L330.246 164.108V335.649Z" fill="url(#paint66_linear)"/>
<path d="M273.952 209.971L270.378 212.056V206.397L273.952 204.461V209.971Z" fill="#D9D9D9"/>
<path d="M282.442 199.547L278.867 201.483V207.142L282.442 205.058V199.547Z" fill="#D9D9D9"/>
<path d="M290.93 194.484L287.505 196.569V202.228L290.93 200.143V194.484Z" fill="#D9D9D9"/>
<path d="M299.567 189.571L295.992 191.656V197.315L299.567 195.23V189.571Z" fill="#D9D9D9"/>
<path d="M308.056 184.656L304.481 186.741V192.4L308.056 190.315V184.656Z" fill="#D9D9D9"/>
<path d="M316.545 179.743L312.971 181.828V187.486L316.545 185.402V179.743Z" fill="#D9D9D9"/>
<path d="M325.033 174.829L321.459 176.914V182.573L325.033 180.488V174.829Z" fill="#D9D9D9"/>
<path d="M273.952 218.161L270.378 220.246V225.905L273.952 223.82V218.161Z" fill="#D9D9D9"/>
<path d="M282.442 213.247L278.867 215.332V220.842L282.442 218.906V213.247Z" fill="#D9D9D9"/>
<path d="M290.93 208.333L287.505 210.418V215.928L290.93 213.992V208.333Z" fill="#D9D9D9"/>
<path d="M299.567 203.419L295.992 205.504V211.014L299.567 209.078V203.419Z" fill="#D9D9D9"/>
<path d="M308.056 198.505L304.481 200.59V206.1L308.056 204.164V198.505Z" fill="#D9D9D9"/>
<path d="M316.545 193.591L312.971 195.676V201.186L316.545 199.25V193.591Z" fill="#D9D9D9"/>
<path d="M325.033 188.677L321.459 190.762V196.272L325.033 194.336V188.677Z" fill="#D9D9D9"/>
<path d="M273.952 232.009L270.378 233.945V239.604L273.952 237.519V232.009Z" fill="#D9D9D9"/>
<path d="M282.442 227.095L278.867 229.031V234.69L282.442 232.605V227.095Z" fill="#D9D9D9"/>
<path d="M290.93 222.181L287.505 224.117V229.776L290.93 227.691V222.181Z" fill="#D9D9D9"/>
<path d="M299.567 217.267L295.992 219.203V224.862L299.567 222.777V217.267Z" fill="#D9D9D9"/>
<path d="M308.056 212.353L304.481 214.289V219.948L308.056 217.863V212.353Z" fill="#D9D9D9"/>
<path d="M316.545 207.44L312.971 209.376V215.034L316.545 212.95V207.44Z" fill="#D9D9D9"/>
<path d="M325.033 202.526L321.459 204.462V210.121L325.033 208.036V202.526Z" fill="#D9D9D9"/>
<path d="M273.952 245.709L270.378 247.794V253.453L273.952 251.368V245.709Z" fill="#D9D9D9"/>
<path d="M282.442 240.795L278.867 242.88V248.539L282.442 246.454V240.795Z" fill="#D9D9D9"/>
<path d="M290.93 235.881L287.505 237.966V243.625L290.93 241.54V235.881Z" fill="#D9D9D9"/>
<path d="M299.567 230.967L295.992 233.052V238.711L299.567 236.626V230.967Z" fill="#D9D9D9"/>
<path d="M308.056 226.053L304.481 228.138V233.797L308.056 231.712V226.053Z" fill="#D9D9D9"/>
<path d="M316.545 221.139L312.971 223.224V228.883L316.545 226.798V221.139Z" fill="#D9D9D9"/>
<path d="M325.033 216.225L321.459 218.31V223.969L325.033 221.884V216.225Z" fill="#D9D9D9"/>
<path d="M273.952 259.557L270.378 261.642V267.152L273.952 265.216V259.557Z" fill="#D9D9D9"/>
<path d="M282.442 254.643L278.867 256.728V262.238L282.442 260.153V254.643Z" fill="#D9D9D9"/>
<path d="M290.93 249.729L287.505 251.814V257.324L290.93 255.239V249.729Z" fill="#D9D9D9"/>
<path d="M299.567 244.815L295.992 246.9V252.41L299.567 250.325V244.815Z" fill="#D9D9D9"/>
<path d="M308.056 239.901L304.481 241.837V247.496L308.056 245.411V239.901Z" fill="#D9D9D9"/>
<path d="M316.545 234.988L312.971 236.924V242.582L316.545 240.498V234.988Z" fill="#D9D9D9"/>
<path d="M325.033 230.074L321.459 232.01V237.668L325.033 235.584V230.074Z" fill="#D9D9D9"/>
<path d="M273.952 273.257L270.378 275.342V281.001L273.952 278.916V273.257Z" fill="#D9D9D9"/>
<path d="M282.442 268.343L278.867 270.428V276.087L282.442 274.002V268.343Z" fill="#D9D9D9"/>
<path d="M290.93 263.429L287.505 265.514V271.173L290.93 269.088V263.429Z" fill="#D9D9D9"/>
<path d="M299.567 258.515L295.992 260.6V266.259L299.567 264.174V258.515Z" fill="#D9D9D9"/>
<path d="M308.056 253.601L304.481 255.686V261.345L308.056 259.26V253.601Z" fill="#D9D9D9"/>
<path d="M316.545 248.687L312.971 250.772V256.431L316.545 254.346V248.687Z" fill="#D9D9D9"/>
<path d="M325.033 243.773L321.459 245.858V251.517L325.033 249.432V243.773Z" fill="#D9D9D9"/>
<path d="M273.952 287.105L270.378 289.19V294.7L273.952 292.764V287.105Z" fill="#D9D9D9"/>
<path d="M282.442 282.191L278.867 284.276V289.786L282.442 287.85V282.191Z" fill="#D9D9D9"/>
<path d="M290.93 277.277L287.505 279.362V284.872L290.93 282.936V277.277Z" fill="#D9D9D9"/>
<path d="M299.567 272.363L295.992 274.448V279.958L299.567 278.022V272.363Z" fill="#D9D9D9"/>
<path d="M308.056 267.449L304.481 269.534V275.044L308.056 273.108V267.449Z" fill="#D9D9D9"/>
<path d="M316.545 262.535L312.971 264.62V270.13L316.545 268.194V262.535Z" fill="#D9D9D9"/>
<path d="M325.033 257.621L321.459 259.706V265.216L325.033 263.28V257.621Z" fill="#D9D9D9"/>
<path d="M273.952 300.954L270.378 302.89V308.549L273.952 306.464V300.954Z" fill="#D9D9D9"/>
<path d="M282.442 296.04L278.867 297.976V303.635L282.442 301.55V296.04Z" fill="#D9D9D9"/>
<path d="M290.93 291.126L287.505 293.062V298.721L290.93 296.636V291.126Z" fill="#D9D9D9"/>
<path d="M299.567 286.212L295.992 288.148V293.807L299.567 291.722V286.212Z" fill="#D9D9D9"/>
<path d="M308.056 281.149L304.481 283.234V288.893L308.056 286.808V281.149Z" fill="#D9D9D9"/>
<path d="M316.545 276.235L312.971 278.32V283.979L316.545 281.894V276.235Z" fill="#D9D9D9"/>
<path d="M325.033 271.321L321.459 273.406V279.065L325.033 276.98V271.321Z" fill="#D9D9D9"/>
<path d="M273.952 314.653L270.378 316.738V322.397L273.952 320.312V314.653Z" fill="#D9D9D9"/>
<path d="M282.442 309.739L278.867 311.824V317.483L282.442 315.398V309.739Z" fill="#D9D9D9"/>
<path d="M290.93 304.825L287.505 306.91V312.569L290.93 310.484V304.825Z" fill="#D9D9D9"/>
<path d="M299.567 299.911L295.992 301.996V307.506L299.567 305.57V299.911Z" fill="#D9D9D9"/>
<path d="M308.056 294.997L304.481 297.082V302.592L308.056 300.656V294.997Z" fill="#D9D9D9"/>
<path d="M316.545 290.083L312.971 292.168V297.678L316.545 295.742V290.083Z" fill="#D9D9D9"/>
<path d="M325.033 285.17L321.459 287.254V292.764L325.033 290.828V285.17Z" fill="#D9D9D9"/>
<path d="M273.952 328.502L270.378 330.438V336.097L273.952 334.012V328.502Z" fill="#D9D9D9"/>
<path d="M282.442 323.588L278.867 325.524V331.183L282.442 329.098V323.588Z" fill="#D9D9D9"/>
<path d="M290.93 318.674L287.505 320.61V326.269L290.93 324.184V318.674Z" fill="#D9D9D9"/>
<path d="M299.567 313.76L295.992 315.696V321.355L299.567 319.27V313.76Z" fill="#D9D9D9"/>
<path d="M308.056 308.846L304.481 310.782V316.441L308.056 314.356V308.846Z" fill="#D9D9D9"/>
<path d="M316.545 303.932L312.971 305.868V311.527L316.545 309.442V303.932Z" fill="#D9D9D9"/>
<path d="M325.033 299.018L321.459 300.954V306.613L325.033 304.528V299.018Z" fill="#D9D9D9"/>
<path d="M273.952 342.201L270.378 344.286V349.945L273.952 347.86V342.201Z" fill="#D9D9D9"/>
<path d="M282.442 337.287L278.867 339.372V345.031L282.442 342.946V337.287Z" fill="#D9D9D9"/>
<path d="M290.93 332.373L287.505 334.458V340.117L290.93 338.032V332.373Z" fill="#D9D9D9"/>
<path d="M299.567 327.459L295.992 329.544V335.203L299.567 333.118V327.459Z" fill="#D9D9D9"/>
<path d="M308.056 322.545L304.481 324.63V330.289L308.056 328.204V322.545Z" fill="#D9D9D9"/>
<path d="M316.545 317.631L312.971 319.716V325.375L316.545 323.29V317.631Z" fill="#D9D9D9"/>
<path d="M325.033 312.717L321.459 314.802V320.461L325.033 318.376V312.717Z" fill="#D9D9D9"/>
<path d="M200.087 335.649L265.166 373.323V201.483L200.087 163.958V335.649Z" fill="url(#paint67_linear)"/>
<path d="M256.381 209.972L259.955 212.056V206.398L256.381 204.462V209.972Z" fill="#D9D9D9"/>
<path d="M247.892 205.058L251.466 207.142V201.483L247.892 199.547V205.058Z" fill="#D9D9D9"/>
<path d="M239.403 200.143L242.978 202.228V196.569L239.403 194.484V200.143Z" fill="#D9D9D9"/>
<path d="M230.914 195.23L234.34 197.315V191.656L230.914 189.571V195.23Z" fill="#D9D9D9"/>
<path d="M222.426 190.316L225.851 192.4V186.741L222.426 184.657V190.316Z" fill="#D9D9D9"/>
<path d="M213.788 185.402L217.363 187.487V181.828L213.788 179.743V185.402Z" fill="#D9D9D9"/>
<path d="M205.3 180.489L208.874 182.574V176.915L205.3 174.83V180.489Z" fill="#D9D9D9"/>
<path d="M256.381 223.82L259.955 225.905V220.246L256.381 218.161V223.82Z" fill="#D9D9D9"/>
<path d="M247.892 218.906L251.466 220.842V215.332L247.892 213.247V218.906Z" fill="#D9D9D9"/>
<path d="M239.403 213.992L242.978 215.928V210.418L239.403 208.333V213.992Z" fill="#D9D9D9"/>
<path d="M230.914 209.078L234.34 211.014V205.504L230.914 203.419V209.078Z" fill="#D9D9D9"/>
<path d="M222.427 204.165L225.852 206.101V200.591L222.427 198.506V204.165Z" fill="#D9D9D9"/>
<path d="M213.788 199.251L217.363 201.187V195.677L213.788 193.592V199.251Z" fill="#D9D9D9"/>
<path d="M205.299 194.336L208.873 196.272V190.762L205.299 188.677V194.336Z" fill="#D9D9D9"/>
<path d="M256.381 237.519L259.955 239.604V233.945L256.381 232.009V237.519Z" fill="#D9D9D9"/>
<path d="M247.892 232.606L251.466 234.69V229.032L247.892 227.096V232.606Z" fill="#D9D9D9"/>
<path d="M239.403 227.691L242.978 229.776V224.117L239.403 222.181V227.691Z" fill="#D9D9D9"/>
<path d="M230.914 222.777L234.34 224.862V219.203L230.914 217.267V222.777Z" fill="#D9D9D9"/>
<path d="M222.427 217.864L225.852 219.949V214.29L222.427 212.354V217.864Z" fill="#D9D9D9"/>
<path d="M213.788 212.95L217.363 215.035V209.376L213.788 207.44V212.95Z" fill="#D9D9D9"/>
<path d="M205.299 208.036L208.873 210.121V204.462L205.299 202.526V208.036Z" fill="#D9D9D9"/>
<path d="M256.381 251.368L259.955 253.453V247.794L256.381 245.709V251.368Z" fill="#D9D9D9"/>
<path d="M247.892 246.454L251.466 248.539V242.88L247.892 240.795V246.454Z" fill="#D9D9D9"/>
<path d="M239.403 241.54L242.978 243.625V237.966L239.403 235.881V241.54Z" fill="#D9D9D9"/>
<path d="M230.914 236.626L234.34 238.711V233.052L230.914 230.967V236.626Z" fill="#D9D9D9"/>
<path d="M222.427 231.713L225.852 233.798V228.139L222.427 226.054V231.713Z" fill="#D9D9D9"/>
<path d="M213.788 226.798L217.363 228.883V223.224L213.788 221.14V226.798Z" fill="#D9D9D9"/>
<path d="M205.299 221.884L208.873 223.969V218.31L205.299 216.225V221.884Z" fill="#D9D9D9"/>
<path d="M256.381 265.216L259.955 267.152V261.642L256.381 259.557V265.216Z" fill="#D9D9D9"/>
<path d="M247.892 260.153L251.466 262.238V256.728L247.892 254.643V260.153Z" fill="#D9D9D9"/>
<path d="M239.403 255.239L242.978 257.324V251.814L239.403 249.729V255.239Z" fill="#D9D9D9"/>
<path d="M230.914 250.325L234.34 252.41V246.9L230.914 244.815V250.325Z" fill="#D9D9D9"/>
<path d="M222.427 245.412L225.852 247.497V241.838L222.427 239.902V245.412Z" fill="#D9D9D9"/>
<path d="M213.788 240.498L217.363 242.583V236.924L213.788 234.988V240.498Z" fill="#D9D9D9"/>
<path d="M205.299 235.584L208.873 237.668V232.01L205.299 230.074V235.584Z" fill="#D9D9D9"/>
<path d="M256.381 278.916L259.955 281.001V275.342L256.381 273.257V278.916Z" fill="#D9D9D9"/>
<path d="M247.892 274.002L251.466 276.087V270.428L247.892 268.343V274.002Z" fill="#D9D9D9"/>
<path d="M239.403 269.088L242.978 271.173V265.514L239.403 263.429V269.088Z" fill="#D9D9D9"/>
<path d="M230.914 264.174L234.34 266.259V260.6L230.914 258.515V264.174Z" fill="#D9D9D9"/>
<path d="M222.427 259.261L225.852 261.346V255.687L222.427 253.602V259.261Z" fill="#D9D9D9"/>
<path d="M213.788 254.346L217.363 256.431V250.772L213.788 248.688V254.346Z" fill="#D9D9D9"/>
<path d="M205.299 249.432L208.873 251.517V245.858L205.299 243.773V249.432Z" fill="#D9D9D9"/>
<path d="M256.381 292.764L259.955 294.7V289.19L256.381 287.105V292.764Z" fill="#D9D9D9"/>
<path d="M247.892 287.85L251.466 289.786V284.276L247.892 282.191V287.85Z" fill="#D9D9D9"/>
<path d="M239.403 282.936L242.978 284.872V279.362L239.403 277.277V282.936Z" fill="#D9D9D9"/>
<path d="M230.914 278.023L234.34 279.959V274.449L230.914 272.364V278.023Z" fill="#D9D9D9"/>
<path d="M222.427 273.109L225.852 275.045V269.535L222.427 267.45V273.109Z" fill="#D9D9D9"/>
<path d="M213.788 268.195L217.363 270.131V264.621L213.788 262.536V268.195Z" fill="#D9D9D9"/>
<path d="M205.299 263.281L208.873 265.216V259.706L205.299 257.622V263.281Z" fill="#D9D9D9"/>
<path d="M256.381 306.464L259.955 308.549V302.89L256.381 300.954V306.464Z" fill="#D9D9D9"/>
<path d="M247.892 301.55L251.466 303.635V297.976L247.892 296.04V301.55Z" fill="#D9D9D9"/>
<path d="M239.403 296.636L242.978 298.721V293.062L239.403 291.126V296.636Z" fill="#D9D9D9"/>
<path d="M230.914 291.722L234.34 293.807V288.148L230.914 286.212V291.722Z" fill="#D9D9D9"/>
<path d="M222.427 286.809L225.852 288.894V283.235L222.427 281.15V286.809Z" fill="#D9D9D9"/>
<path d="M213.788 281.895L217.363 283.979V278.32L213.788 276.236V281.895Z" fill="#D9D9D9"/>
<path d="M205.299 276.98L208.873 279.065V273.406L205.299 271.321V276.98Z" fill="#D9D9D9"/>
<path d="M256.381 320.312L259.955 322.397V316.738L256.381 314.653V320.312Z" fill="#D9D9D9"/>
<path d="M247.892 315.398L251.466 317.483V311.824L247.892 309.739V315.398Z" fill="#D9D9D9"/>
<path d="M239.403 310.484L242.978 312.569V306.91L239.403 304.825V310.484Z" fill="#D9D9D9"/>
<path d="M230.914 305.57L234.34 307.506V301.996L230.914 299.911V305.57Z" fill="#D9D9D9"/>
<path d="M222.427 300.657L225.852 302.593V297.083L222.427 294.998V300.657Z" fill="#D9D9D9"/>
<path d="M213.788 295.743L217.363 297.679V292.169L213.788 290.084V295.743Z" fill="#D9D9D9"/>
<path d="M205.299 290.828L208.873 292.764V287.254L205.299 285.169V290.828Z" fill="#D9D9D9"/>
<path d="M256.381 334.012L259.955 336.097V330.438L256.381 328.502V334.012Z" fill="#D9D9D9"/>
<path d="M247.892 329.098L251.466 331.183V325.524L247.892 323.588V329.098Z" fill="#D9D9D9"/>
<path d="M239.403 324.184L242.978 326.269V320.61L239.403 318.674V324.184Z" fill="#D9D9D9"/>
<path d="M230.914 319.27L234.34 321.355V315.696L230.914 313.76V319.27Z" fill="#D9D9D9"/>
<path d="M222.427 314.357L225.852 316.442V310.783L222.427 308.847V314.357Z" fill="#D9D9D9"/>
<path d="M213.788 309.442L217.363 311.527V305.868L213.788 303.932V309.442Z" fill="#D9D9D9"/>
<path d="M205.299 304.528L208.873 306.613V300.954L205.299 299.018V304.528Z" fill="#D9D9D9"/>
<path d="M256.381 347.86L259.955 349.945V344.286L256.381 342.201V347.86Z" fill="#D9D9D9"/>
<path d="M247.892 342.946L251.466 345.031V339.372L247.892 337.287V342.946Z" fill="#D9D9D9"/>
<path d="M239.403 338.032L242.978 340.117V334.458L239.403 332.373V338.032Z" fill="#D9D9D9"/>
<path d="M230.914 333.118L234.34 335.203V329.544L230.914 327.459V333.118Z" fill="#D9D9D9"/>
<path d="M222.427 328.205L225.852 330.29V324.631L222.427 322.546V328.205Z" fill="#D9D9D9"/>
<path d="M213.788 323.291L217.363 325.376V319.717L213.788 317.632V323.291Z" fill="#D9D9D9"/>
<path d="M205.299 318.376L208.873 320.461V314.802L205.299 312.718V318.376Z" fill="#D9D9D9"/>
<path d="M265.465 201.632L200.088 163.958L265.018 126.434L330.247 164.107L265.465 201.632Z" fill="url(#paint68_linear)"/>
<path d="M313.269 164.107L308.503 166.788L265.316 191.804L221.83 166.639L217.064 163.958L265.018 136.262L313.269 164.107Z" fill="url(#paint69_linear)"/>
<path d="M308.503 166.788L265.315 191.804L221.829 166.639L265.017 141.771L308.503 166.788Z" fill="url(#paint70_linear)"/>
<path d="M290.186 295.742L287.505 297.38V298.721L290.93 296.636V291.126L290.186 291.572V295.742Z" fill="#BDBDBD"/>
<path d="M290.186 282.043L287.505 283.532V284.872L290.93 282.936V277.277L290.186 277.724V282.043Z" fill="#BDBDBD"/>
<path d="M290.186 268.194L287.505 269.832V271.173L290.93 269.088V263.429L290.186 264.025V268.194Z" fill="#BDBDBD"/>
<path d="M290.186 309.591L287.505 311.229V312.569L290.93 310.484V304.825L290.186 305.272V309.591Z" fill="#BDBDBD"/>
<path d="M281.548 204.164L278.867 205.802V207.142L282.442 205.058V199.547L281.548 199.994V204.164Z" fill="#BDBDBD"/>
<path d="M281.548 218.012L278.867 219.502V220.842L282.442 218.906V213.247L281.548 213.694V218.012Z" fill="#BDBDBD"/>
<path d="M281.548 231.861L278.867 233.35V234.69L282.442 232.605V227.095L281.548 227.542V231.861Z" fill="#BDBDBD"/>
<path d="M290.186 254.495L287.505 255.984V257.324L290.93 255.239V249.729L290.186 250.176V254.495Z" fill="#BDBDBD"/>
<path d="M290.186 337.139L287.505 338.777V340.117L290.93 338.032V332.373L290.186 332.969V337.139Z" fill="#BDBDBD"/>
<path d="M290.186 323.439L287.505 324.928V326.269L290.93 324.184V318.674L290.186 319.121V323.439Z" fill="#BDBDBD"/>
<path d="M298.673 318.525L295.992 320.014V321.355L299.567 319.27V313.76L298.673 314.207V318.525Z" fill="#BDBDBD"/>
<path d="M298.673 290.828L295.992 292.467V293.807L299.567 291.722V286.212L298.673 286.659V290.828Z" fill="#BDBDBD"/>
<path d="M298.673 304.677L295.992 306.166V307.506L299.567 305.57V299.911L298.673 300.358V304.677Z" fill="#BDBDBD"/>
<path d="M298.673 277.129L295.992 278.618V279.958L299.567 278.022V272.363L298.673 272.81V277.129Z" fill="#BDBDBD"/>
<path d="M290.186 240.646L287.505 242.284V243.625L290.93 241.54V235.881L290.186 236.477V240.646Z" fill="#BDBDBD"/>
<path d="M290.186 213.098L287.505 214.588V215.928L290.93 213.992V208.333L290.186 208.78V213.098Z" fill="#BDBDBD"/>
<path d="M298.673 332.225L295.992 333.863V335.203L299.567 333.118V327.459L298.673 328.055V332.225Z" fill="#BDBDBD"/>
<path d="M290.186 226.947L287.505 228.436V229.776L290.93 227.691V222.181L290.186 222.628V226.947Z" fill="#BDBDBD"/>
<path d="M290.186 199.25L287.505 200.888V202.228L290.93 200.143V194.484L290.186 195.08V199.25Z" fill="#BDBDBD"/>
<path d="M281.548 259.409L278.867 260.898V262.238L282.442 260.153V254.643L281.548 255.09V259.409Z" fill="#BDBDBD"/>
<path d="M273.059 264.323L270.378 265.812V267.152L273.952 265.216V259.557L273.059 260.004V264.323Z" fill="#BDBDBD"/>
<path d="M273.059 291.871L270.378 293.36V294.7L273.952 292.764V287.105L273.059 287.552V291.871Z" fill="#BDBDBD"/>
<path d="M273.059 278.022L270.378 279.66V281.001L273.952 278.916V273.257L273.059 273.853V278.022Z" fill="#BDBDBD"/>
<path d="M273.059 250.474L270.378 252.113V253.453L273.952 251.368V245.709L273.059 246.305V250.474Z" fill="#BDBDBD"/>
<path d="M273.059 346.967L270.378 348.605V349.945L273.952 347.86V342.201L273.059 342.797V346.967Z" fill="#BDBDBD"/>
<path d="M273.059 305.719L270.378 307.208V308.549L273.952 306.464V300.954L273.059 301.4V305.719Z" fill="#BDBDBD"/>
<path d="M273.059 333.267L270.378 334.756V336.097L273.952 334.012V328.502L273.059 328.948V333.267Z" fill="#BDBDBD"/>
<path d="M273.059 222.926L270.378 224.416V225.905L273.952 223.82V218.161L273.059 218.608V222.926Z" fill="#BDBDBD"/>
<path d="M273.059 319.419L270.378 321.057V322.397L273.952 320.312V314.653L273.059 315.1V319.419Z" fill="#BDBDBD"/>
<path d="M281.548 245.56L278.867 247.198V248.539L282.442 246.454V240.795L281.548 241.391V245.56Z" fill="#BDBDBD"/>
<path d="M281.548 273.108L278.867 274.746V276.087L282.442 274.002V268.343L281.548 268.939V273.108Z" fill="#BDBDBD"/>
<path d="M273.059 209.078L270.378 210.716V212.056L273.952 209.971V204.461L273.059 204.908V209.078Z" fill="#BDBDBD"/>
<path d="M298.673 263.28L295.992 264.918V266.259L299.567 264.174V258.515L298.673 259.111V263.28Z" fill="#BDBDBD"/>
<path d="M281.548 300.805L278.867 302.294V303.635L282.442 301.55V296.04L281.548 296.486V300.805Z" fill="#BDBDBD"/>
<path d="M281.548 286.957L278.867 288.446V289.786L282.442 287.85V282.191L281.548 282.638V286.957Z" fill="#BDBDBD"/>
<path d="M281.548 314.505L278.867 316.143V317.483L282.442 315.398V309.739L281.548 310.186V314.505Z" fill="#BDBDBD"/>
<path d="M281.548 342.053L278.867 343.691V345.031L282.442 342.946V337.287L281.548 337.883V342.053Z" fill="#BDBDBD"/>
<path d="M281.548 328.353L278.867 329.842V331.183L282.442 329.098V323.588L281.548 324.034V328.353Z" fill="#BDBDBD"/>
<path d="M273.059 236.775L270.378 238.264V239.604L273.952 237.519V232.009L273.059 232.456V236.775Z" fill="#BDBDBD"/>
<path d="M315.652 212.205L312.971 213.694V215.034L316.545 212.95V207.44L315.652 207.886V212.205Z" fill="#BDBDBD"/>
<path d="M315.652 184.508L312.971 186.146V187.486L316.545 185.402V179.743L315.652 180.338V184.508Z" fill="#BDBDBD"/>
<path d="M315.652 281L312.971 282.639V283.979L316.545 281.894V276.235L315.652 276.831V281Z" fill="#BDBDBD"/>
<path d="M324.14 317.483L321.459 319.121V320.461L325.033 318.376V312.717L324.14 313.164V317.483Z" fill="#BDBDBD"/>
<path d="M315.652 198.357L312.971 199.846V201.186L316.545 199.25V193.591L315.652 194.038V198.357Z" fill="#BDBDBD"/>
<path d="M298.673 249.581L295.992 251.07V252.41L299.567 250.325V244.815L298.673 245.262V249.581Z" fill="#BDBDBD"/>
<path d="M315.652 267.301L312.971 268.79V270.13L316.545 268.194V262.536L315.652 262.982V267.301Z" fill="#BDBDBD"/>
<path d="M315.652 239.753L312.971 241.242V242.582L316.545 240.497V234.987L315.652 235.434V239.753Z" fill="#BDBDBD"/>
<path d="M315.652 225.904L312.971 227.543V228.883L316.545 226.798V221.139L315.652 221.586V225.904Z" fill="#BDBDBD"/>
<path d="M324.14 303.783L321.459 305.273V306.613L325.033 304.528V299.018L324.14 299.465V303.783Z" fill="#BDBDBD"/>
<path d="M324.14 220.991L321.459 222.629V223.969L325.033 221.884V216.225L324.14 216.672V220.991Z" fill="#BDBDBD"/>
<path d="M324.14 193.443L321.459 194.932V196.272L325.033 194.336V188.677L324.14 189.124V193.443Z" fill="#BDBDBD"/>
<path d="M324.14 207.291L321.459 208.78V210.121L325.033 208.036V202.526L324.14 202.972V207.291Z" fill="#BDBDBD"/>
<path d="M324.14 175.424V179.594L321.459 181.232V182.573L325.033 180.488V174.829L324.14 175.424Z" fill="#BDBDBD"/>
<path d="M324.14 262.387L321.459 263.876V265.216L325.033 263.281V257.622L324.14 258.068V262.387Z" fill="#BDBDBD"/>
<path d="M324.14 276.086L321.459 277.725V279.065L325.033 276.98V271.321L324.14 271.917V276.086Z" fill="#BDBDBD"/>
<path d="M324.14 289.935L321.459 291.424V292.764L325.033 290.828V285.169L324.14 285.616V289.935Z" fill="#BDBDBD"/>
<path d="M324.14 234.839L321.459 236.328V237.668L325.033 235.584V230.073L324.14 230.52V234.839Z" fill="#BDBDBD"/>
<path d="M324.14 248.539L321.459 250.177V251.517L325.033 249.432V243.773L324.14 244.369V248.539Z" fill="#BDBDBD"/>
<path d="M315.652 253.452L312.971 255.091V256.431L316.545 254.346V248.687L315.652 249.283V253.452Z" fill="#BDBDBD"/>
<path d="M307.162 299.763L304.481 301.252V302.592L308.056 300.656V294.997L307.162 295.444V299.763Z" fill="#BDBDBD"/>
<path d="M307.162 313.611L304.481 315.1V316.441L308.056 314.356V308.846L307.162 309.293V313.611Z" fill="#BDBDBD"/>
<path d="M307.162 285.914L304.481 287.552V288.893L308.056 286.808V281.149L307.162 281.745V285.914Z" fill="#BDBDBD"/>
<path d="M307.162 327.311L304.481 328.949V330.289L308.056 328.204V322.545L307.162 323.141V327.311Z" fill="#BDBDBD"/>
<path d="M298.673 235.732L295.992 237.37V238.711L299.567 236.626V230.967L298.673 231.563V235.732Z" fill="#BDBDBD"/>
<path d="M298.673 222.033L295.992 223.522V224.862L299.567 222.777V217.267L298.673 217.714V222.033Z" fill="#BDBDBD"/>
<path d="M298.673 194.336L295.992 195.974V197.315L299.567 195.23V189.571L298.673 190.166V194.336Z" fill="#BDBDBD"/>
<path d="M307.162 272.215L304.481 273.704V275.044L308.056 273.108V267.449L307.162 267.896V272.215Z" fill="#BDBDBD"/>
<path d="M298.673 208.184L295.992 209.674V211.014L299.567 209.078V203.419L298.673 203.866V208.184Z" fill="#BDBDBD"/>
<path d="M307.162 203.27L304.481 204.76V206.1L308.056 204.164V198.505L307.162 198.952V203.27Z" fill="#BDBDBD"/>
<path d="M315.652 322.397L312.971 324.035V325.375L316.545 323.29V317.631L315.652 318.227V322.397Z" fill="#BDBDBD"/>
<path d="M307.162 258.367L304.481 260.005V261.345L308.056 259.26V253.601L307.162 254.197V258.367Z" fill="#BDBDBD"/>
<path d="M315.652 294.849L312.971 296.338V297.678L316.545 295.742V290.083L315.652 290.53V294.849Z" fill="#BDBDBD"/>
<path d="M315.652 308.697L312.971 310.186V311.527L316.545 309.442V303.932L315.652 304.379V308.697Z" fill="#BDBDBD"/>
<path d="M307.162 189.422L304.481 191.06V192.4L308.056 190.315V184.656L307.162 185.252V189.422Z" fill="#BDBDBD"/>
<path d="M307.162 244.667L304.481 246.156V247.496L308.056 245.412V239.902L307.162 240.348V244.667Z" fill="#BDBDBD"/>
<path d="M307.162 217.119L304.481 218.608V219.948L308.056 217.863V212.353L307.162 212.8V217.119Z" fill="#BDBDBD"/>
<path d="M307.162 230.819L304.481 232.457V233.797L308.056 231.712V226.053L307.162 226.5V230.819Z" fill="#BDBDBD"/>
<path d="M240.298 295.742L242.979 297.38V298.721L239.404 296.636V291.126L240.298 291.573V295.742Z" fill="#BDBDBD"/>
<path d="M240.298 282.043L242.979 283.532V284.872L239.404 282.936V277.277L240.298 277.724V282.043Z" fill="#BDBDBD"/>
<path d="M240.298 268.194L242.979 269.833V271.173L239.404 269.088V263.429L240.298 264.025V268.194Z" fill="#BDBDBD"/>
<path d="M240.298 309.591L242.979 311.229V312.569L239.404 310.484V304.825L240.298 305.272V309.591Z" fill="#BDBDBD"/>
<path d="M248.786 204.164L251.467 205.802V207.142L247.893 205.058V199.547L248.786 199.994V204.164Z" fill="#BDBDBD"/>
<path d="M248.786 218.012L251.467 219.502V220.842L247.893 218.906V213.247L248.786 213.694V218.012Z" fill="#BDBDBD"/>
<path d="M248.786 231.861L251.467 233.35V234.69L247.893 232.605V227.095L248.786 227.542V231.861Z" fill="#BDBDBD"/>
<path d="M240.298 254.495L242.979 255.984V257.324L239.404 255.24V249.729L240.298 250.176V254.495Z" fill="#BDBDBD"/>
<path d="M240.298 337.139L242.979 338.777V340.117L239.404 338.032V332.373L240.298 332.969V337.139Z" fill="#BDBDBD"/>
<path d="M240.298 323.439L242.979 324.928V326.269L239.404 324.184V318.674L240.298 319.121V323.439Z" fill="#BDBDBD"/>
<path d="M231.659 318.525L234.34 320.014V321.355L230.914 319.27V313.76L231.659 314.207V318.525Z" fill="#BDBDBD"/>
<path d="M231.659 290.828L234.34 292.467V293.807L230.914 291.722V286.212L231.659 286.659V290.828Z" fill="#BDBDBD"/>
<path d="M231.659 304.677L234.34 306.166V307.506L230.914 305.57V299.911L231.659 300.358V304.677Z" fill="#BDBDBD"/>
<path d="M231.659 277.129L234.34 278.618V279.958L230.914 278.022V272.364L231.659 272.81V277.129Z" fill="#BDBDBD"/>
<path d="M240.298 240.646L242.979 242.285V243.625L239.404 241.54V235.881L240.298 236.477V240.646Z" fill="#BDBDBD"/>
<path d="M240.298 213.098L242.979 214.588V215.928L239.404 213.992V208.333L240.298 208.78V213.098Z" fill="#BDBDBD"/>
<path d="M231.659 332.225L234.34 333.863V335.203L230.914 333.118V327.459L231.659 328.055V332.225Z" fill="#BDBDBD"/>
<path d="M240.298 226.947L242.979 228.436V229.776L239.404 227.691V222.181L240.298 222.628V226.947Z" fill="#BDBDBD"/>
<path d="M240.298 199.25L242.979 200.888V202.228L239.404 200.143V194.484L240.298 195.08V199.25Z" fill="#BDBDBD"/>
<path d="M248.786 259.409L251.467 260.898V262.238L247.893 260.153V254.643L248.786 255.09V259.409Z" fill="#BDBDBD"/>
<path d="M257.274 264.323L259.955 265.812V267.152L256.381 265.216V259.557L257.274 260.004V264.323Z" fill="#BDBDBD"/>
<path d="M257.274 291.871L259.955 293.36V294.7L256.381 292.764V287.105L257.274 287.552V291.871Z" fill="#BDBDBD"/>
<path d="M257.274 278.022L259.955 279.66V281.001L256.381 278.916V273.257L257.274 273.853V278.022Z" fill="#BDBDBD"/>
<path d="M257.274 250.474L259.955 252.113V253.453L256.381 251.368V245.709L257.274 246.305V250.474Z" fill="#BDBDBD"/>
<path d="M257.274 346.967L259.955 348.605V349.945L256.381 347.86V342.201L257.274 342.797V346.967Z" fill="#BDBDBD"/>
<path d="M257.274 305.719L259.955 307.208V308.549L256.381 306.464V300.954L257.274 301.4V305.719Z" fill="#BDBDBD"/>
<path d="M257.274 333.267L259.955 334.756V336.097L256.381 334.012V328.502L257.274 328.948V333.267Z" fill="#BDBDBD"/>
<path d="M257.274 222.926L259.955 224.416V225.905L256.381 223.82V218.161L257.274 218.608V222.926Z" fill="#BDBDBD"/>
<path d="M257.274 319.419L259.955 321.057V322.397L256.381 320.312V314.653L257.274 315.1V319.419Z" fill="#BDBDBD"/>
<path d="M248.786 245.56L251.467 247.199V248.539L247.893 246.454V240.795L248.786 241.391V245.56Z" fill="#BDBDBD"/>
<path d="M248.786 273.108L251.467 274.746V276.087L247.893 274.002V268.343L248.786 268.939V273.108Z" fill="#BDBDBD"/>
<path d="M257.274 209.078L259.955 210.716V212.056L256.381 209.972V204.462L257.274 204.908V209.078Z" fill="#BDBDBD"/>
<path d="M231.659 263.281L234.34 264.919V266.259L230.914 264.174V258.515L231.659 259.111V263.281Z" fill="#BDBDBD"/>
<path d="M248.786 300.805L251.467 302.294V303.635L247.893 301.55V296.04L248.786 296.487V300.805Z" fill="#BDBDBD"/>
<path d="M248.786 286.957L251.467 288.446V289.786L247.893 287.85V282.191L248.786 282.638V286.957Z" fill="#BDBDBD"/>
<path d="M248.786 314.505L251.467 316.143V317.483L247.893 315.398V309.739L248.786 310.186V314.505Z" fill="#BDBDBD"/>
<path d="M248.786 342.053L251.467 343.691V345.031L247.893 342.946V337.287L248.786 337.883V342.053Z" fill="#BDBDBD"/>
<path d="M248.786 328.353L251.467 329.842V331.183L247.893 329.098V323.588L248.786 324.034V328.353Z" fill="#BDBDBD"/>
<path d="M257.274 236.775L259.955 238.264V239.604L256.381 237.52V232.01L257.274 232.456V236.775Z" fill="#BDBDBD"/>
<path d="M214.683 212.205L217.363 213.694V215.035L213.789 212.95V207.44L214.683 207.886V212.205Z" fill="#BDBDBD"/>
<path d="M214.683 184.509L217.363 186.147V187.487L213.789 185.402V179.743L214.683 180.339V184.509Z" fill="#BDBDBD"/>
<path d="M214.683 281.001L217.363 282.639V283.979L213.789 281.894V276.235L214.683 276.831V281.001Z" fill="#BDBDBD"/>
<path d="M206.193 317.483L208.874 319.121V320.461L205.3 318.376V312.718L206.193 313.164V317.483Z" fill="#BDBDBD"/>
<path d="M214.683 198.357L217.363 199.846V201.186L213.789 199.25V193.591L214.683 194.038V198.357Z" fill="#BDBDBD"/>
<path d="M231.659 249.581L234.34 251.07V252.41L230.914 250.325V244.815L231.659 245.262V249.581Z" fill="#BDBDBD"/>
<path d="M214.683 267.301L217.363 268.79V270.13L213.789 268.194V262.536L214.683 262.982V267.301Z" fill="#BDBDBD"/>
<path d="M214.683 239.753L217.363 241.242V242.582L213.789 240.498V234.988L214.683 235.434V239.753Z" fill="#BDBDBD"/>
<path d="M214.683 225.905L217.363 227.543V228.883L213.789 226.798V221.139L214.683 221.586V225.905Z" fill="#BDBDBD"/>
<path d="M206.193 303.783L208.874 305.273V306.613L205.3 304.528V299.018L206.193 299.465V303.783Z" fill="#BDBDBD"/>
<path d="M206.193 220.991L208.874 222.629V223.969L205.3 221.884V216.225L206.193 216.672V220.991Z" fill="#BDBDBD"/>
<path d="M206.193 193.443L208.874 194.932V196.272L205.3 194.336V188.677L206.193 189.124V193.443Z" fill="#BDBDBD"/>
<path d="M206.193 207.291L208.874 208.78V210.121L205.3 208.036V202.526L206.193 202.972V207.291Z" fill="#BDBDBD"/>
<path d="M206.193 175.425V179.594L208.874 181.232V182.573L205.3 180.488V174.829L206.193 175.425Z" fill="#BDBDBD"/>
<path d="M206.193 262.387L208.874 263.876V265.216L205.3 263.281V257.622L206.193 258.068V262.387Z" fill="#BDBDBD"/>
<path d="M206.193 276.087L208.874 277.725V279.065L205.3 276.98V271.321L206.193 271.917V276.087Z" fill="#BDBDBD"/>
<path d="M206.193 289.935L208.874 291.424V292.764L205.3 290.828V285.169L206.193 285.616V289.935Z" fill="#BDBDBD"/>
<path d="M206.193 234.839L208.874 236.328V237.668L205.3 235.584V230.074L206.193 230.52V234.839Z" fill="#BDBDBD"/>
<path d="M206.193 248.539L208.874 250.177V251.517L205.3 249.432V243.773L206.193 244.369V248.539Z" fill="#BDBDBD"/>
<path d="M214.683 253.452L217.363 255.091V256.431L213.789 254.346V248.687L214.683 249.283V253.452Z" fill="#BDBDBD"/>
<path d="M223.171 299.763L225.852 301.252V302.592L222.427 300.656V294.997L223.171 295.444V299.763Z" fill="#BDBDBD"/>
<path d="M223.171 313.611L225.852 315.101V316.441L222.427 314.356V308.846L223.171 309.293V313.611Z" fill="#BDBDBD"/>
<path d="M223.171 285.914L225.852 287.553V288.893L222.427 286.808V281.149L223.171 281.745V285.914Z" fill="#BDBDBD"/>
<path d="M223.171 327.311L225.852 328.949V330.289L222.427 328.204V322.545L223.171 323.141V327.311Z" fill="#BDBDBD"/>
<path d="M231.659 235.732L234.34 237.371V238.711L230.914 236.626V230.967L231.659 231.563V235.732Z" fill="#BDBDBD"/>
<path d="M231.659 222.033L234.34 223.522V224.862L230.914 222.777V217.267L231.659 217.714V222.033Z" fill="#BDBDBD"/>
<path d="M231.659 194.336L234.34 195.974V197.315L230.914 195.23V189.571L231.659 190.166V194.336Z" fill="#BDBDBD"/>
<path d="M223.171 272.215L225.852 273.704V275.045L222.427 273.109V267.45L223.171 267.896V272.215Z" fill="#BDBDBD"/>
<path d="M231.659 208.184L234.34 209.674V211.014L230.914 209.078V203.419L231.659 203.866V208.184Z" fill="#BDBDBD"/>
<path d="M223.171 203.271L225.852 204.76V206.1L222.427 204.164V198.505L223.171 198.952V203.271Z" fill="#BDBDBD"/>
<path d="M214.683 322.397L217.363 324.035V325.375L213.789 323.29V317.631L214.683 318.227V322.397Z" fill="#BDBDBD"/>
<path d="M223.171 258.367L225.852 260.005V261.345L222.427 259.26V253.601L223.171 254.197V258.367Z" fill="#BDBDBD"/>
<path d="M214.683 294.849L217.363 296.338V297.678L213.789 295.742V290.083L214.683 290.53V294.849Z" fill="#BDBDBD"/>
<path d="M214.683 308.697L217.363 310.187V311.527L213.789 309.442V303.932L214.683 304.379V308.697Z" fill="#BDBDBD"/>
<path d="M223.172 189.423L225.853 191.061V192.401L222.428 190.316V184.657L223.172 185.253V189.423Z" fill="#BDBDBD"/>
<path d="M223.171 244.667L225.852 246.156V247.496L222.427 245.412V239.902L223.171 240.348V244.667Z" fill="#BDBDBD"/>
<path d="M223.171 217.119L225.852 218.608V219.948L222.427 217.864V212.354L223.171 212.8V217.119Z" fill="#BDBDBD"/>
<path d="M223.171 230.819L225.852 232.457V233.797L222.427 231.712V226.053L223.171 226.5V230.819Z" fill="#BDBDBD"/>
<path d="M293.313 166.788L265.167 183.019V177.211L293.313 160.98V166.788Z" fill="url(#paint71_linear)"/>
<path d="M237.02 166.788L265.166 183.019V177.211L237.02 160.98V166.788Z" fill="url(#paint72_linear)"/>
<path d="M265.315 177.211L237.02 160.98L265.166 144.749L293.313 160.98L265.315 177.211Z" fill="url(#paint73_linear)"/>
<g style="mix-blend-mode:multiply">
<path d="M199.816 417.642L264.651 455.377V214.562L199.816 178.372V417.642Z" fill="url(#paint74_linear)"/>
</g>
<path d="M111.479 455.52L162.112 484.706V368.558L111.479 339.372V455.52Z" fill="url(#paint75_linear)"/>
<path d="M212.598 455.52L162.113 484.706V368.558L212.598 339.521V455.52Z" fill="url(#paint76_linear)"/>
<path d="M111.479 455.52L162.112 484.408V368.26L111.479 339.372V455.52Z" fill="url(#paint77_linear)"/>
<path d="M162.261 368.707L111.479 339.372L161.964 310.335L212.597 339.521L162.261 368.707Z" fill="url(#paint78_linear)"/>
<path d="M167.472 468.475L164.791 469.964V376.599L167.472 374.961V468.475Z" fill="#BDBDBD"/>
<path d="M166.876 467.731L164.791 468.922V469.964L167.472 468.475V374.961L166.876 375.408V467.731Z" fill="#D9D9D9"/>
<path d="M174.321 464.306L171.641 465.944V372.43L174.321 370.941V464.306Z" fill="#BDBDBD"/>
<path d="M173.726 463.71L171.641 464.902V465.944L174.321 464.306V370.941L173.726 371.238V463.71Z" fill="#D9D9D9"/>
<path d="M181.173 460.285L178.492 461.774V368.409L181.173 366.771V460.285Z" fill="#BDBDBD"/>
<path d="M180.577 459.541L178.492 460.732V461.774L181.173 460.285V366.771L180.577 367.218V459.541Z" fill="#D9D9D9"/>
<path d="M188.171 456.116L185.342 457.754V364.24L188.171 362.751V456.116Z" fill="#BDBDBD"/>
<path d="M187.427 455.52L185.342 456.712V457.754L188.171 456.116V362.751L187.427 363.049V455.52Z" fill="#D9D9D9"/>
<path d="M195.023 452.095L192.193 453.585V360.219L195.023 358.581V452.095Z" fill="#BDBDBD"/>
<path d="M194.278 451.351L192.193 452.542V453.585L195.023 452.095V358.581L194.278 359.028V451.351Z" fill="#D9D9D9"/>
<path d="M201.872 447.926L199.043 449.564V356.05L201.872 354.561V447.926Z" fill="#BDBDBD"/>
<path d="M201.128 447.33L199.043 448.522V449.564L201.872 447.926V354.561L201.128 354.858V447.33Z" fill="#D9D9D9"/>
<path d="M208.723 443.905L205.894 445.543V352.029L208.723 350.391V443.905Z" fill="#BDBDBD"/>
<path d="M207.979 443.161L205.894 444.501V445.543L208.723 443.905V350.391L207.979 350.838V443.161Z" fill="#D9D9D9"/>
<path d="M155.561 374.961L158.241 376.599V469.964L155.561 468.475V374.961Z" fill="#BDBDBD"/>
<path d="M156.156 467.731L158.241 468.922V469.964L155.561 468.475V374.961L156.156 375.408V467.731Z" fill="#D9D9D9"/>
<path d="M148.56 370.941L151.389 372.43V465.944L148.56 464.306V370.941Z" fill="#BDBDBD"/>
<path d="M149.304 463.71L151.389 464.901V465.944L148.56 464.306V370.941L149.304 371.238V463.71Z" fill="#D9D9D9"/>
<path d="M141.71 366.771L144.54 368.409V461.774L141.71 460.285V366.771Z" fill="#BDBDBD"/>
<path d="M142.455 459.541L144.54 460.732V461.774L141.71 460.285V366.771L142.455 367.218V459.541Z" fill="#D9D9D9"/>
<path d="M134.858 362.75L137.688 364.24V457.754L134.858 456.116V362.75Z" fill="#BDBDBD"/>
<path d="M135.603 455.52L137.688 456.711V457.754L134.858 456.116V362.75L135.603 363.048V455.52Z" fill="#D9D9D9"/>
<path d="M128.009 358.581L130.838 360.219V453.584L128.009 452.095V358.581Z" fill="#BDBDBD"/>
<path d="M128.753 451.351L130.838 452.542V453.584L128.009 452.095V358.581L128.753 359.028V451.351Z" fill="#D9D9D9"/>
<path d="M121.158 354.561L123.839 356.05V449.564L121.158 447.926V354.561Z" fill="#BDBDBD"/>
<path d="M121.754 447.331L123.839 448.522V449.564L121.158 447.926V354.561L121.754 354.859V447.331Z" fill="#D9D9D9"/>
<path d="M114.308 350.391L116.988 352.029V445.543L114.308 443.905V350.391Z" fill="#BDBDBD"/>
<path d="M114.903 443.161L116.988 444.501V445.543L114.308 443.905V350.391L114.903 350.838V443.161Z" fill="#D9D9D9"/>
<path d="M120.86 338.776L162.112 362.453V253.75L120.86 229.925V338.776Z" fill="url(#paint79_linear)"/>
<path d="M203.215 338.776L162.112 362.453V253.75L203.215 230.074V338.776Z" fill="url(#paint80_linear)"/>
<path d="M120.86 338.776L162.112 362.304V253.601L120.86 229.925V338.776Z" fill="url(#paint81_linear)"/>
<path d="M162.261 253.899L120.86 229.925L161.963 206.248L203.215 230.074L162.261 253.899Z" fill="url(#paint82_linear)"/>
<path d="M166.431 349.2L164.197 350.54V260.302L166.431 258.962V349.2Z" fill="#BDBDBD"/>
<path d="M165.984 348.604L164.197 349.647V350.54L166.431 349.2V258.962L165.984 259.259V348.604Z" fill="#D9D9D9"/>
<path d="M172.09 345.924L169.856 347.115V256.877L172.09 255.686V345.924Z" fill="#BDBDBD"/>
<path d="M171.495 345.328L169.856 346.371V347.115L172.09 345.924V255.686L171.495 255.983V345.328Z" fill="#D9D9D9"/>
<path d="M177.748 342.499L175.365 343.839V253.601L177.748 252.261V342.499Z" fill="#BDBDBD"/>
<path d="M177.152 342.052L175.365 342.946V343.839L177.748 342.499V252.261L177.152 252.708V342.052Z" fill="#D9D9D9"/>
<path d="M183.26 339.223L181.026 340.563V250.325L183.26 248.985V339.223Z" fill="#BDBDBD"/>
<path d="M182.813 338.627L181.026 339.67V340.563L183.26 339.223V248.985L182.813 249.283V338.627Z" fill="#D9D9D9"/>
<path d="M188.917 335.798L186.684 337.138V246.9L188.917 245.709V335.798Z" fill="#BDBDBD"/>
<path d="M188.322 335.352L186.684 336.245V337.138L188.917 335.798V245.709L188.322 246.007V335.352Z" fill="#D9D9D9"/>
<path d="M194.428 332.522L192.194 333.862V243.624L194.428 242.284V332.522Z" fill="#BDBDBD"/>
<path d="M193.981 332.075L192.194 332.969V333.862L194.428 332.522V242.284L193.981 242.582V332.075Z" fill="#D9D9D9"/>
<path d="M200.087 329.246L197.854 330.437V240.348L200.087 239.008V329.246Z" fill="#BDBDBD"/>
<path d="M199.492 328.651L197.854 329.693V330.437L200.087 329.246V239.008L199.492 239.306V328.651Z" fill="#D9D9D9"/>
<path d="M156.75 258.962L158.984 260.302V350.54L156.75 349.2V258.962Z" fill="#BDBDBD"/>
<path d="M157.197 348.604L158.984 349.647V350.54L156.75 349.2V258.962L157.197 259.259V348.604Z" fill="#D4D4D4"/>
<path d="M151.091 255.686L153.325 256.877V347.115L151.091 345.924V255.686Z" fill="#BDBDBD"/>
<path d="M151.687 345.328L153.325 346.37V347.115L151.091 345.924V255.686L151.687 255.983V345.328Z" fill="#D4D4D4"/>
<path d="M145.58 252.261L147.814 253.601V343.839L145.58 342.499V252.261Z" fill="#BDBDBD"/>
<path d="M146.027 342.052L147.814 342.946V343.839L145.58 342.499V252.261L146.027 252.708V342.052Z" fill="#D4D4D4"/>
<path d="M139.923 248.985L142.157 250.325V340.563L139.923 339.223V248.985Z" fill="#BDBDBD"/>
<path d="M140.519 338.627L142.157 339.67V340.563L139.923 339.223V248.985L140.519 249.283V338.627Z" fill="#D4D4D4"/>
<path d="M134.263 245.709L136.497 246.9V337.138L134.263 335.798V245.709Z" fill="#BDBDBD"/>
<path d="M134.858 335.351L136.497 336.245V337.138L134.263 335.798V245.709L134.858 246.007V335.351Z" fill="#D4D4D4"/>
<path d="M128.753 242.284L130.987 243.624V333.863L128.753 332.522V242.284Z" fill="#BDBDBD"/>
<path d="M129.2 332.076L130.987 332.969V333.863L128.753 332.522V242.284L129.2 242.582V332.076Z" fill="#D4D4D4"/>
<path d="M123.094 239.008L125.328 240.348V330.437L123.094 329.246V239.008Z" fill="#BDBDBD"/>
<path d="M123.689 328.651L125.328 329.693V330.437L123.094 329.246V239.008L123.689 239.306V328.651Z" fill="#D4D4D4"/>
<path d="M192.492 230.074L189.513 231.861L162.111 247.645L134.56 231.712L131.582 230.074L161.962 212.503L192.492 230.074Z" fill="url(#paint83_linear)"/>
<path d="M189.514 231.861L162.112 247.645L134.562 231.712L161.963 215.927L189.514 231.861Z" fill="url(#paint84_linear)"/>
<path d="M192.641 230.074L162.111 247.645V228.287L192.641 210.865V230.074Z" fill="url(#paint85_linear)"/>
<path d="M181.027 224.713V229.329L173.58 233.648V229.032L180.282 225.16L181.027 224.713Z" fill="#D9D9D9"/>
<path d="M180.281 225.161V228.735L173.579 232.607V229.032L180.281 225.161Z" fill="#BDBDBD"/>
<path d="M131.582 230.074L162.111 247.496V228.138L131.582 210.716V230.074Z" fill="url(#paint86_linear)"/>
<path d="M162.111 228.436L131.582 210.716L161.962 193.145L192.641 210.865L162.111 228.436Z" fill="url(#paint87_linear)"/>
<path d="M131.583 210.716L162.112 183.019V228.436L131.583 210.716Z" fill="url(#paint88_linear)"/>
<path d="M162.112 183.019L192.493 210.864L162.112 228.436V183.019Z" fill="url(#paint89_linear)"/>
<defs>
<linearGradient id="paint0_linear" x1="117.695" y1="448.983" x2="268.887" y2="324.959" gradientUnits="userSpaceOnUse">
<stop stop-color="white" stop-opacity="0"/>
<stop offset="0.977583" stop-color="#797979"/>
</linearGradient>
<linearGradient id="paint1_linear" x1="88" y1="497" x2="159.387" y2="420.429" gradientUnits="userSpaceOnUse">
<stop stop-color="white" stop-opacity="0"/>
<stop offset="0.977583" stop-color="#797979"/>
</linearGradient>
<linearGradient id="paint2_linear" x1="385.057" y1="431.706" x2="530.419" y2="302.347" gradientUnits="userSpaceOnUse">
<stop stop-color="white" stop-opacity="0"/>
<stop offset="0.977583" stop-color="#797979"/>
</linearGradient>
<linearGradient id="paint3_linear" x1="263.621" y1="332.911" x2="373.159" y2="242.713" gradientUnits="userSpaceOnUse">
<stop stop-color="white" stop-opacity="0"/>
<stop offset="0.977583" stop-color="#797979"/>
</linearGradient>
<linearGradient id="paint4_linear" x1="410.252" y1="175.149" x2="420.28" y2="227.259" gradientUnits="userSpaceOnUse">
<stop stop-color="#804EFC"/>
<stop offset="1" stop-color="#3B28AD"/>
</linearGradient>
<linearGradient id="paint5_linear" x1="400.96" y1="138.248" x2="450.778" y2="138.248" gradientUnits="userSpaceOnUse">
<stop stop-color="#804EFC"/>
<stop offset="1" stop-color="#3B28AD"/>
</linearGradient>
<linearGradient id="paint6_linear" x1="448" y1="63" x2="463.5" y2="143.316" gradientUnits="userSpaceOnUse">
<stop stop-color="#FDFDFD"/>
<stop offset="1" stop-color="#D9D9D9"/>
</linearGradient>
<linearGradient id="paint7_linear" x1="554" y1="66" x2="468.736" y2="107.879" gradientUnits="userSpaceOnUse">
<stop stop-color="#FDFDFD"/>
<stop offset="1" stop-color="#EBEBEB"/>
</linearGradient>
<linearGradient id="paint8_linear" x1="441.197" y1="33.3363" x2="441.192" y2="92.124" gradientUnits="userSpaceOnUse">
<stop stop-color="#CECECE"/>
<stop offset="1" stop-color="#FDFDFD"/>
</linearGradient>
<linearGradient id="paint9_linear" x1="491.145" y1="45.1008" x2="402.576" y2="77.8213" gradientUnits="userSpaceOnUse">
<stop stop-color="#FDFDFD"/>
<stop offset="1" stop-color="#EBEBEB"/>
</linearGradient>
<linearGradient id="paint10_linear" x1="415.345" y1="49.6257" x2="449.022" y2="49.6257" gradientUnits="userSpaceOnUse">
<stop stop-color="#804EFC"/>
<stop offset="1" stop-color="#3B28AD"/>
</linearGradient>
<linearGradient id="paint11_linear" x1="432.242" y1="22.5438" x2="443.011" y2="69.4752" gradientUnits="userSpaceOnUse">
<stop stop-color="#FDFDFD"/>
<stop offset="1" stop-color="#D9D9D9"/>
</linearGradient>
<linearGradient id="paint12_linear" x1="463.745" y1="9.64365" x2="451.964" y2="40.0794" gradientUnits="userSpaceOnUse">
<stop stop-color="#FDFDFD"/>
<stop offset="1" stop-color="#EBEBEB"/>
</linearGradient>
<linearGradient id="paint13_linear" x1="442.494" y1="6.93118" x2="442.49" y2="46.7272" gradientUnits="userSpaceOnUse">
<stop stop-color="#CECECE"/>
<stop offset="1" stop-color="#FDFDFD"/>
</linearGradient>
<linearGradient id="paint14_linear" x1="476.35" y1="14.9526" x2="416.366" y2="37.1989" gradientUnits="userSpaceOnUse">
<stop stop-color="#FDFDFD"/>
<stop offset="1" stop-color="#EBEBEB"/>
</linearGradient>
<linearGradient id="paint15_linear" x1="416.699" y1="50.5" x2="421.165" y2="170.834" gradientUnits="userSpaceOnUse">
<stop stop-color="#FDFDFD"/>
<stop offset="1" stop-color="#EBEBEB"/>
</linearGradient>
<linearGradient id="paint16_linear" x1="272.015" y1="163.143" x2="218.877" y2="192.233" gradientUnits="userSpaceOnUse">
<stop stop-color="#FDFDFD"/>
<stop offset="1" stop-color="#BAC6EB"/>
</linearGradient>
<linearGradient id="paint17_linear" x1="274.637" y1="135.374" x2="308.684" y2="204.575" gradientUnits="userSpaceOnUse">
<stop stop-color="#FDFDFD"/>
<stop offset="1" stop-color="#EBEBEB"/>
</linearGradient>
<linearGradient id="paint18_linear" x1="195.848" y1="147.148" x2="261.296" y2="203.859" gradientUnits="userSpaceOnUse">
<stop stop-color="#FDFDFD"/>
<stop offset="1" stop-color="#BAC6EB"/>
</linearGradient>
<linearGradient id="paint19_linear" x1="232.365" y1="111.64" x2="303.65" y2="169.134" gradientUnits="userSpaceOnUse">
<stop stop-color="#FDFDFD"/>
<stop offset="1" stop-color="#B8B8B8"/>
</linearGradient>
<linearGradient id="paint20_linear" x1="256.735" y1="109.916" x2="263.704" y2="150.604" gradientUnits="userSpaceOnUse">
<stop stop-color="#BAC6EB"/>
<stop offset="1" stop-color="#FDFDFD"/>
</linearGradient>
<linearGradient id="paint21_linear" x1="240.408" y1="113.007" x2="295.786" y2="177.018" gradientUnits="userSpaceOnUse">
<stop stop-color="#FDFDFD"/>
<stop offset="1" stop-color="#BAC6EB"/>
</linearGradient>
<linearGradient id="paint22_linear" x1="270.708" y1="99.646" x2="223.867" y2="125.289" gradientUnits="userSpaceOnUse">
<stop stop-color="#FDFDFD"/>
<stop offset="1" stop-color="#BAC6EB"/>
</linearGradient>
<linearGradient id="paint23_linear" x1="273.011" y1="75.1439" x2="303.046" y2="136.129" gradientUnits="userSpaceOnUse">
<stop stop-color="#FDFDFD"/>
<stop offset="1" stop-color="#EBEBEB"/>
</linearGradient>
<linearGradient id="paint24_linear" x1="230.12" y1="74.9959" x2="260.241" y2="136.047" gradientUnits="userSpaceOnUse">
<stop stop-color="#FDFDFD"/>
<stop offset="1" stop-color="#CBCBCB"/>
</linearGradient>
<linearGradient id="paint25_linear" x1="235.779" y1="54.3084" x2="298.557" y2="104.946" gradientUnits="userSpaceOnUse">
<stop stop-color="#FDFDFD"/>
<stop offset="1" stop-color="#B8B8B8"/>
</linearGradient>
<linearGradient id="paint26_linear" x1="257.24" y1="52.7266" x2="263.383" y2="88.5935" gradientUnits="userSpaceOnUse">
<stop stop-color="#BAC6EB"/>
<stop offset="1" stop-color="#FDFDFD"/>
</linearGradient>
<linearGradient id="paint27_linear" x1="242.847" y1="55.4515" x2="291.664" y2="111.878" gradientUnits="userSpaceOnUse">
<stop stop-color="#FDFDFD"/>
<stop offset="1" stop-color="#BAC6EB"/>
</linearGradient>
<linearGradient id="paint28_linear" x1="269.533" y1="44.119" x2="228.353" y2="66.6628" gradientUnits="userSpaceOnUse">
<stop stop-color="#FDFDFD"/>
<stop offset="1" stop-color="#BAC6EB"/>
</linearGradient>
<linearGradient id="paint29_linear" x1="271.55" y1="22.6635" x2="297.916" y2="76.223" gradientUnits="userSpaceOnUse">
<stop stop-color="#FDFDFD"/>
<stop offset="1" stop-color="#EBEBEB"/>
</linearGradient>
<linearGradient id="paint30_linear" x1="233.872" y1="22.5155" x2="260.324" y2="76.1407" gradientUnits="userSpaceOnUse">
<stop stop-color="#FDFDFD"/>
<stop offset="1" stop-color="#D9D9D9"/>
</linearGradient>
<linearGradient id="paint31_linear" x1="283.91" y1="4.248" x2="269.138" y2="42.3726" gradientUnits="userSpaceOnUse">
<stop stop-color="#FDFDFD"/>
<stop offset="1" stop-color="#EBEBEB"/>
</linearGradient>
<linearGradient id="paint32_linear" x1="257.718" y1="2.81911" x2="257.714" y2="48.0896" gradientUnits="userSpaceOnUse">
<stop stop-color="#CECECE"/>
<stop offset="1" stop-color="#FDFDFD"/>
</linearGradient>
<linearGradient id="paint33_linear" x1="293.521" y1="12.4462" x2="229.67" y2="34.7254" gradientUnits="userSpaceOnUse">
<stop stop-color="#FDFDFD"/>
<stop offset="1" stop-color="#EBEBEB"/>
</linearGradient>
<linearGradient id="paint34_linear" x1="232.5" y1="256.5" x2="131.234" y2="197.091" gradientUnits="userSpaceOnUse">
<stop stop-color="#FDFDFD"/>
<stop offset="1" stop-color="#D1D1D1"/>
</linearGradient>
<linearGradient id="paint35_linear" x1="410.192" y1="193.111" x2="305.454" y2="250.449" gradientUnits="userSpaceOnUse">
<stop stop-color="#FDFDFD"/>
<stop offset="1" stop-color="#BAC6EB"/>
</linearGradient>
<linearGradient id="paint36_linear" x1="391.218" y1="128.195" x2="483.038" y2="242.239" gradientUnits="userSpaceOnUse">
<stop stop-color="#FDFDFD"/>
<stop offset="1" stop-color="#D9D9D9"/>
</linearGradient>
<linearGradient id="paint37_linear" x1="326.138" y1="127.897" x2="417.958" y2="241.941" gradientUnits="userSpaceOnUse">
<stop stop-color="#FDFDFD"/>
<stop offset="1" stop-color="#D9D9D9"/>
</linearGradient>
<linearGradient id="paint38_linear" x1="412.567" y1="95.8473" x2="387.148" y2="161.594" gradientUnits="userSpaceOnUse">
<stop stop-color="#FDFDFD"/>
<stop offset="1" stop-color="#EBEBEB"/>
</linearGradient>
<linearGradient id="paint39_linear" x1="367.325" y1="93.4485" x2="367.318" y2="171.624" gradientUnits="userSpaceOnUse">
<stop stop-color="#CECECE"/>
<stop offset="1" stop-color="#FDFDFD"/>
</linearGradient>
<linearGradient id="paint40_linear" x1="428.992" y1="109.943" x2="318.908" y2="148.13" gradientUnits="userSpaceOnUse">
<stop stop-color="#FDFDFD"/>
<stop offset="1" stop-color="#EBEBEB"/>
</linearGradient>
<linearGradient id="paint41_linear" x1="386.124" y1="127.955" x2="392.194" y2="135.489" gradientUnits="userSpaceOnUse">
<stop stop-color="#FDFDFD"/>
<stop offset="1" stop-color="white"/>
</linearGradient>
<linearGradient id="paint42_linear" x1="368.083" y1="117.627" x2="354.79" y2="142.092" gradientUnits="userSpaceOnUse">
<stop stop-color="#FDFDFD"/>
<stop offset="1" stop-color="#D4D4D4"/>
</linearGradient>
<linearGradient id="paint43_linear" x1="409.361" y1="110.973" x2="337.88" y2="135.795" gradientUnits="userSpaceOnUse">
<stop stop-color="#FDFDFD"/>
<stop offset="1" stop-color="#EBEBEB"/>
</linearGradient>
<linearGradient id="paint44_linear" x1="336.057" y1="165.701" x2="337.196" y2="332.765" gradientUnits="userSpaceOnUse">
<stop stop-color="#FDFDFD"/>
<stop offset="1" stop-color="#EBEBEB"/>
</linearGradient>
<linearGradient id="paint45_linear" x1="414.257" y1="198.516" x2="415.192" y2="320.267" gradientUnits="userSpaceOnUse">
<stop stop-color="#FDFDFD"/>
<stop offset="1" stop-color="#EBEBEB"/>
</linearGradient>
<linearGradient id="paint46_linear" x1="42.5863" y1="314.161" x2="102.536" y2="264.541" gradientUnits="userSpaceOnUse">
<stop stop-color="white" stop-opacity="0"/>
<stop offset="0.977583" stop-color="#797979"/>
</linearGradient>
<linearGradient id="paint47_linear" x1="432.333" y1="357.873" x2="448.174" y2="440.189" gradientUnits="userSpaceOnUse">
<stop stop-color="#804EFC"/>
<stop offset="1" stop-color="#3B28AD"/>
</linearGradient>
<linearGradient id="paint48_linear" x1="417.655" y1="299.583" x2="496.351" y2="299.583" gradientUnits="userSpaceOnUse">
<stop stop-color="#804EFC"/>
<stop offset="1" stop-color="#3B28AD"/>
</linearGradient>
<linearGradient id="paint49_linear" x1="466" y1="278.5" x2="526.359" y2="369.694" gradientUnits="userSpaceOnUse">
<stop stop-color="#FDFDFD"/>
<stop offset="1" stop-color="#D9D9D9"/>
</linearGradient>
<linearGradient id="paint50_linear" x1="530.627" y1="139.653" x2="503.145" y2="210.692" gradientUnits="userSpaceOnUse">
<stop stop-color="#FDFDFD"/>
<stop offset="1" stop-color="#EBEBEB"/>
</linearGradient>
<linearGradient id="paint51_linear" x1="480.912" y1="133.571" x2="480.904" y2="226.431" gradientUnits="userSpaceOnUse">
<stop stop-color="#CECECE"/>
<stop offset="1" stop-color="#FDFDFD"/>
</linearGradient>
<linearGradient id="paint52_linear" x1="560.215" y1="152.375" x2="419.932" y2="204.671" gradientUnits="userSpaceOnUse">
<stop stop-color="#FDFDFD"/>
<stop offset="1" stop-color="#EBEBEB"/>
</linearGradient>
<linearGradient id="paint53_linear" x1="146.781" y1="169.718" x2="43.4323" y2="226.297" gradientUnits="userSpaceOnUse">
<stop stop-color="#FDFDFD"/>
<stop offset="1" stop-color="#BAC6EB"/>
</linearGradient>
<linearGradient id="paint54_linear" x1="111.662" y1="98.4866" x2="207.908" y2="173.641" gradientUnits="userSpaceOnUse">
<stop stop-color="#FDFDFD"/>
<stop offset="1" stop-color="#EBEBEB"/>
</linearGradient>
<linearGradient id="paint55_linear" x1="68.4733" y1="98.3366" x2="164.671" y2="173.504" gradientUnits="userSpaceOnUse">
<stop stop-color="#FDFDFD"/>
<stop offset="1" stop-color="#CBCBCB"/>
</linearGradient>
<linearGradient id="paint56_linear" x1="125.829" y1="76.5861" x2="108.972" y2="120.204" gradientUnits="userSpaceOnUse">
<stop stop-color="#FDFDFD"/>
<stop offset="1" stop-color="#EBEBEB"/>
</linearGradient>
<linearGradient id="paint57_linear" x1="95.8126" y1="75.0342" x2="95.8077" y2="126.802" gradientUnits="userSpaceOnUse">
<stop stop-color="#CECECE"/>
<stop offset="1" stop-color="#FDFDFD"/>
</linearGradient>
<linearGradient id="paint58_linear" x1="136.709" y1="86.0228" x2="63.7582" y2="111.426" gradientUnits="userSpaceOnUse">
<stop stop-color="#FDFDFD"/>
<stop offset="1" stop-color="#EBEBEB"/>
</linearGradient>
<linearGradient id="paint59_linear" x1="305.334" y1="369.133" x2="338.057" y2="409.748" gradientUnits="userSpaceOnUse">
<stop stop-color="#FDFDFD"/>
<stop offset="1" stop-color="#D1D1D1"/>
</linearGradient>
<linearGradient id="paint60_linear" x1="158" y1="345" x2="261.114" y2="347.434" gradientUnits="userSpaceOnUse">
<stop stop-color="#FDFDFD"/>
<stop offset="1" stop-color="#C2C2C2"/>
</linearGradient>
<linearGradient id="paint61_linear" x1="211.934" y1="314.008" x2="344.629" y2="420.875" gradientUnits="userSpaceOnUse">
<stop stop-color="#FDFDFD"/>
<stop offset="1" stop-color="#B8B8B8"/>
</linearGradient>
<linearGradient id="paint62_linear" x1="302.306" y1="348.283" x2="320.872" y2="371.326" gradientUnits="userSpaceOnUse">
<stop stop-color="#FDFDFD"/>
<stop offset="1" stop-color="#C2C2C2"/>
</linearGradient>
<linearGradient id="paint63_linear" x1="143.5" y1="381.5" x2="217.875" y2="331.599" gradientUnits="userSpaceOnUse">
<stop stop-color="#FDFDFD"/>
<stop offset="1" stop-color="#C2C2C2"/>
</linearGradient>
<linearGradient id="paint64_linear" x1="256" y1="263.5" x2="222.989" y2="375.997" gradientUnits="userSpaceOnUse">
<stop offset="0.0120288" stop-color="#FDFDFD"/>
<stop offset="1" stop-color="#CCCCCC"/>
</linearGradient>
<linearGradient id="paint65_linear" x1="302.343" y1="230.437" x2="197.605" y2="287.776" gradientUnits="userSpaceOnUse">
<stop stop-color="#FDFDFD"/>
<stop offset="1" stop-color="#BAC6EB"/>
</linearGradient>
<linearGradient id="paint66_linear" x1="283.398" y1="165.423" x2="375.297" y2="279.484" gradientUnits="userSpaceOnUse">
<stop stop-color="#FDFDFD"/>
<stop offset="1" stop-color="#EBEBEB"/>
</linearGradient>
<linearGradient id="paint67_linear" x1="218.318" y1="165.275" x2="310.296" y2="279.353" gradientUnits="userSpaceOnUse">
<stop stop-color="#FDFDFD"/>
<stop offset="1" stop-color="#D9D9D9"/>
</linearGradient>
<linearGradient id="paint68_linear" x1="304.748" y1="133.223" x2="279.329" y2="198.97" gradientUnits="userSpaceOnUse">
<stop stop-color="#FDFDFD"/>
<stop offset="1" stop-color="#EBEBEB"/>
</linearGradient>
<linearGradient id="paint69_linear" x1="259.505" y1="130.825" x2="259.497" y2="209" gradientUnits="userSpaceOnUse">
<stop stop-color="#CECECE"/>
<stop offset="1" stop-color="#FDFDFD"/>
</linearGradient>
<linearGradient id="paint70_linear" x1="260.067" y1="136.865" x2="268.467" y2="185.904" gradientUnits="userSpaceOnUse">
<stop stop-color="#FDFDFD"/>
<stop offset="1" stop-color="#EBEBEB"/>
</linearGradient>
<linearGradient id="paint71_linear" x1="278.304" y1="165.182" x2="284.374" y2="172.716" gradientUnits="userSpaceOnUse">
<stop stop-color="#FDFDFD"/>
<stop offset="1" stop-color="white"/>
</linearGradient>
<linearGradient id="paint72_linear" x1="260.263" y1="155.043" x2="247.107" y2="179.418" gradientUnits="userSpaceOnUse">
<stop stop-color="#FDFDFD"/>
<stop offset="1" stop-color="#D4D4D4"/>
</linearGradient>
<linearGradient id="paint73_linear" x1="301.541" y1="148.349" x2="230.059" y2="173.171" gradientUnits="userSpaceOnUse">
<stop stop-color="#FDFDFD"/>
<stop offset="1" stop-color="#EBEBEB"/>
</linearGradient>
<linearGradient id="paint74_linear" x1="228" y1="230" x2="229.984" y2="450.424" gradientUnits="userSpaceOnUse">
<stop stop-color="#FDFDFD"/>
<stop offset="1" stop-color="#EBEBEB"/>
</linearGradient>
<linearGradient id="paint75_linear" x1="186.166" y1="385.022" x2="111.955" y2="425.649" gradientUnits="userSpaceOnUse">
<stop stop-color="#FDFDFD"/>
<stop offset="1" stop-color="#BAC6EB"/>
</linearGradient>
<linearGradient id="paint76_linear" x1="184.509" y1="357.39" x2="222.581" y2="375.144" gradientUnits="userSpaceOnUse">
<stop stop-color="#FDFDFD"/>
<stop offset="1" stop-color="#D1D1D1"/>
</linearGradient>
<linearGradient id="paint77_linear" x1="133.94" y1="357.223" x2="172.071" y2="375.075" gradientUnits="userSpaceOnUse">
<stop stop-color="#FDFDFD"/>
<stop offset="1" stop-color="#D1D1D1"/>
</linearGradient>
<linearGradient id="paint78_linear" x1="70" y1="313.5" x2="213.007" y2="346.47" gradientUnits="userSpaceOnUse">
<stop stop-color="#FDFDFD"/>
<stop offset="1" stop-color="#B8B8B8"/>
</linearGradient>
<linearGradient id="paint79_linear" x1="185.576" y1="272.098" x2="119.289" y2="308.386" gradientUnits="userSpaceOnUse">
<stop stop-color="#FDFDFD"/>
<stop offset="1" stop-color="#BAC6EB"/>
</linearGradient>
<linearGradient id="paint80_linear" x1="173.627" y1="230.906" x2="231.797" y2="302.973" gradientUnits="userSpaceOnUse">
<stop stop-color="#FDFDFD"/>
<stop offset="1" stop-color="#EBEBEB"/>
</linearGradient>
<linearGradient id="paint81_linear" x1="132.416" y1="230.757" x2="190.542" y2="303.029" gradientUnits="userSpaceOnUse">
<stop stop-color="#FDFDFD"/>
<stop offset="1" stop-color="#EBEBEB"/>
</linearGradient>
<linearGradient id="paint82_linear" x1="187.081" y1="210.551" x2="170.956" y2="252.196" gradientUnits="userSpaceOnUse">
<stop stop-color="#FDFDFD"/>
<stop offset="1" stop-color="#EBEBEB"/>
</linearGradient>
<linearGradient id="paint83_linear" x1="158.463" y1="209.054" x2="164.364" y2="243.502" gradientUnits="userSpaceOnUse">
<stop stop-color="#BAC6EB"/>
<stop offset="1" stop-color="#FDFDFD"/>
</linearGradient>
<linearGradient id="paint84_linear" x1="144.642" y1="211.671" x2="191.526" y2="265.865" gradientUnits="userSpaceOnUse">
<stop stop-color="#FDFDFD"/>
<stop offset="1" stop-color="#BAC6EB"/>
</linearGradient>
<linearGradient id="paint85_linear" x1="175.654" y1="215.391" x2="188.173" y2="229.326" gradientUnits="userSpaceOnUse">
<stop stop-color="#FDFDFD"/>
<stop offset="1" stop-color="#D1D1D1"/>
</linearGradient>
<linearGradient id="paint86_linear" x1="135.5" y1="213" x2="166.949" y2="220.11" gradientUnits="userSpaceOnUse">
<stop stop-color="#FDFDFD"/>
<stop offset="1" stop-color="#D1D1D1"/>
</linearGradient>
<linearGradient id="paint87_linear" x1="180.608" y1="196.316" x2="168.69" y2="227.141" gradientUnits="userSpaceOnUse">
<stop stop-color="#FDFDFD"/>
<stop offset="1" stop-color="#BAC6EB"/>
</linearGradient>
<linearGradient id="paint88_linear" x1="162" y1="183" x2="170.998" y2="208.414" gradientUnits="userSpaceOnUse">
<stop stop-color="#FDFDFD"/>
<stop offset="1" stop-color="#D1D1D1"/>
</linearGradient>
<linearGradient id="paint89_linear" x1="162" y1="177" x2="190.651" y2="190.433" gradientUnits="userSpaceOnUse">
<stop stop-color="#FDFDFD"/>
<stop offset="1" stop-color="#D1D1D1"/>
</linearGradient>
<clipPath id="clip0">
<rect width="357.104" height="205.824" fill="white" transform="translate(21.7783 323.134)"/>
</clipPath>
</defs>
</svg>
