
<svg viewBox="0 0 855 338" version="1.1" xmlns="http://www.w3.org/2000/svg" xmlns:xlink="http://www.w3.org/1999/xlink">
    <defs>
        <linearGradient x1="5.5816434%" y1="1.21379425%" x2="125.645076%" y2="90.7901921%" id="linearGradient-1">
            <stop stop-color="#F6B4C2" offset="0%"></stop>
            <stop stop-color="#F6708E" offset="100%"></stop>
        </linearGradient>
        <linearGradient x1="30.779909%" y1="24.8412002%" x2="143.019868%" y2="90.7901921%" id="linearGradient-2">
            <stop stop-color="#F57B94" offset="0%"></stop>
            <stop stop-color="#E3486A" offset="100%"></stop>
        </linearGradient>
        <linearGradient x1="50%" y1="0%" x2="50%" y2="100%" id="linearGradient-3">
            <stop stop-color="#FEECEF" offset="0%"></stop>
            <stop stop-color="#FCD3DB" offset="100%"></stop>
        </linearGradient>
        <linearGradient x1="50%" y1="0%" x2="50%" y2="100%" id="linearGradient-4">
            <stop stop-color="#FEECEF" offset="0%"></stop>
            <stop stop-color="#FCD3DB" offset="100%"></stop>
        </linearGradient>
        <linearGradient x1="23.5276261%" y1="1.21379425%" x2="95.0828192%" y2="90.7901921%" id="linearGradient-5">
            <stop stop-color="#FAE1E6" offset="0%"></stop>
            <stop stop-color="#F588A0" offset="100%"></stop>
        </linearGradient>
        <linearGradient x1="50%" y1="0%" x2="50%" y2="100%" id="linearGradient-6">
            <stop stop-color="#FEECEF" offset="0%"></stop>
            <stop stop-color="#FCD3DB" offset="100%"></stop>
        </linearGradient>
        <linearGradient x1="50%" y1="0%" x2="50%" y2="100%" id="linearGradient-7">
            <stop stop-color="#FEECEF" offset="0%"></stop>
            <stop stop-color="#FCD3DB" offset="100%"></stop>
        </linearGradient>
        <linearGradient x1="28.1695986%" y1="30.0907501%" x2="155.65304%" y2="82.2790488%" id="linearGradient-8">
            <stop stop-color="#F57B94" offset="0%"></stop>
            <stop stop-color="#E3486A" offset="100%"></stop>
        </linearGradient>
        <linearGradient x1="-12.0388617%" y1="32.503818%" x2="155.65304%" y2="64.6285741%" id="linearGradient-9">
            <stop stop-color="#FBA4B5" offset="0%"></stop>
            <stop stop-color="#E3486A" stop-opacity="0.719089674" offset="100%"></stop>
        </linearGradient>
        <linearGradient x1="4.89895051%" y1="1.21379425%" x2="126.807712%" y2="90.7901921%" id="linearGradient-10">
            <stop stop-color="#F6B4C2" offset="0%"></stop>
            <stop stop-color="#F6708E" offset="100%"></stop>
        </linearGradient>
        <linearGradient x1="-12.0388617%" y1="39.8566315%" x2="155.65304%" y2="58.4808799%" id="linearGradient-11">
            <stop stop-color="#F6D5DC" offset="0%"></stop>
            <stop stop-color="#F4B7C4" offset="100%"></stop>
        </linearGradient>
        <linearGradient x1="18.0025593%" y1="1.21379425%" x2="104.492084%" y2="90.7901921%" id="linearGradient-12">
            <stop stop-color="#F6D5DC" offset="0%"></stop>
            <stop stop-color="#F4B7C4" offset="100%"></stop>
        </linearGradient>
        <linearGradient x1="33.6022245%" y1="1.21379425%" x2="77.9256388%" y2="90.7901921%" id="linearGradient-13">
            <stop stop-color="#F6D5DC" offset="0%"></stop>
            <stop stop-color="#F4B7C4" offset="100%"></stop>
        </linearGradient>
        <linearGradient x1="25.2099523%" y1="1.21379425%" x2="92.2177944%" y2="90.7901921%" id="linearGradient-14">
            <stop stop-color="#F6D5DC" offset="0%"></stop>
            <stop stop-color="#F4B7C4" offset="100%"></stop>
        </linearGradient>
        <linearGradient x1="33.9613378%" y1="24.8412002%" x2="127.622642%" y2="90.7901921%" id="linearGradient-15">
            <stop stop-color="#F57B94" offset="0%"></stop>
            <stop stop-color="#E3486A" offset="100%"></stop>
        </linearGradient>
        <linearGradient x1="50%" y1="0%" x2="50%" y2="100%" id="linearGradient-16">
            <stop stop-color="#FEECEF" offset="0%"></stop>
            <stop stop-color="#FCD3DB" offset="100%"></stop>
        </linearGradient>
        <linearGradient x1="50%" y1="0%" x2="50%" y2="255.555133%" id="linearGradient-17">
            <stop stop-color="#F6BBC9" offset="0%"></stop>
            <stop stop-color="#E98699" offset="100%"></stop>
        </linearGradient>
        <linearGradient x1="4.09310731%" y1="1.21379425%" x2="128.180074%" y2="90.7901921%" id="linearGradient-18">
            <stop stop-color="#F6B4C2" offset="0%"></stop>
            <stop stop-color="#F6708E" offset="100%"></stop>
        </linearGradient>
        <linearGradient x1="5.73212915%" y1="1.21379425%" x2="125.388797%" y2="90.7901921%" id="linearGradient-19">
            <stop stop-color="#F6B4C2" offset="0%"></stop>
            <stop stop-color="#F6708E" offset="100%"></stop>
        </linearGradient>
        <polygon id="path-20" points="0 46.6666667 36.7843137 46.6666667 36.7843137 0 0 0"></polygon>
        <linearGradient x1="34.004079%" y1="24.8412002%" x2="127.415786%" y2="90.7901921%" id="linearGradient-22">
            <stop stop-color="#F57B94" offset="0%"></stop>
            <stop stop-color="#E3486A" offset="100%"></stop>
        </linearGradient>
        <polygon id="path-23" points="0 0.0308215332 81.1429639 0.0308215332 81.1429639 72.7276295 0 72.7276295"></polygon>
        <linearGradient x1="32.1712659%" y1="1.21379425%" x2="80.362581%" y2="90.7901921%" id="linearGradient-25">
            <stop stop-color="#F57B94" offset="0%"></stop>
            <stop stop-color="#E3486A" offset="100%"></stop>
        </linearGradient>
        <linearGradient x1="22.4000929%" y1="1.21379425%" x2="97.0030238%" y2="90.7901921%" id="linearGradient-26">
            <stop stop-color="#F57B94" offset="0%"></stop>
            <stop stop-color="#E3486A" offset="100%"></stop>
        </linearGradient>
        <linearGradient x1="22.4074319%" y1="1.21379425%" x2="96.9905255%" y2="90.7901921%" id="linearGradient-27">
            <stop stop-color="#F57B94" offset="0%"></stop>
            <stop stop-color="#E3486A" offset="100%"></stop>
        </linearGradient>
        <polygon id="path-28" points="0.210316737 0.0238361653 40.9523613 0.0238361653 40.9523613 7.92155226 0.210316737 7.92155226"></polygon>
        <linearGradient x1="-12.0388617%" y1="48.1667806%" x2="155.65304%" y2="51.5327564%" id="linearGradient-30">
            <stop stop-color="#F57B94" offset="0%"></stop>
            <stop stop-color="#E3486A" offset="100%"></stop>
        </linearGradient>
        <polygon id="path-31" points="0 0 33.7621166 0 33.7621166 7.94538843 0 7.94538843"></polygon>
        <linearGradient x1="-12.0388617%" y1="47.298108%" x2="155.65304%" y2="52.2590544%" id="linearGradient-33">
            <stop stop-color="#F57B94" offset="0%"></stop>
            <stop stop-color="#E3486A" offset="100%"></stop>
        </linearGradient>
        <polygon id="path-34" points="0 0 11.6868865 0 11.6868865 7.94538843 0 7.94538843"></polygon>
        <linearGradient x1="-12.0388617%" y1="27.4508769%" x2="155.65304%" y2="68.8533428%" id="linearGradient-36">
            <stop stop-color="#F57B94" offset="0%"></stop>
            <stop stop-color="#E3486A" offset="100%"></stop>
        </linearGradient>
    </defs>
    <g id="Website" stroke="none" stroke-width="1" fill="none" fill-rule="evenodd">
        <g id="About-us" transform="translate(-303.000000, -421.000000)">
            <g id="Banner">
                <g transform="translate(0.000000, 80.000000)">
                    <g id="Group-15" transform="translate(303.000000, 341.000000)">
                        <g id="logo" transform="translate(350.000000, 75.000000)" fill-rule="nonzero">
                            <g id="Group">
                                <path d="M23.5243805,189.742814 C10.8574064,189.742814 0.603189244,179.128317 0.603189244,166.01629 L0.603189244,23.7265237 C0.603189244,10.6144975 10.8574064,0 23.5243805,0 L80.8943797,0.0693758004 C131.897381,0.0693758004 173.182334,43.2211237 172.512124,96.1548594 C171.841913,148.256086 129.88675,189.742814 79.5539591,189.742814 L23.5243805,189.742814 Z" id="Shape" fill="#E13F5E"></path>
                                <path d="M35.0519972,148.256086 L32.103072,148.256086 C30.4945673,148.256086 29.2211678,146.937945 29.2211678,145.272926 L29.2211678,121.477027 C29.2211678,119.812007 30.4945673,118.493867 32.103072,118.493867 L55.0912842,118.493867 C56.6997889,118.493867 57.9731884,119.812007 57.9731884,121.477027 L57.9731884,124.529562 C57.9731884,137.641588 47.7189713,148.256086 35.0519972,148.256086 Z" id="Shape" fill="#FFFFFF"></path>
                                <path d="M32.103072,77.0071385 L103.74855,77.0071385 C116.415524,77.0071385 126.669741,66.392641 126.669741,53.2806147 L126.669741,50.4362069 C126.669741,48.7018119 125.329321,47.3142959 123.653795,47.3142959 L52.2093801,47.3142959 C39.542406,47.3142959 29.2881888,57.9287934 29.2881888,71.0408196 L29.2881888,74.023979 C29.2881888,75.6889983 30.5615883,77.0071385 32.103072,77.0071385 Z" id="Shape" fill="#FFFFFF"></path>
                                <path d="M32.103072,112.596924 L69.366763,112.596924 C82.0337371,112.596924 92.2879543,101.982427 92.2879543,88.8704003 L92.2879543,85.8872409 C92.2879543,84.2222217 91.0145548,82.9040815 89.4060501,82.9040815 L32.103072,82.9040815 C30.4945673,82.9040815 29.2211678,84.2222217 29.2211678,85.8872409 L29.2211678,109.613765 C29.2881888,111.278784 30.5615883,112.596924 32.103072,112.596924 Z" id="Shape" fill="#FFFFFF"></path>
                            </g>
                        </g>
                        <g id="Page-1" transform="translate(111.000000, 273.000000)">
                            <polygon id="Fill-1" fill="url(#linearGradient-1)" opacity="0.852734375" points="27.4408602 0 0 16.2197393 0 48.7814711 27.4408602 65 55 48.7814711 55 16.2197393"></polygon>
                            <g id="Group-7" transform="translate(5.500000, 17.978723)" fill="#FFFFFF">
                                <path d="M2.58065645,19.2570253 C3.50619837,20.167503 4.71743054,21.0020071 6.35601752,21.0020071 C8.59904005,21.0020071 10.0593658,19.4752988 10.0593658,17.1104687 L10.0593658,0.885876709 L15.1167913,0.885876709 L15.1167913,17.1828245 C15.1167913,22.9327022 11.6271205,25.5869557 6.7479562,25.5869557 C4.36208855,25.5869557 2.08246934,24.9321353 0.373050063,23.2221256 L2.58065645,19.2570253 Z" id="Fill-3"></path>
                                <path d="M20.9545526,17.800261 C22.6273752,19.5838326 25.2281008,21.0755689 28.5040942,21.0755689 C31.2819005,21.0755689 32.6359778,19.7297502 32.6359778,18.3453417 C32.6359778,16.5267982 30.570036,15.9093617 27.8276458,15.2557472 C23.9460363,14.3440636 18.9606236,13.2539022 18.9606236,7.8332436 C18.9606236,3.79458161 22.3794621,0.521685631 27.9704909,0.521685631 C31.745852,0.521685631 34.8801809,1.68782064 37.2306324,3.90673317 L34.4174099,7.68853191 C32.4943132,5.86998839 29.9301843,5.03427839 27.6151489,5.03427839 C25.3355297,5.03427839 24.1242976,6.05208392 24.1242976,7.50764231 C24.1242976,9.1440903 26.1182265,9.65540492 28.8606167,10.3102253 C32.7776424,11.2182911 37.7642356,12.4193981 37.7642356,17.8026729 C37.7642356,22.2429098 34.6653229,25.5881616 28.2561812,25.5881616 C23.6981233,25.5881616 20.4209493,24.0228636 18.2133429,21.7328011 L20.9545526,17.800261 Z" id="Fill-5"></path>
                            </g>
                        </g>
                        <g id="Page-1" transform="translate(144.000000, 122.000000)">
                            <path d="M56.4851136,0.0178883675 L1.68753287,29.4077164 C0.648431796,29.965022 1.63195646e-15,31.0486054 1.77635684e-15,32.227724 L-6.66133815e-15,90.6054621 C-6.51694279e-15,91.7845397 0.648387162,92.8680924 1.68743224,93.4254158 L57.9925479,123.626374 L114.312266,93.4253451 C115.351479,92.8680748 116,91.78443 116,90.6052295 L116,32.2278016 C116,31.048642 115.351524,29.9650279 114.312367,29.4077399 L59.5099473,0.0178344091 C58.5652996,-0.488769229 57.4297432,-0.488748972 56.4851136,0.0178883675 Z" id="Fill-1" fill="url(#linearGradient-2)"></path>
                            <g id="Group-35" transform="translate(22.095238, 34.340659)">
                                <g id="Page-1">
                                    <g id="Group-35">
                                        <path d="M68.6519563,11.096827 C68.6519563,14.8443186 65.3864323,17.8841782 61.3607451,17.8841782 C57.335058,17.8841782 54.0719782,14.8443186 54.0719782,11.096827 C54.0719782,7.34706005 57.335058,4.30947578 61.3607451,4.30947578 C65.3864323,4.30947578 68.6519563,7.34706005 68.6519563,11.096827 Z" id="Fill-2" fill="url(#linearGradient-3)"></path>
                                        <path d="M64.4209518,11.0988748 C64.4209518,12.6711375 63.049725,13.9476055 61.3607451,13.9476055 C59.6717653,13.9476055 58.3005385,12.6711375 58.3005385,11.0988748 C58.3005385,9.52661209 59.6717653,8.2501441 61.3607451,8.2501441 C63.049725,8.2501441 64.4209518,9.52661209 64.4209518,11.0988748 Z" id="Fill-4" fill="#E13F5E"></path>
                                        <path d="M19.1619133,11.0965995 C19.1619133,14.8440911 15.8988335,17.8816754 11.8731463,17.8816754 C7.84745918,17.8816754 4.58437942,14.8440911 4.58437942,11.0965995 C4.58437942,7.34910786 7.84745918,4.31152359 11.8731463,4.31152359 C15.8988335,4.31152359 19.1619133,7.34910786 19.1619133,11.0965995 Z" id="Fill-6" fill="url(#linearGradient-4)"></path>
                                        <path d="M14.9309087,11.0988748 C14.9309087,12.6711375 13.559682,13.9476055 11.8707021,13.9476055 C10.1817222,13.9476055 8.81049546,12.6711375 8.81049546,11.0988748 C8.81049546,9.52661209 10.1817222,8.2501441 11.8707021,8.2501441 C13.559682,8.2501441 14.9309087,9.52661209 14.9309087,11.0988748 Z" id="Fill-8" fill="#E13F5E"></path>
                                        <path d="M7.15989039,27.8421854 C7.15923901,27.7676343 7.15891269,27.6930147 7.15891269,27.6183275 C7.15891269,12.5919556 20.367664,0.295996451 36.511965,0.295996451 C52.656266,0.295996451 65.8625731,12.5919556 65.8625731,27.6183275 L65.8635508,74.4351236 L36.5104984,90.1645768 L7.15989039,74.3873414 L7.15989039,27.8421854 Z" id="Combined-Shape" fill="url(#linearGradient-5)"></path>
                                        <path d="M32.639777,20.5324511 C32.639777,25.742989 28.1032407,29.9660275 22.5058979,29.9660275 C16.908555,29.9660275 12.3720187,25.742989 12.3720187,20.5324511 C12.3720187,15.3219133 16.908555,11.0988748 22.5058979,11.0988748 C28.1032407,11.0988748 32.639777,15.3219133 32.639777,20.5324511 Z" id="Fill-15" fill="#FFFFFF"></path>
                                        <path d="M61.3619672,20.5324511 C61.3619672,25.742989 56.8254309,29.9660275 51.2280881,29.9660275 C45.6307453,29.9660275 41.0942089,25.742989 41.0942089,20.5324511 C41.0942089,15.3219133 45.6307453,11.0988748 51.2280881,11.0988748 C56.8254309,11.0988748 61.3619672,15.3219133 61.3619672,20.5324511 Z" id="Fill-17" fill="#FFFFFF"></path>
                                        <path d="M41.1054517,42.41671 C41.1045278,43.3647962 40.2787241,44.133002 39.2600403,44.133002 C38.2407862,44.133002 37.4146282,43.3639357 37.4146282,42.4151172 C37.4146282,42.398761 37.4148737,42.3824582 37.4153615,42.3662118 L37.4153615,36.9649857 L41.1061858,36.9649857 L41.1061858,42.41671 Z M32.8279853,42.41671 L32.8250515,42.41671 L32.8250515,36.9649857 L36.5183201,36.9649857 L36.5183201,42.3751775 C36.5186454,42.3884541 36.5188089,42.4017679 36.5188089,42.4151172 C36.5188089,43.3639357 35.6926509,44.133002 34.6733968,44.133002 C33.654713,44.133002 32.8289093,43.3647962 32.8279854,42.41671 Z" id="Combined-Shape" fill="#FFFFFF"></path>
                                        <path d="M47.2801282,18.1547166 C48.9691081,18.1547166 50.3403348,19.4311846 50.3403348,21.0034474 C50.3403348,22.5757101 48.9691081,23.8521781 47.2801282,23.8521781 C45.5911483,23.8521781 44.2199216,22.5757101 44.2199216,21.0034474 C44.2199216,19.4311846 45.5911483,18.1547166 47.2801282,18.1547166" id="Fill-25" fill="#E13F5E"></path>
                                        <path d="M20.826695,21.0034474 C20.826695,22.5757101 19.4554682,23.8521781 17.7664884,23.8521781 C16.0750643,23.8521781 14.7062817,22.5757101 14.7062817,21.0034474 C14.7062817,19.4311846 16.0750643,18.1547166 17.7664884,18.1547166 C19.4554682,18.1547166 20.826695,19.4311846 20.826695,21.0034474 Z" id="Fill-26" fill="#E13F5E"></path>
                                        <path d="M69.7039634,46.669328 L62.8893819,46.669328 L62.8893819,41.0333008 L69.6359648,41.0333008 C69.658327,41.0328465 69.6807497,41.0326182 69.7032302,41.0326182 C71.3751002,41.0326182 72.7292172,42.2954342 72.7292172,43.8494941 C72.7292172,45.4056019 71.3754962,46.6682761 69.7039634,46.6686453 Z" id="Combined-Shape" fill="url(#linearGradient-6)"></path>
                                        <path d="M3.31801116,46.6686454 C1.64625353,46.6685223 0.292268516,45.4057536 0.292268516,43.8494941 C0.292268516,42.2954342 1.64638551,41.0326182 3.31825559,41.0326182 C3.3407361,41.0326182 3.36315916,41.0328465 3.38552224,41.0333008 L10.135037,41.0333008 L10.135037,46.669328 L3.31801116,46.669328 Z" id="Combined-Shape" fill="url(#linearGradient-7)"></path>
                                    </g>
                                </g>
                            </g>
                            <path d="M67.6666667,68.6790906 C67.6666667,70.1986578 66.4319851,71.4285714 64.9036496,71.4285714 C63.3775387,71.4285714 62.1428571,70.1986578 62.1428571,68.6790906 C62.1428571,67.1639796 63.3775387,65.9340659 64.9036496,65.9340659 C66.4319851,65.9340659 67.6666667,67.1639796 67.6666667,68.6790906 Z" id="Fill-31" fill="#E98699"></path>
                            <path d="M52.4761905,65.9340659 C54.001687,65.9340659 55.2380952,67.1639796 55.2380952,68.6790906 C55.2380952,70.1986578 54.001687,71.4285714 52.4761905,71.4285714 C50.950694,71.4285714 49.7142857,70.1986578 49.7142857,68.6790906 C49.7142857,67.1639796 50.950694,65.9340659 52.4761905,65.9340659" id="Fill-32" fill="#E98699"></path>
                            <path d="M55.216926,71.4285714 C57.1536825,70.1527783 60.2074519,69.3070548 62.7973007,71.0922041 C65.3826453,72.8797561 66.2857143,66.4791668 66.2857143,66.4791668 C63.2499612,64.4537552 57.4059112,63.5191346 52.4761905,66.2821517 L55.216926,71.4285714 Z" id="Fill-33" fill="#E98699"></path>
                            <path d="M59.3809524,61.8131868 C61.6700717,61.8131868 63.5238095,63.0428141 63.5238095,64.5604396 C63.5238095,66.0780651 61.6700717,67.3076923 59.3809524,67.3076923 C57.091833,67.3076923 55.2380952,66.0780651 55.2380952,64.5604396 C55.2380952,63.0428141 57.091833,61.8131868 59.3809524,61.8131868" id="Fill-34" fill="#E13F5E"></path>
                        </g>
                        <g id="Group-Copy" transform="translate(825.500000, 186.000000) rotate(28.000000) translate(-825.500000, -186.000000) translate(792.000000, 156.000000)" fill-rule="nonzero">
                            <polygon id="Shape" fill="url(#linearGradient-8)" points="50.1892939 0.595377143 17.0097138 0.595377143 0.419923719 30.1110967 17.0097138 59.6268162 50.1892939 59.6268162 66.7790839 30.1110967"></polygon>
                            <polygon id="Shape" fill="#F4ACBA" points="23.9980198 44.5257504 15.018939 28.7382725 23.9980198 12.9507946 41.8738046 12.9507946 50.8528855 28.7382725 41.8738046 44.5257504"></polygon>
                            <polygon id="Shape" fill="url(#linearGradient-9)" points="16.3461222 0.595377143 33.1571094 30.7975087 66.7790839 30.7975087 49.9680967 0.595377143"></polygon>
                            <polygon id="Shape" fill="#FFDFE5" points="41.9778567 14.3236188 24.3092214 14.3236188 33.1028279 30.7975087 50.8528855 30.7975087"></polygon>
                        </g>
                        <g id="Page-1" transform="translate(99.000000, 29.000000)">
                            <polygon id="Fill-1" fill="url(#linearGradient-10)" points="40.5008712 0 0 23.75 0 71.25 40.5008712 95 81 71.25 81 23.75"></polygon>
                            <g id="Group-13" transform="translate(21.966102, 12.391304)">
                                <path d="M21.3635218,0.494154679 C21.3635218,21.8465393 38.658419,25.0793269 38.658419,39.1685969 C38.658419,50.5011161 31.5017905,59.8033737 19.8692427,59.8033737 C10.9139449,59.8033737 0.492039826,54.1761917 0.492039826,39.4741131 C0.493769316,23.5481934 16.2961169,0.494154679 21.3635218,0.494154679" id="Fill-3" fill="#FFFFFF"></path>
                                <path d="M38.0487739,34.8025573 C37.4711243,38.7636103 29.4030548,41.9040326 19.5051851,41.9040326 C9.41361256,41.9040326 1.22101974,38.6410486 0.93392445,34.5698677 C0.652017625,36.2537593 0.492904571,37.8985732 0.492904571,39.4723368 C0.492904571,41.3693792 0.671042012,43.110111 0.992727101,44.7158473 C3.36039853,48.9095899 10.7107299,51.9736331 19.4221696,51.9736331 C28.5901946,51.9736331 36.2449161,48.5845349 38.1784856,44.0550797 C38.4863348,42.4830923 38.6610133,40.8524885 38.6610133,39.1685969 C38.6610133,37.5877282 38.4361796,36.1507364 38.0487739,34.8025573" id="Fill-5" fill="url(#linearGradient-11)"></path>
                                <path d="M35.7535681,50.7368254 C31.1946332,50.4881494 24.0449227,44.6549217 17.9138816,35.7008105 C12.3137939,27.5211473 9.1125084,18.988009 9.25086758,13.6308181 L7.36572378,16.7836741 C3.87734301,19.9596215 6.8070986,30.9386656 13.9031949,41.3102299 C21.0079387,51.6817941 29.5913962,57.5150219 33.0745885,54.342627 L35.7535681,50.7368254 Z" id="Fill-7" fill="url(#linearGradient-12)"></path>
                                <path d="M22.101668,7.66596967 C12.9128891,11.1243419 5.59368861,19.0233565 2.25923242,29.0503269 C1.16446543,32.6507997 0.493423418,36.2121948 0.493423418,39.4734026 C0.493423418,48.4808015 4.40898815,54.0618008 9.49714691,57.0530174 C8.39373247,53.6941156 7.77284566,50.081209 7.77284566,46.3031105 C7.77284566,32.9563159 15.2771016,21.5545226 25.884062,16.9238208 C24.2635302,14.2985131 22.8920448,11.3055201 22.101668,7.66596967" id="Fill-9" fill="url(#linearGradient-13)"></path>
                                <path d="M8.42451739,56.3778622 C11.7278428,58.6461423 15.645137,59.6941339 19.3566219,59.7811705 C27.5595917,52.6868003 32.9504111,40.7414724 32.9504111,27.1992895 C32.9504111,26.8049605 32.9175508,26.4159602 32.9054444,26.0234075 C31.5720078,24.3963561 30.1399903,22.7533184 28.7460216,20.9823903 C28.2323632,37.2724426 19.929083,51.0171188 8.42451739,56.3778622" id="Fill-11" fill="url(#linearGradient-14)"></path>
                            </g>
                        </g>
                        <g id="Group-2" transform="translate(27.000000, 132.000000)">
                            <polygon id="Fill-1" fill="url(#linearGradient-15)" fill-rule="nonzero" points="29.9354839 0 0 17.4674115 0 52.533892 29.9354839 70 60 52.533892 60 17.4674115"></polygon>
                            <polygon id="Path-8" fill="url(#linearGradient-16)" points="8 19 30.2933333 57 52 19 34.9866667 19 30.2933333 27.7692308 25.0133333 19"></polygon>
                            <polygon id="Path-8" fill="url(#linearGradient-17)" points="18 19 30.7906977 42 43 19 35.4418605 19 30.7906977 27.8461538 25.5581395 19"></polygon>
                        </g>
                        <g id="Css" transform="translate(715.000000, 29.000000)">
                            <path d="M38.2872757,0.114969207 L1.56979697,21.8524951 C0.596770386,22.4285475 -5.82567311e-16,23.4753584 -4.4408921e-16,24.6061179 L-1.33226763e-15,68.3954585 C-1.19378496e-15,69.5262554 0.596809489,70.573095 1.56988705,71.1491346 L38.2873656,92.8850382 C39.2907806,93.4790368 40.5378702,93.4802112 41.5424021,92.8881036 L78.4249236,71.1482048 C79.4009369,70.572907 80,69.5244106 80,68.3914634 L80,24.6101131 C80,23.4772031 79.400976,22.4287354 78.4250136,21.8534247 L41.5424923,0.111903548 C40.5379152,-0.480274945 39.2907357,-0.479100392 38.2872757,0.114969207 Z" id="Fill-1-Copy-2" fill="url(#linearGradient-18)"></path>
                            <g id="Page-1" transform="translate(20.689655, 25.985294)">
                                <polygon id="Fill-1" fill="#FFFFFF" points="0 0 3.61814385 42.2414454 19.8539465 46.9330882 36.1346911 42.2349439 39.7565923 0"></polygon>
                                <path d="M19.0831643,31.864147 L19.0609293,31.8700984 L13.4105494,30.3231331 L13.0492677,26.220437 L7.95615594,26.220437 L8.66693028,34.2976719 L19.0598349,37.2227941 L19.0831643,37.2163383 L19.0831643,31.864147 Z M6.36105477,8.09191176 L6.82221992,13.2361565 L19.0831643,13.2361565 L19.0831643,8.09191176 L6.36105477,8.09191176 Z M7.27482932,18.5039689 L7.72947817,23.6482137 L19.0831643,23.6482137 L19.0831643,18.5039689 L7.27482932,18.5039689 Z" id="Fill-3" fill="#E98699"></path>
                                <polygon id="Fill-4" fill="#E98699" points="30.888496 18.5048343 31.8052738 8.09191176 19.0833635 8.09191176 19.0833635 13.2365841 26.2395781 13.2365841 25.7774548 18.5048343 19.0833635 18.5048343 19.0833635 23.6494562 25.3371405 23.6494562 24.7474988 30.3217021 19.0831643 31.8704101 19.0831643 37.2227941 29.4947069 34.2998499 29.5710387 33.4306184 30.7646623 19.8863338"></polygon>
                            </g>
                        </g>
                        <g id="Blockchain" transform="translate(681.000000, 227.000000)">
                            <polygon id="Fill-1-Copy" fill="url(#linearGradient-19)" points="33.4090498 0 0 19.7809524 0 59.4919524 33.4090498 79.2714286 66.9621041 59.4919524 66.9621041 19.7809524"></polygon>
                            <g transform="translate(14.450980, 17.333333)">
                                <path d="M30.21603,2.66666667 C30.6502713,2.51902218 31.0486653,2.38691922 31.4478741,2.24575036 C31.4796478,2.23409422 31.5252717,2.1563866 31.5260864,2.10976202 C31.53016,1.41168852 31.5293453,0.713615023 31.5293453,0 C31.1130276,0.151529869 30.7195218,0.28881334 30.3300896,0.44422859 C30.2852805,0.462360369 30.221733,0.567265663 30.221733,0.633317144 C30.2135858,1.29253683 30.21603,1.95434677 30.21603,2.66666667" id="Fill-1" fill="#FFFFFF"></path>
                                <path d="M31.5290684,46.6666667 C31.5290684,45.9515683 31.5315102,45.2585731 31.5233709,44.5668779 C31.522557,44.5057695 31.4493037,44.4160572 31.402096,44.3965545 C31.150593,44.3003413 30.89909,44.21843 30.6451452,44.1365188 C30.5075918,44.0910125 30.3692244,44.0481066 30.2162064,44 C30.2162064,44.7020965 30.2137646,45.3560865 30.2194621,46.0087762 C30.220276,46.0789859 30.2617862,46.196002 30.296785,46.2077036 C30.6988643,46.3689257 31.1041992,46.5106452 31.5290684,46.6666667" id="Fill-3" fill="#FFFFFF"></path>
                                <path d="M28.9019608,2.25630676 L28.9019608,0 C28.6062092,0.0995627312 28.3227124,0.193743693 28.0392157,0.291960982 C27.5882353,0.449377733 27.5882353,0.450723175 27.5882353,1.22973428 L27.5882353,2.66666667 C28.0457516,2.52404978 28.4722222,2.39085099 28.9019608,2.25630676" id="Fill-5" fill="#FFFFFF"></path>
                                <path d="M27.5887572,44 C27.5887572,44.7357251 27.5863072,45.4040761 27.5920239,46.0710797 C27.5928405,46.1317164 27.636124,46.2354725 27.6687907,46.2462523 C28.0754919,46.3917804 28.4838263,46.527876 28.9019608,46.6666667 L28.9019608,44.408287 C28.4691263,44.2735388 28.0428251,44.1401381 27.5887572,44" id="Fill-7" fill="#FFFFFF"></path>
                                <path d="M26.2745763,4 C26.6933381,3.88259958 27.0778821,3.7791754 27.4616113,3.65897973 C27.5088646,3.64500349 27.5813739,3.54297694 27.5821886,3.47728861 C27.5903357,2.77568134 27.5878916,2.07407407 27.5878916,1.33333333 C27.1560944,1.46470999 26.7479238,1.58770091 26.340568,1.72047519 C26.3136825,1.72886094 26.2778352,1.82809224 26.2778352,1.88679245 C26.2737616,2.57861635 26.2745763,3.27044025 26.2745763,4" id="Fill-9" fill="#FFFFFF"></path>
                                <path d="M24.9607843,42.9998189 C24.5168583,42.8868369 24.0860614,42.7767518 23.6470588,42.6666667 L23.6470588,44.9683143 C24.0901642,45.0914358 24.5209612,45.2116603 24.9607843,45.3333333 L24.9607843,42.9998189 Z" id="Fill-11" fill="#FFFFFF"></path>
                                <path d="M18.3921569,5.33333333 C18.8100333,5.25590399 19.2158324,5.1831204 19.6224367,5.09794812 C19.6530326,5.09175377 19.7021472,4.99883856 19.7021472,4.94308943 C19.7077833,4.19512195 19.7053678,3.44560588 19.7053678,2.66666667 C19.2488438,2.76267906 18.8196952,2.8524971 18.3921569,2.94231514 L18.3921569,5.33333333 Z" id="Fill-13" fill="#FFFFFF"></path>
                                <path d="M17.0784314,44 L17.0784314,43.1936128 C17.0784314,42.7816367 17.0784314,42.7792415 16.6675376,42.7401198 C16.3701056,42.7113772 16.0726736,42.6906188 15.7647059,42.6666667 L15.7647059,43.8898204 C16.1999129,43.9265469 16.627826,43.962475 17.0784314,44" id="Fill-15" fill="#FFFFFF"></path>
                                <path d="M17.0784314,2.66666667 C16.6263528,2.70503597 16.1955294,2.74180655 15.7647059,2.77857714 L15.7647059,4 C16.2077919,3.96642686 16.6394329,3.93445244 17.0784314,3.90167866 L17.0784314,2.66666667 Z" id="Fill-17" fill="#FFFFFF"></path>
                                <path d="M21.0196078,45.0136935 C21.4610655,45.1202401 21.8918757,45.2267867 22.3333333,45.3333333 L22.3333333,42.9562934 C21.8926947,42.8587507 21.4618845,42.7642093 21.0196078,42.6666667 L21.0196078,45.0136935 Z" id="Fill-19" fill="#FFFFFF"></path>
                                <path d="M22.3333333,1.33333333 C21.8858456,1.4427581 21.4498529,1.54918494 21.0196078,1.65561177 L21.0196078,4 C21.4679167,3.90106802 21.8998039,3.80513397 22.3333333,3.70919993 L22.3333333,1.33333333 Z" id="Fill-21" fill="#FFFFFF"></path>
                                <path d="M14.4509804,2.74165637 L14.4509804,4 C14.900864,3.97363 15.3336014,3.94808405 15.7647059,3.92171405 L15.7647059,2.66666667 C15.3238036,2.69221261 14.8959651,2.71611042 14.4509804,2.74165637" id="Fill-23" fill="#FFFFFF"></path>
                                <path d="M15.7647059,42.7371038 C15.3187714,42.7130723 14.8953345,42.6890408 14.4518104,42.6666667 C14.4518104,43.0677439 14.447793,43.4447897 14.4574348,43.8201782 C14.4590418,43.8591258 14.5361764,43.9262482 14.5835821,43.9312202 C14.7740082,43.9552517 14.9660412,43.9602237 15.1588778,43.9701678 C15.3605526,43.9809405 15.561424,43.9908846 15.7647059,44 L15.7647059,42.7371038 Z" id="Fill-25" fill="#FFFFFF"></path>
                                <mask id="mask-21" fill="white">
                                    <use xlink:href="#path-20"></use>
                                </mask>
                                <g id="Clip-28"></g>
                                <polygon id="Fill-27" fill="#FFFFFF" mask="url(#mask-21)" points="9.19607843 44 10.5098039 44 10.5098039 42.6666667 9.19607843 42.6666667"></polygon>
                                <polygon id="Fill-29" fill="#FFFFFF" mask="url(#mask-21)" points="11.8235294 44 13.1372549 44 13.1372549 42.6666667 11.8235294 42.6666667"></polygon>
                                <polygon id="Fill-30" fill="#FFFFFF" mask="url(#mask-21)" points="9.19607843 4 10.5098039 4 10.5098039 2.66666667 9.19607843 2.66666667"></polygon>
                                <polygon id="Fill-31" fill="#FFFFFF" mask="url(#mask-21)" points="6.56862745 4 7.88235294 4 7.88235294 2.66666667 6.56862745 2.66666667"></polygon>
                                <path d="M31.5294118,5.33333333 C31.0744061,5.487036 30.6392552,5.63626189 30.2156863,5.78101101 L30.2156863,8 C30.664901,7.86271218 31.0967427,7.7313934 31.5294118,7.59858235 L31.5294118,5.33333333 Z" id="Fill-32" fill="#FFFFFF" mask="url(#mask-21)"></path>
                                <path d="M30.2291013,40 C30.2291013,40.4394619 30.2266602,40.813154 30.2299151,41.1883408 C30.2323562,41.5261584 30.1778375,41.955157 30.2673458,42.1733931 C30.3479032,42.3707025 30.587948,42.3467862 30.759641,42.4080717 C31.0151463,42.4992526 31.2698379,42.5829596 31.5294118,42.6666667 L31.5294118,40.4035874 C31.0973311,40.2690583 30.6790836,40.1390135 30.2291013,40" id="Fill-33" fill="#FFFFFF" mask="url(#mask-21)"></path>
                                <path d="M34.1568627,40.4242424 C33.7144943,40.2799423 33.2846694,40.1428571 32.8431373,40 L32.8431373,42.1976912 C33.2804883,42.3549784 33.7136581,42.5079365 34.1568627,42.6666667 L34.1568627,40.4242424 Z" id="Fill-34" fill="#FFFFFF" mask="url(#mask-21)"></path>
                                <path d="M32.8431373,6.66666667 C33.2922383,6.51979842 33.7287477,6.37724982 34.1568627,6.23758099 L34.1568627,4 C33.7119589,4.15838733 33.2771284,4.31533477 32.8431373,4.47084233 L32.8431373,6.66666667 Z" id="Fill-35" fill="#FFFFFF" mask="url(#mask-21)"></path>
                                <path d="M34.1560295,1.33333333 C33.7410738,1.49417989 33.3327841,1.64938272 32.9269942,1.81587302 C32.8944976,1.82857143 32.8470027,1.90899471 32.8470027,1.95696649 C32.84117,2.62998236 32.8436697,3.30299824 32.8436697,4 C33.2961214,3.83633157 33.7219092,3.68253968 34.1568627,3.52451499 C34.1560295,2.8021164 34.1560295,2.09382716 34.1560295,1.33333333" id="Fill-36" fill="#FFFFFF" mask="url(#mask-21)"></path>
                                <path d="M27.5882353,8 C28.0415283,7.87154188 28.4717445,7.74927452 28.9019608,7.62700716 L28.9019608,5.33333333 C28.4552612,5.47262527 28.0242207,5.60727413 27.5882353,5.741923 L27.5882353,8 Z" id="Fill-37" fill="#FFFFFF" mask="url(#mask-21)"></path>
                                <path d="M28.9019608,42.6666667 L28.9019608,40.3707582 C28.4585371,40.2435525 28.0291772,40.1241032 27.5882353,40 L27.5882353,42.2602288 C28.025868,42.395191 28.4552279,42.5286019 28.9019608,42.6666667" id="Fill-38" fill="#FFFFFF" mask="url(#mask-21)"></path>
                                <path d="M28.9019608,44 L28.9019608,41.7440578 C28.4618545,41.6071496 28.0324624,41.4717627 27.5882353,41.3333333 L27.5882353,43.5497243 C28.0266932,43.6988021 28.4569095,43.8478798 28.9019608,44" id="Fill-39" fill="#FFFFFF" mask="url(#mask-21)"></path>
                                <path d="M28.9019608,2.66666667 C28.4954901,2.80645774 28.0979977,2.93865147 27.7021377,3.08603989 C27.6605112,3.10123457 27.5935823,3.2 27.5927661,3.2622982 C27.5862364,3.93846154 27.588685,4.61462488 27.588685,5.33333333 C28.0433119,5.18898386 28.4701877,5.05375119 28.9019608,4.91699905 L28.9019608,2.66666667 Z" id="Fill-40" fill="#FFFFFF" mask="url(#mask-21)"></path>
                                <path d="M19.7058824,41.3333333 L19.7058824,40.124316 C19.2601251,40.0822937 18.8273589,40.0402714 18.3921569,40 L18.3921569,41.1941344 C18.8297947,41.240534 19.2593131,41.2869337 19.7058824,41.3333333" id="Fill-41" fill="#FFFFFF" mask="url(#mask-21)"></path>
                                <path d="M18.3929579,39.8780596 C18.8359179,39.9198932 19.2620566,39.9599466 19.6833892,40 C19.6946034,39.9617267 19.7026135,39.9483756 19.7026135,39.9341344 C19.7042155,39.6973743 19.7050165,39.4597241 19.7058176,39.2220739 C19.7066186,38.7859368 19.7058176,38.7859368 19.3301426,38.7467735 C19.2940971,38.7432132 19.2580515,38.7334223 19.2204039,38.7307521 C18.9464576,38.7093903 18.6725113,38.6880285 18.3921569,38.6666667 C18.3929579,39.0841121 18.3929579,39.4668447 18.3929579,39.8780596" id="Fill-42" fill="#FFFFFF" mask="url(#mask-21)"></path>
                                <path d="M0,8 L0,9.25311203 C0.44281962,9.28077455 0.875816993,9.30567082 1.31372549,9.33333333 L1.31372549,8.08298755 C0.87090587,8.05532503 0.439545538,8.02766252 0,8" id="Fill-43" fill="#FFFFFF" mask="url(#mask-21)"></path>
                                <path d="M0,40 C0.446356016,39.9654152 0.877179497,39.9308305 1.31372549,39.8971559 L1.31372549,38.6666667 C0.871456984,38.698521 0.439816001,38.7294653 0,38.7604096 L0,40 Z" id="Fill-44" fill="#FFFFFF" mask="url(#mask-21)"></path>
                                <path d="M0.00044863134,12 C0.00044863134,12.3943885 -0.00199391706,12.8098513 0.00451954535,13.225314 C0.00533372815,13.2624447 0.0680258039,13.3276744 0.102221482,13.3286779 C0.50279942,13.3357026 0.901748993,13.332692 1.31372549,13.332692 L1.31372549,12 L0.00044863134,12 Z" id="Fill-45" fill="#FFFFFF" mask="url(#mask-21)"></path>
                                <polygon id="Fill-46" fill="#FFFFFF" mask="url(#mask-21)" points="0 16 1.31372549 16 1.31372549 14.6666667 0 14.6666667"></polygon>
                                <path d="M1.31372549,36 C0.863281965,36.0284665 0.431640982,36.056933 0,36.0835629 L0,37.3333333 C0.44390351,37.302112 0.874726991,37.2736455 1.31372549,37.2433425 L1.31372549,36 Z" id="Fill-47" fill="#FFFFFF" mask="url(#mask-21)"></path>
                                <polygon id="Fill-48" fill="#FFFFFF" mask="url(#mask-21)" points="0 20 1.31372549 20 1.31372549 18.6666667 0 18.6666667"></polygon>
                                <polygon id="Fill-49" fill="#FFFFFF" mask="url(#mask-21)" points="0 28 1.31372549 28 1.31372549 26.6666667 0 26.6666667"></polygon>
                                <polygon id="Fill-50" fill="#FFFFFF" mask="url(#mask-21)" points="0 29.3333333 1.31372549 29.3333333 1.31372549 28 0 28"></polygon>
                                <polygon id="Fill-51" fill="#FFFFFF" mask="url(#mask-21)" points="9.19607843 8 10.5098039 8 10.5098039 6.66666667 9.19607843 6.66666667"></polygon>
                                <polygon id="Fill-52" fill="#FFFFFF" mask="url(#mask-21)" points="6.56862745 8 7.88235294 8 7.88235294 6.66666667 6.56862745 6.66666667"></polygon>
                                <polygon id="Fill-53" fill="#FFFFFF" mask="url(#mask-21)" points="6.56862745 18.6666667 7.88235294 18.6666667 7.88235294 17.3333333 6.56862745 17.3333333"></polygon>
                                <polygon id="Fill-54" fill="#FFFFFF" mask="url(#mask-21)" points="6.56862745 29.3333333 7.88235294 29.3333333 7.88235294 28 6.56862745 28"></polygon>
                                <polygon id="Fill-55" fill="#FFFFFF" mask="url(#mask-21)" points="5.25490196 21.3333333 6.56862745 21.3333333 6.56862745 20 5.25490196 20"></polygon>
                                <polygon id="Fill-56" fill="#FFFFFF" mask="url(#mask-21)" points="6.56862745 21.3333333 7.88235294 21.3333333 7.88235294 20 6.56862745 20"></polygon>
                                <polygon id="Fill-57" fill="#FFFFFF" mask="url(#mask-21)" points="2.62745098 20 3.94117647 20 3.94117647 18.6666667 2.62745098 18.6666667"></polygon>
                                <polygon id="Fill-58" fill="#FFFFFF" mask="url(#mask-21)" points="5.25490196 25.3333333 6.56862745 25.3333333 6.56862745 24 5.25490196 24"></polygon>
                                <polygon id="Fill-59" fill="#FFFFFF" mask="url(#mask-21)" points="6.56862745 25.3333333 7.88235294 25.3333333 7.88235294 24 6.56862745 24"></polygon>
                                <polygon id="Fill-60" fill="#FFFFFF" mask="url(#mask-21)" points="2.62745098 28 3.94117647 28 3.94117647 26.6666667 2.62745098 26.6666667"></polygon>
                                <polygon id="Fill-61" fill="#FFFFFF" mask="url(#mask-21)" points="2.62745098 24 3.94117647 24 3.94117647 22.6666667 2.62745098 22.6666667"></polygon>
                                <polygon id="Fill-62" fill="#FFFFFF" mask="url(#mask-21)" points="2.62745098 29.3333333 3.94117647 29.3333333 3.94117647 28 2.62745098 28"></polygon>
                                <path d="M2.62745098,40 C3.07222325,39.9765588 3.50711168,39.9531177 3.94117647,39.9287389 L3.94117647,38.6666667 C3.4964042,38.6891702 3.06151577,38.7126113 2.62745098,38.7351149 L2.62745098,40 Z" id="Fill-63" fill="#FFFFFF" mask="url(#mask-21)"></path>
                                <polygon id="Fill-64" fill="#FFFFFF" mask="url(#mask-21)" points="5.25490196 36 6.56862745 36 6.56862745 34.6666667 5.25490196 34.6666667"></polygon>
                                <polygon id="Fill-65" fill="#FFFFFF" mask="url(#mask-21)" points="2.62745098 10.6666667 3.94117647 10.6666667 3.94117647 9.33333333 2.62745098 9.33333333"></polygon>
                                <polygon id="Fill-66" fill="#FFFFFF" mask="url(#mask-21)" points="5.25490196 32 6.56862745 32 6.56862745 30.6666667 5.25490196 30.6666667"></polygon>
                                <polygon id="Fill-67" fill="#FFFFFF" mask="url(#mask-21)" points="2.62745098 33.3333333 3.94117647 33.3333333 3.94117647 32 2.62745098 32"></polygon>
                                <polygon id="Fill-68" fill="#FFFFFF" mask="url(#mask-21)" points="9.19607843 40 10.5098039 40 10.5098039 38.6666667 9.19607843 38.6666667"></polygon>
                                <polygon id="Fill-69" fill="#FFFFFF" mask="url(#mask-21)" points="6.56862745 40 7.88235294 40 7.88235294 38.6666667 6.56862745 38.6666667"></polygon>
                                <polygon id="Fill-70" fill="#FFFFFF" mask="url(#mask-21)" points="2.62745098 36 3.94117647 36 3.94117647 34.6666667 2.62745098 34.6666667"></polygon>
                                <polygon id="Fill-71" fill="#FFFFFF" mask="url(#mask-21)" points="5.25490196 14.6666667 6.56862745 14.6666667 6.56862745 13.3333333 5.25490196 13.3333333"></polygon>
                                <polygon id="Fill-72" fill="#FFFFFF" mask="url(#mask-21)" points="2.62745098 12 3.94117647 12 3.94117647 10.6666667 2.62745098 10.6666667"></polygon>
                                <polygon id="Fill-73" fill="#FFFFFF" mask="url(#mask-21)" points="2.62745098 17.3333333 3.94117647 17.3333333 3.94117647 16 2.62745098 16"></polygon>
                                <polygon id="Fill-74" fill="#FFFFFF" mask="url(#mask-21)" points="5.25490196 28 6.56862745 28 6.56862745 26.6666667 5.25490196 26.6666667"></polygon>
                                <polygon id="Fill-75" fill="#FFFFFF" mask="url(#mask-21)" points="5.25490196 10.6666667 6.56862745 10.6666667 6.56862745 9.33333333 5.25490196 9.33333333"></polygon>
                                <polygon id="Fill-76" fill="#FFFFFF" mask="url(#mask-21)" points="2.62745098 32 3.94117647 32 3.94117647 30.6666667 2.62745098 30.6666667"></polygon>
                                <polygon id="Fill-77" fill="#FFFFFF" mask="url(#mask-21)" points="5.25490196 40 6.56862745 40 6.56862745 38.6666667 5.25490196 38.6666667"></polygon>
                                <polygon id="Fill-78" fill="#FFFFFF" mask="url(#mask-21)" points="5.25490196 41.3333333 6.56862745 41.3333333 6.56862745 40 5.25490196 40"></polygon>
                                <polygon id="Fill-79" fill="#FFFFFF" mask="url(#mask-21)" points="5.25490196 37.3333333 6.56862745 37.3333333 6.56862745 36 5.25490196 36"></polygon>
                                <polygon id="Fill-80" fill="#FFFFFF" mask="url(#mask-21)" points="6.56862745 16 7.88235294 16 7.88235294 14.6666667 6.56862745 14.6666667"></polygon>
                                <polygon id="Fill-81" fill="#FFFFFF" mask="url(#mask-21)" points="5.25490196 16 6.56862745 16 6.56862745 14.6666667 5.25490196 14.6666667"></polygon>
                                <polygon id="Fill-82" fill="#FFFFFF" mask="url(#mask-21)" points="6.56862745 24 7.88235294 24 7.88235294 22.6666667 6.56862745 22.6666667"></polygon>
                                <polygon id="Fill-83" fill="#FFFFFF" mask="url(#mask-21)" points="9.19607843 41.3333333 10.5098039 41.3333333 10.5098039 40 9.19607843 40"></polygon>
                                <polygon id="Fill-84" fill="#FFFFFF" mask="url(#mask-21)" points="9.19607843 6.66666667 10.5098039 6.66666667 10.5098039 5.33333333 9.19607843 5.33333333"></polygon>
                                <polygon id="Fill-85" fill="#FFFFFF" mask="url(#mask-21)" points="5.25490196 20 6.56862745 20 6.56862745 18.6666667 5.25490196 18.6666667"></polygon>
                                <polygon id="Fill-86" fill="#FFFFFF" mask="url(#mask-21)" points="6.56862745 32 7.88235294 32 7.88235294 30.6666667 6.56862745 30.6666667"></polygon>
                                <path d="M30.2166094,2.66666667 C30.2166094,1.95434677 30.2125383,1.29383196 30.2214948,0.633317144 C30.2223091,0.567265663 30.2858191,0.462360369 30.3297877,0.44422859 C30.7189905,0.28881334 31.1130787,0.151529869 31.5291512,0 C31.5291512,0.713615023 31.5307797,1.41168852 31.5258943,2.10846689 C31.5258943,2.1563866 31.4802973,2.23409422 31.447728,2.24445524 C31.0495686,2.38691922 30.6514093,2.51902218 30.2166094,2.66666667" id="Fill-87" fill="#FFFFFF" mask="url(#mask-21)"></path>
                                <path d="M31.5287686,46.6666667 C31.1046422,46.5105691 30.6992392,46.3687805 30.2970925,46.2087805 C30.2620878,46.1970732 30.2205706,46.08 30.2197566,46.0097561 C30.2132441,45.3554472 30.2165003,44.702439 30.2165003,44 C30.3703581,44.0481301 30.5079346,44.0923577 30.6455111,44.1365854 C30.8986844,44.2185366 31.1510437,44.3004878 31.4025889,44.396748 C31.4498045,44.417561 31.5230701,44.5073171 31.5238842,44.5671545 C31.5320248,45.2578862 31.5287686,45.9512195 31.5287686,46.6666667" id="Fill-88" fill="#FFFFFF" mask="url(#mask-21)"></path>
                                <path d="M28.9019608,2.25496132 C28.4722222,2.38950555 28.0465686,2.52270434 27.5882353,2.66666667 L27.5882353,1.22973428 C27.5882353,0.450723175 27.5882353,0.449377733 28.0392157,0.291960982 C28.3227124,0.192398251 28.6070261,0.0995627312 28.9019608,0 L28.9019608,2.25496132 Z" id="Fill-89" fill="#FFFFFF" mask="url(#mask-21)"></path>
                                <path d="M27.5884967,44 C28.0434715,44.1401381 28.4690404,44.2735388 28.9019608,44.408287 L28.9019608,46.6666667 C28.4837434,46.527876 28.0753279,46.3931278 27.6685461,46.2462523 C27.6358729,46.2327775 27.5925808,46.1317164 27.591764,46.0710797 C27.586863,45.4040761 27.5884967,44.7357251 27.5884967,44" id="Fill-90" fill="#FFFFFF" mask="url(#mask-21)"></path>
                                <path d="M26.2748317,4 C26.2748317,3.26865933 26.2732019,2.577871 26.2772765,1.88708268 C26.2780914,1.82835169 26.3131327,1.7304667 26.3400248,1.7206782 C26.7474816,1.58643594 27.1557532,1.46477888 27.5876574,1.33333333 C27.5876574,2.07446251 27.5909171,2.77643769 27.581953,3.47841286 C27.581953,3.54273728 27.5086108,3.64481734 27.4613458,3.66019927 C27.0791514,3.7790596 26.6936973,3.88253802 26.2748317,4" id="Fill-91" fill="#FFFFFF" mask="url(#mask-21)"></path>
                                <path d="M24.9607843,42.9998189 L24.9607843,45.3333333 C24.5209612,45.2116603 24.0909848,45.0914358 23.6470588,44.9683143 L23.6470588,42.6666667 C24.0860614,42.7767518 24.5168583,42.8868369 24.9607843,42.9998189" id="Fill-92" fill="#FFFFFF" mask="url(#mask-21)"></path>
                                <path d="M18.3921569,5.33333333 L18.3921569,2.94231514 C18.8205003,2.8524971 19.2488438,2.76113047 19.7053678,2.66666667 C19.7053678,3.44560588 19.7077833,4.19512195 19.7021472,4.94308943 C19.701342,4.99728997 19.6522275,5.09175377 19.6224367,5.09794812 C19.2166376,5.18466899 18.8100333,5.25745257 18.3921569,5.33333333" id="Fill-93" fill="#FFFFFF" mask="url(#mask-21)"></path>
                                <path d="M17.0784314,44 C16.6289137,43.9616766 16.2012645,43.9265469 15.7647059,43.8898204 L15.7647059,42.6666667 C16.0724837,42.6906188 16.3697324,42.7121756 16.666981,42.7401198 C17.0784314,42.7792415 17.0776214,42.7816367 17.0776214,43.1936128 C17.0784314,43.4570858 17.0784314,43.7197605 17.0784314,44" id="Fill-94" fill="#FFFFFF" mask="url(#mask-21)"></path>
                                <path d="M17.0784314,2.66666667 L17.0784314,3.90161968 C16.6386154,3.93441312 16.2077919,3.96720656 15.7647059,4 L15.7647059,2.77784443 C16.1955294,2.74185163 16.6263528,2.70505899 17.0784314,2.66666667" id="Fill-95" fill="#FFFFFF" mask="url(#mask-21)"></path>
                                <path d="M21.0196078,45.0136935 L21.0196078,42.6666667 C21.4610655,42.7642093 21.8926947,42.8602514 22.3333333,42.9562934 L22.3333333,45.3333333 C21.8918757,45.2267867 21.4602464,45.1202401 21.0196078,45.0136935" id="Fill-96" fill="#FFFFFF" mask="url(#mask-21)"></path>
                                <path d="M22.3333333,1.33333333 L22.3333333,3.70919993 C21.8998039,3.80513397 21.4670956,3.90106802 21.0196078,4 L21.0196078,1.65561177 C21.4498529,1.5506839 21.8850245,1.4427581 22.3333333,1.33333333" id="Fill-97" fill="#FFFFFF" mask="url(#mask-21)"></path>
                                <path d="M14.4509804,2.7408323 C14.8959651,2.71611042 15.3238036,2.69138855 15.7647059,2.66666667 L15.7647059,3.92171405 C15.3336014,3.94725999 14.900864,3.97363 14.4509804,4 L14.4509804,2.7408323 Z" id="Fill-98" fill="#FFFFFF" mask="url(#mask-21)"></path>
                                <path d="M15.7647059,42.7371038 L15.7647059,44 C15.561424,43.9908846 15.3597491,43.9809405 15.1588778,43.9701678 C14.9668447,43.9593951 14.7748116,43.9552517 14.5835821,43.9312202 C14.5361764,43.9262482 14.4582383,43.8599544 14.4574348,43.8201782 C14.447793,43.4447897 14.4518104,43.0677439 14.4518104,42.6666667 C14.8953345,42.6890408 15.3195749,42.7122436 15.7647059,42.7371038" id="Fill-99" fill="#FFFFFF" mask="url(#mask-21)"></path>
                                <polygon id="Fill-100" fill="#FFFFFF" mask="url(#mask-21)" points="9.19607843 44 10.5098039 44 10.5098039 42.6666667 9.19607843 42.6666667"></polygon>
                                <polygon id="Fill-101" fill="#FFFFFF" mask="url(#mask-21)" points="11.8235294 44 13.1372549 44 13.1372549 42.6666667 11.8235294 42.6666667"></polygon>
                                <polygon id="Fill-102" fill="#FFFFFF" mask="url(#mask-21)" points="9.19607843 4 10.5098039 4 10.5098039 2.66666667 9.19607843 2.66666667"></polygon>
                                <polygon id="Fill-103" fill="#FFFFFF" mask="url(#mask-21)" points="6.56862745 4 7.88235294 4 7.88235294 2.66666667 6.56862745 2.66666667"></polygon>
                                <path d="M31.5294118,5.33333333 L31.5294118,7.59858235 C31.0967427,7.7313934 30.664901,7.86271218 30.2156863,8 L30.2156863,5.78101101 C30.6384279,5.63626189 31.0744061,5.48852826 31.5294118,5.33333333" id="Fill-104" fill="#FFFFFF" mask="url(#mask-21)"></path>
                                <path d="M30.2288291,40 C30.6789056,40.1405082 31.0972407,40.2690583 31.5294118,40.4035874 L31.5294118,42.6666667 C31.2697836,42.5814649 31.0150386,42.4992526 30.7594798,42.4080717 C30.5877508,42.3467862 30.3476558,42.3721973 30.2670815,42.1733931 C30.1775546,41.9566517 30.2328985,41.5261584 30.229643,41.1883408 C30.2263875,40.813154 30.2288291,40.4379671 30.2288291,40" id="Fill-105" fill="#FFFFFF" mask="url(#mask-21)"></path>
                                <path d="M34.1568627,40.4213564 L34.1568627,42.6666667 C33.7144943,42.5064935 33.2813245,42.3535354 32.8431373,42.1962482 L32.8431373,40 C33.2846694,40.1399711 33.7144943,40.2770563 34.1568627,40.4213564" id="Fill-106" fill="#FFFFFF" mask="url(#mask-21)"></path>
                                <path d="M32.8431373,6.66666667 L32.8431373,4.47084233 C33.2771284,4.31533477 33.7119589,4.15838733 34.1568627,4 L34.1568627,6.23758099 C33.7287477,6.3786897 33.2922383,6.5212383 32.8431373,6.66666667" id="Fill-107" fill="#FFFFFF" mask="url(#mask-21)"></path>
                                <path d="M34.1568627,1.33333333 L34.1568627,3.52451499 C33.7226546,3.68112875 33.2959472,3.83633157 32.8434039,4 C32.8434039,3.30299824 32.8417371,2.6313933 32.8467376,1.95696649 C32.847571,1.90617284 32.8934087,1.82857143 32.9267452,1.81446208 C33.3334508,1.64938272 33.7409897,1.49417989 34.1568627,1.33333333" id="Fill-108" fill="#FFFFFF" mask="url(#mask-21)"></path>
                                <path d="M27.5882353,8 L27.5882353,5.74239783 C28.0233966,5.606043 28.4552612,5.47278714 28.9019608,5.33333333 L28.9019608,7.62967267 C28.4717445,7.74898315 28.0415283,7.8713926 27.5882353,8" id="Fill-109" fill="#FFFFFF" mask="url(#mask-21)"></path>
                                <path d="M28.9019608,42.6666667 C28.4560552,42.5271318 28.025868,42.3953488 27.5882353,42.2589147 L27.5882353,40 C28.0291772,40.124031 28.4585371,40.2449612 28.9019608,40.3705426 L28.9019608,42.6666667 Z" id="Fill-110" fill="#FFFFFF" mask="url(#mask-21)"></path>
                                <path d="M28.9019608,44 C28.4569095,43.8464462 28.0258691,43.7004941 27.5882353,43.5484607 L27.5882353,41.3333333 C28.0316383,41.4716838 28.4618545,41.6069935 28.9019608,41.7438236 L28.9019608,44 Z" id="Fill-111" fill="#FFFFFF" mask="url(#mask-21)"></path>
                                <path d="M28.9019608,2.66666667 L28.9019608,4.91699905 C28.4699193,5.05375119 28.0427781,5.18898386 27.5886853,5.33333333 C27.5886853,4.61462488 27.5862352,3.93694207 27.5927689,3.2622982 C27.5935856,3.2 27.6597394,3.10123457 27.7022085,3.08603989 C28.0983146,2.937132 28.4960541,2.80493827 28.9019608,2.66666667" id="Fill-112" fill="#FFFFFF" mask="url(#mask-21)"></path>
                                <path d="M19.7058824,41.3333333 C19.2593131,41.2859961 18.8306067,41.2412886 18.3921569,41.1957046 L18.3921569,40 C18.8273589,40.0403243 19.260937,40.0824019 19.7058824,40.1244795 L19.7058824,41.3333333 Z" id="Fill-113" fill="#FFFFFF" mask="url(#mask-21)"></path>
                                <path d="M18.3921569,39.8789497 L18.3921569,38.6666667 C18.6725113,38.6880285 18.9464576,38.7093903 19.2204039,38.7307521 C19.2572505,38.7334223 19.2932961,38.7432132 19.3301426,38.7467735 C19.7058176,38.7850467 19.7066186,38.7850467 19.7058176,39.2220739 C19.7058176,39.4597241 19.7042155,39.6973743 19.7026135,39.9341344 C19.7026135,39.9483756 19.6946034,39.9608367 19.6833892,40 C19.2612556,39.9608367 18.8351168,39.9207833 18.3921569,39.8789497" id="Fill-114" fill="#FFFFFF" mask="url(#mask-21)"></path>
                                <path d="M0,8 C0.439545538,8.02766252 0.87090587,8.05532503 1.31372549,8.08298755 L1.31372549,9.33333333 C0.874998473,9.3065929 0.44281962,9.28077455 0,9.25311203 L0,8 Z" id="Fill-115" fill="#FFFFFF" mask="url(#mask-21)"></path>
                                <path d="M0,40 L0,38.7603456 C0.440633503,38.730332 0.871456984,38.6984993 1.31372549,38.6666667 L1.31372549,39.8963165 C0.877179497,39.9308777 0.446356016,39.9654388 0,40" id="Fill-116" fill="#FFFFFF" mask="url(#mask-21)"></path>
                                <path d="M0.00044863134,12 L1.31372549,12 L1.31372549,13.332692 C0.903377358,13.332692 0.50279942,13.3357026 0.102221482,13.3286779 C0.0680258039,13.3276744 0.00533372815,13.2624447 0.00451954535,13.225314 C-0.00199391706,12.8098513 0.00044863134,12.3943885 0.00044863134,12" id="Fill-117" fill="#FFFFFF" mask="url(#mask-21)"></path>
                                <polygon id="Fill-118" fill="#FFFFFF" mask="url(#mask-21)" points="0 16 1.31372549 16 1.31372549 14.6666667 0 14.6666667"></polygon>
                                <path d="M1.31372549,36 L1.31372549,37.2433425 C0.874726991,37.2736455 0.44390351,37.302112 0,37.3333333 L0,36.0835629 C0.431640982,36.056933 0.862464463,36.0293848 1.31372549,36" id="Fill-119" fill="#FFFFFF" mask="url(#mask-21)"></path>
                                <polygon id="Fill-120" fill="#FFFFFF" mask="url(#mask-21)" points="0 20 1.31372549 20 1.31372549 18.6666667 0 18.6666667"></polygon>
                                <polygon id="Fill-121" fill="#FFFFFF" mask="url(#mask-21)" points="0 28 1.31372549 28 1.31372549 26.6666667 0 26.6666667"></polygon>
                                <polygon id="Fill-122" fill="#FFFFFF" mask="url(#mask-21)" points="0 29.3333333 1.31372549 29.3333333 1.31372549 28 0 28"></polygon>
                                <polygon id="Fill-123" fill="#FFFFFF" mask="url(#mask-21)" points="9.19607843 8 10.5098039 8 10.5098039 6.66666667 9.19607843 6.66666667"></polygon>
                                <polygon id="Fill-124" fill="#FFFFFF" mask="url(#mask-21)" points="6.56862745 8 7.88235294 8 7.88235294 6.66666667 6.56862745 6.66666667"></polygon>
                                <polygon id="Fill-125" fill="#FFFFFF" mask="url(#mask-21)" points="6.56862745 18.6666667 7.88235294 18.6666667 7.88235294 17.3333333 6.56862745 17.3333333"></polygon>
                                <polygon id="Fill-126" fill="#FFFFFF" mask="url(#mask-21)" points="6.56862745 29.3333333 7.88235294 29.3333333 7.88235294 28 6.56862745 28"></polygon>
                                <polygon id="Fill-127" fill="#FFFFFF" mask="url(#mask-21)" points="5.25490196 21.3333333 6.56862745 21.3333333 6.56862745 20 5.25490196 20"></polygon>
                                <polygon id="Fill-128" fill="#FFFFFF" mask="url(#mask-21)" points="6.56862745 21.3333333 7.88235294 21.3333333 7.88235294 20 6.56862745 20"></polygon>
                                <polygon id="Fill-129" fill="#FFFFFF" mask="url(#mask-21)" points="2.62745098 20 3.94117647 20 3.94117647 18.6666667 2.62745098 18.6666667"></polygon>
                                <polygon id="Fill-130" fill="#FFFFFF" mask="url(#mask-21)" points="5.25490196 25.3333333 6.56862745 25.3333333 6.56862745 24 5.25490196 24"></polygon>
                                <polygon id="Fill-131" fill="#FFFFFF" mask="url(#mask-21)" points="6.56862745 25.3333333 7.88235294 25.3333333 7.88235294 24 6.56862745 24"></polygon>
                                <polygon id="Fill-132" fill="#FFFFFF" mask="url(#mask-21)" points="2.62745098 28 3.94117647 28 3.94117647 26.6666667 2.62745098 26.6666667"></polygon>
                                <polygon id="Fill-133" fill="#FFFFFF" mask="url(#mask-21)" points="2.62745098 24 3.94117647 24 3.94117647 22.6666667 2.62745098 22.6666667"></polygon>
                                <polygon id="Fill-134" fill="#FFFFFF" mask="url(#mask-21)" points="2.62745098 29.3333333 3.94117647 29.3333333 3.94117647 28 2.62745098 28"></polygon>
                                <path d="M2.62745098,40 L2.62745098,38.7351149 C3.06233942,38.7126113 3.4964042,38.6901078 3.94117647,38.6666667 L3.94117647,39.9287389 C3.50711168,39.9531177 3.0730469,39.9765588 2.62745098,40" id="Fill-135" fill="#FFFFFF" mask="url(#mask-21)"></path>
                                <polygon id="Fill-136" fill="#FFFFFF" mask="url(#mask-21)" points="5.25490196 36 6.56862745 36 6.56862745 34.6666667 5.25490196 34.6666667"></polygon>
                                <polygon id="Fill-137" fill="#FFFFFF" mask="url(#mask-21)" points="2.62745098 10.6666667 3.94117647 10.6666667 3.94117647 9.33333333 2.62745098 9.33333333"></polygon>
                                <polygon id="Fill-138" fill="#FFFFFF" mask="url(#mask-21)" points="5.25490196 32 6.56862745 32 6.56862745 30.6666667 5.25490196 30.6666667"></polygon>
                                <polygon id="Fill-139" fill="#FFFFFF" mask="url(#mask-21)" points="2.62745098 33.3333333 3.94117647 33.3333333 3.94117647 32 2.62745098 32"></polygon>
                                <polygon id="Fill-140" fill="#FFFFFF" mask="url(#mask-21)" points="9.19607843 40 10.5098039 40 10.5098039 38.6666667 9.19607843 38.6666667"></polygon>
                                <polygon id="Fill-141" fill="#FFFFFF" mask="url(#mask-21)" points="6.56862745 40 7.88235294 40 7.88235294 38.6666667 6.56862745 38.6666667"></polygon>
                                <polygon id="Fill-142" fill="#FFFFFF" mask="url(#mask-21)" points="2.62745098 36 3.94117647 36 3.94117647 34.6666667 2.62745098 34.6666667"></polygon>
                                <polygon id="Fill-143" fill="#FFFFFF" mask="url(#mask-21)" points="5.25490196 14.6666667 6.56862745 14.6666667 6.56862745 13.3333333 5.25490196 13.3333333"></polygon>
                                <polygon id="Fill-144" fill="#FFFFFF" mask="url(#mask-21)" points="2.62745098 12 3.94117647 12 3.94117647 10.6666667 2.62745098 10.6666667"></polygon>
                                <polygon id="Fill-145" fill="#FFFFFF" mask="url(#mask-21)" points="2.62745098 17.3333333 3.94117647 17.3333333 3.94117647 16 2.62745098 16"></polygon>
                                <polygon id="Fill-146" fill="#FFFFFF" mask="url(#mask-21)" points="5.25490196 28 6.56862745 28 6.56862745 26.6666667 5.25490196 26.6666667"></polygon>
                                <polygon id="Fill-147" fill="#FFFFFF" mask="url(#mask-21)" points="5.25490196 10.6666667 6.56862745 10.6666667 6.56862745 9.33333333 5.25490196 9.33333333"></polygon>
                                <polygon id="Fill-148" fill="#FFFFFF" mask="url(#mask-21)" points="2.62745098 32 3.94117647 32 3.94117647 30.6666667 2.62745098 30.6666667"></polygon>
                                <polygon id="Fill-149" fill="#FFFFFF" mask="url(#mask-21)" points="5.25490196 40 6.56862745 40 6.56862745 38.6666667 5.25490196 38.6666667"></polygon>
                                <polygon id="Fill-150" fill="#FFFFFF" mask="url(#mask-21)" points="5.25490196 41.3333333 6.56862745 41.3333333 6.56862745 40 5.25490196 40"></polygon>
                                <polygon id="Fill-151" fill="#FFFFFF" mask="url(#mask-21)" points="5.25490196 37.3333333 6.56862745 37.3333333 6.56862745 36 5.25490196 36"></polygon>
                                <polygon id="Fill-152" fill="#FFFFFF" mask="url(#mask-21)" points="6.56862745 16 7.88235294 16 7.88235294 14.6666667 6.56862745 14.6666667"></polygon>
                                <polygon id="Fill-153" fill="#FFFFFF" mask="url(#mask-21)" points="5.25490196 16 6.56862745 16 6.56862745 14.6666667 5.25490196 14.6666667"></polygon>
                                <polygon id="Fill-154" fill="#FFFFFF" mask="url(#mask-21)" points="6.56862745 24 7.88235294 24 7.88235294 22.6666667 6.56862745 22.6666667"></polygon>
                                <polygon id="Fill-155" fill="#FFFFFF" mask="url(#mask-21)" points="9.19607843 41.3333333 10.5098039 41.3333333 10.5098039 40 9.19607843 40"></polygon>
                                <polygon id="Fill-156" fill="#FFFFFF" mask="url(#mask-21)" points="9.19607843 6.66666667 10.5098039 6.66666667 10.5098039 5.33333333 9.19607843 5.33333333"></polygon>
                                <polygon id="Fill-157" fill="#FFFFFF" mask="url(#mask-21)" points="5.25490196 20 6.56862745 20 6.56862745 18.6666667 5.25490196 18.6666667"></polygon>
                                <polygon id="Fill-158" fill="#FFFFFF" mask="url(#mask-21)" points="6.56862745 32 7.88235294 32 7.88235294 30.6666667 6.56862745 30.6666667"></polygon>
                                <path d="M34.4417911,34.318106 C33.8369949,34.2455298 33.2485446,34.1764654 32.6402458,34.1027187 L32.6402458,32.3047028 C33.2321988,32.363232 33.8276544,32.4205906 34.4417911,32.4802903 L34.4417911,34.318106 Z M27.7236499,32.180621 C27.609229,32.6149074 27.2916527,34.2431887 23.5286063,34.2385063 C22.6074013,34.2373358 17.3510455,34.0172661 17.2167761,34.0172661 L17.2167761,26.5688449 C17.3335321,26.5688449 20.6739217,26.6402505 21.2285128,26.6718563 C27.0931674,26.9890843 27.2344422,28.1421088 27.8298979,30.2877879 C28.0003617,30.9035147 27.8871084,31.5578707 27.7236499,32.180621 L27.7236499,32.180621 Z M25.1585203,37.1415528 C24.7031718,37.1064353 23.4760661,37.0081063 23.3207806,36.9964005 L23.3207806,35.4044072 C23.7878046,35.4383542 24.2419855,35.4687893 24.6996691,35.5015657 C24.8526195,35.5132715 25.0055699,35.5226362 25.1585203,35.534342 L25.1585203,37.1415528 Z M20.4158909,36.7974013 L20.4158909,36.7974013 C20.1088226,36.7821837 18.8887222,36.7248251 18.5769837,36.7107781 L18.5769837,35.2065787 L20.4158909,35.2065787 L20.4158909,36.7974013 Z M17.2191112,14.0564806 C17.3767318,14.0459454 22.3750569,13.7930994 22.9775179,13.7767112 C26.8760013,13.6760411 26.7709208,15.383922 26.7989423,16.6270814 C26.8503149,18.9085482 25.9174344,20.9605806 21.2296803,21.3293143 C21.0708922,21.3410202 17.2739865,21.5037312 17.2191112,21.5037312 L17.2191112,14.0564806 Z M13.7467873,40.4589857 L15.6090457,40.4589857 L15.6090457,38.9571274 L13.7467873,38.9571274 L13.7467873,40.4589857 Z M12.8045662,24.7661467 L14.6411384,24.7661467 L14.6411384,23.2408768 L12.8045662,23.2408768 L12.8045662,24.7661467 Z M10.8909352,30.6424746 L12.7450207,30.6424746 L12.7450207,29.1417869 L10.8909352,29.1417869 L10.8909352,30.6424746 Z M12.7438531,32.6125662 L12.7438531,32.6125662 L10.8886,32.6125662 L10.8886,31.1095373 L12.7438531,31.1095373 L12.7438531,32.6125662 Z M8.99131478,36.5691376 L10.8383949,36.5691376 L10.8383949,35.0520617 L8.99131478,35.0520617 L8.99131478,36.5691376 Z M10.3678682,16.9103626 L10.3678682,16.9103626 L10.3678682,15.397969 L12.2172835,15.397969 L12.2172835,16.9103626 L10.3678682,16.9103626 Z M11.3789753,12.8917503 L13.2108772,12.8917503 L13.2108772,11.3735038 L11.3789753,11.3735038 L11.3789753,12.8917503 Z M13.0310729,18.8617249 L14.8723153,18.8617249 L14.8723153,17.3622077 L13.0310729,17.3622077 L13.0310729,18.8617249 Z M13.7432846,11.3020983 C14.371432,11.2704925 14.9785633,11.2412279 15.6020404,11.2107928 L15.6020404,12.774692 C14.9797308,12.802786 14.371432,12.8320506 13.7432846,12.8601446 L13.7432846,11.3020983 Z M32.6320728,16.2068421 C33.2333663,16.1494835 33.8229842,16.0932955 34.4347857,16.0347663 L34.4347857,17.8784349 C33.8440003,17.9182348 33.247377,17.9592052 32.6320728,18.0001756 L32.6320728,16.2068421 Z M32.6390782,11.6099617 C33.2228583,11.5221679 33.8159788,11.4343742 34.4429586,11.3407275 L34.4429586,13.1808844 C33.8510056,13.2546311 33.2543824,13.3295484 32.6390782,13.4068069 L32.6390782,11.6099617 Z M36.7126956,31.1270961 C36.5959396,29.9436364 36.2877037,28.8187059 35.6980858,27.7768868 C35.5147789,27.4526353 35.323299,27.2618302 34.9239934,27.3004595 C34.5947415,27.3320652 34.2573166,27.2770478 33.9233944,27.2630008 C33.4937322,27.2431009 33.0640701,27.2220304 32.6180621,27.2021305 C32.6180621,26.5442627 32.6087216,25.9191712 32.6238999,25.2940798 C32.6297377,25.099763 32.5643543,25.0072869 32.3950581,24.9557812 C31.6513223,24.7321998 30.9134243,24.4887185 30.1650182,24.285037 C29.7341885,24.1679787 29.2858454,24.1153024 28.8339996,24.0310205 L28.8339996,23.4035878 C28.8339996,22.6789968 28.8351672,22.6825086 29.5146872,22.4413684 C30.6950905,22.0234702 31.8626507,21.5821603 32.8620822,20.7849931 C33.9806048,19.8930087 34.7862213,18.7680782 35.2602507,17.4066899 C35.6887453,16.1775775 35.7272748,14.89813 35.6350376,13.611659 C35.5661515,12.6248573 35.3443151,11.670832 34.8889666,10.7893828 C34.5316932,10.0987387 34.0179667,9.54154107 33.3641331,9.13651927 C31.9770716,8.27848175 30.4499029,8.04787685 28.8585184,8.13801176 C28.3938295,8.16493518 27.927973,8.19654093 27.4562787,8.22580551 C27.4469382,8.0654356 27.4387653,7.9331597 27.4317599,7.79386029 C26.8094503,7.87345995 26.2163298,7.94837728 25.6127012,8.02446519 L25.6127012,6.39150157 C26.2256703,6.29902549 26.8281313,6.20772 27.434095,6.11524392 L27.434095,4 C25.230909,4.31254573 23.0370635,4.62392087 20.8268721,4.93763718 L20.8268721,8.99136695 C19.4433133,9.05457844 18.0761004,9.11778994 16.6925416,9.18100143 L16.6925416,7.56325539 C17.2868297,7.52813789 17.8682746,7.49536156 18.4427142,7.46258523 L18.4427142,5.17994791 C16.059724,5.3133944 13.70242,5.44684089 11.3182622,5.58028738 L11.3182622,9.47481783 L6.56862745,9.47481783 L6.56862745,11.4694917 L8.41570762,11.4694917 L8.41570762,13.0111498 L6.57329769,13.0111498 L6.57329769,14.9753885 L8.95045017,14.9753885 L8.95045017,21.2848322 L10.7660062,21.2848322 L10.7660062,22.8112727 L8.95628797,22.8112727 L8.95628797,25.2109684 L10.7741791,25.2109684 L10.7741791,26.7374089 L8.93293677,26.7374089 L8.93293677,33.0363173 L6.57446525,33.0363173 L6.57446525,37.0045945 L8.40870226,37.0045945 L8.40870226,38.5298645 L11.3416134,38.5298645 L11.3416134,42.4419537 C12.9516788,42.5157004 14.5267175,42.5859354 16.1426207,42.6585116 L16.1426207,41.151971 C16.7731032,41.208159 17.3638887,41.2596646 17.9850307,41.314682 L17.9850307,38.8084633 C18.9517705,38.8822101 19.884651,38.9559568 20.8432179,39.0297035 L20.8432179,43.0635334 C23.056912,43.3772497 25.2437522,43.6874543 27.4539435,44 L27.4539435,39.7718533 C27.8497464,39.7999473 28.201182,39.8257002 28.5514501,39.851453 C29.7645451,39.9380761 30.9659645,39.921688 32.1545407,39.5974364 C34.3448836,39.000439 35.8323552,37.6741682 36.4324811,35.3973837 C36.8014302,33.9985368 36.8528028,32.5692546 36.7126956,31.1270961 L36.7126956,31.1270961 Z" id="Fill-159" fill="#FFFFFF" mask="url(#mask-21)"></path>
                            </g>
                        </g>
                        <g id="Group-6" transform="translate(600.000000, 103.000000)">
                            <path d="M51.7523236,-0.168576881 L1.56386434,29.6903639 C0.594196687,30.2672545 -1.47044438e-15,31.312167 -1.33226763e-15,32.4404658 L1.02140518e-14,92.5616768 C1.03522332e-14,93.690013 0.59423579,94.7349544 1.56395452,95.3118323 L51.7524136,125.168545 C52.7587902,125.76723 54.0118044,125.768413 55.0193095,125.171629 L105.43085,95.3109164 C106.403511,94.7347721 107,93.6881682 107,92.5576771 L107,32.4444655 C107,31.3140118 106.40355,30.2674367 105.430941,29.6912796 L55.0193998,-0.171660982 C54.0118496,-0.768516646 52.7587452,-0.767333723 51.7523236,-0.168576881 Z" id="Fill-1" fill="url(#linearGradient-22)"></path>
                            <g id="Page-1" transform="translate(12.346154, 24.725275)">
                                <g id="Group-3">
                                    <mask id="mask-24" fill="white">
                                        <use xlink:href="#path-23"></use>
                                    </mask>
                                    <g id="Clip-2"></g>
                                    <path d="M66.7160922,23.5931133 C65.8524466,23.2947967 64.9814093,23.0184392 64.1039365,22.7642998 C64.2494526,22.1688886 64.38401,21.5708112 64.5075718,20.9703639 C66.4848183,11.3052545 65.1920528,3.51910262 60.777145,0.956009134 C56.5443069,-1.50221437 49.6213884,1.06087912 42.6295548,7.18762645 C41.9405873,7.79273958 41.266918,8.41525698 40.609172,9.0546232 C40.1687256,8.62947762 39.720483,8.21258982 39.2647018,7.80418196 C31.9370447,1.25251124 24.5921773,-1.50802813 20.1819766,1.06265657 C15.9530735,3.52776772 14.7005023,10.8478184 16.4806015,20.0073894 C16.6577436,20.9144851 16.8576857,21.816841 17.0803176,22.7136793 C16.0410377,23.010922 15.0373554,23.3277167 14.0771035,23.6647301 C5.48646826,26.6805197 -7.35765831e-06,31.4075194 -7.35765831e-06,36.3101911 C-7.35765831e-06,41.3742041 5.88940481,46.4533625 14.8376707,49.5328073 C15.5632654,49.7813551 16.2948543,50.011684 17.031849,50.2234976 C16.792448,51.1896938 16.5798555,52.1624444 16.3944392,53.1406014 C14.6972662,62.1410529 16.0227241,69.2875793 20.2404846,71.737471 C24.5968477,74.2669039 31.908324,71.6669652 39.028022,65.4002431 C39.5907431,64.9048509 40.1556339,64.3794271 40.7212234,63.8287116 C41.4336161,64.5208461 42.1650947,65.1928731 42.9146663,65.8439779 C49.810997,71.8195673 56.6219008,74.2325767 60.8360207,71.7761677 C65.1884489,69.2391066 66.6026065,61.5617869 64.7661323,52.2210264 C64.6260588,51.5075624 64.4626703,50.778916 64.2795341,50.0369016 C64.7930511,49.8842995 65.2968597,49.7266242 65.788496,49.5625057 C75.090862,46.4591392 81.1429639,41.4418215 81.1429639,36.3102281 C81.1429639,31.3897818 75.4798243,26.6310101 66.7160922,23.5931133 Z" id="Fill-1" fill="#FFFFFF" mask="url(#mask-24)"></path>
                                </g>
                                <path d="M58.9056363,4.28971729 C61.6007203,5.85195123 62.6490395,12.1514401 60.9556204,20.4126754 C60.8446202,20.9508332 60.72399,21.4869381 60.5936933,22.0207334 C57.2546038,21.2464167 53.6284019,20.67006 49.8319609,20.3120824 C47.6202367,17.1471427 45.3287734,14.2692816 43.0283731,11.7783956 C43.6311594,11.1943771 44.2483177,10.6254988 44.8792279,10.0722374 C50.8214788,4.87501888 56.3751377,2.82305402 58.9056363,4.28971729 L58.9056363,4.28971729 Z M51.8124558,42.8776838 C50.5932407,45.0062665 49.3054485,47.094414 47.9511582,49.1388637 C45.5631761,49.310319 43.0953453,49.3987411 40.5805318,49.3987411 C38.0760049,49.3987411 35.6395446,49.320327 33.2932195,49.1675313 C31.9038016,47.1278106 30.591679,45.0360338 29.3595875,42.8966733 C28.1333323,40.7686405 26.9878742,38.5945636 25.9257666,36.3791718 C26.9851749,34.1631202 28.1271677,31.9879069 29.3492644,29.8581145 L29.3492644,29.858811 C30.5710329,27.7286153 31.8728324,25.6457833 33.2518908,23.6148609 C35.6455998,23.4329944 38.0998975,23.3377536 40.5808966,23.3377536 C43.0729118,23.3377536 45.5303831,23.4336909 47.923399,23.6169871 C49.288523,25.6447935 50.5820058,27.720367 51.8014032,29.8398582 C53.0277313,31.9648849 54.1849716,34.129467 55.2712271,36.3301218 C54.1961701,38.553212 53.042614,40.7371135 51.8128206,42.8776838 L51.8124558,42.8776838 Z M57.125292,40.3180983 C58.2010786,42.7824797 59.1079756,45.1666507 59.8282185,47.4338053 C57.4943686,47.9689571 54.9748861,48.3999965 52.320073,48.7199951 C53.170795,47.3645927 53.9946334,45.9922537 54.7910773,44.6038945 C55.6006895,43.19288 56.3789313,41.7639024 57.125292,40.3180983 L57.125292,40.3180983 Z M40.714075,58.5868323 C39.0844546,56.8194532 37.4590655,54.8648553 35.8714304,52.762374 C37.4124111,52.8232283 38.9836315,52.8540221 40.5805318,52.8540221 C42.2212049,52.8540221 43.8430192,52.8171429 45.43919,52.7455474 C43.8718727,54.8863376 42.2892714,56.8437949 40.714075,58.5868323 L40.714075,58.5868323 Z M28.9108081,48.7819493 C26.2748537,48.4862558 23.7888573,48.0856801 21.4930896,47.5834117 C22.2037391,45.2772516 23.0793021,42.8802133 24.1019779,40.4423365 C24.8298446,41.855294 25.5906867,43.2508383 26.3838477,44.6278697 C27.1932046,46.0325422 28.0357557,47.4176386 28.9108081,48.7819493 L28.9108081,48.7819493 Z M26.3699499,28.1322703 C25.5803637,29.5086785 24.8228774,30.9034163 24.0980748,32.3153107 C23.0967382,29.9286469 22.2400704,27.5820516 21.5404735,25.3159967 C23.8369343,24.7994312 26.2859063,24.3773733 28.8374159,24.0569348 C27.9833015,25.3958039 27.1605939,26.7546157 26.3699499,28.1322703 L26.3699499,28.1322703 Z M40.6190153,14.249559 C42.2048266,15.9761363 43.7931548,17.9042662 45.3554747,19.9959697 C42.1862961,19.8454468 39.0118284,19.8447503 35.8425769,19.9938068 C37.4063559,17.9214594 39.0082171,15.9961889 40.6190153,14.249559 L40.6190153,14.249559 Z M54.7771795,28.1086251 C53.9903655,26.7427381 53.1743333,25.393971 52.329703,24.0633868 C54.8979556,24.3891776 57.3582721,24.8223433 59.6686306,25.3525093 C58.975089,27.5866707 58.1105785,29.922928 57.0925354,32.3178402 C56.3486917,30.8994205 55.5767604,29.4960677 54.7771795,28.1086251 L54.7771795,28.1086251 Z M20.0586589,19.4930048 C18.5458385,11.7236266 19.5503486,5.86305898 22.0783668,4.39243651 C24.7712986,2.82591344 30.7252951,5.05974484 37.0009844,10.6597019 C37.4020881,11.0176795 37.8049426,11.3924836 38.2085267,11.7801919 C35.8703725,14.3036313 33.5596492,17.1764701 31.3522294,20.3074267 C27.5668044,20.6600154 23.943083,21.2263641 20.6118361,21.9849173 C20.4066517,21.1589844 20.2221863,20.3279559 20.0586589,19.4926382 L20.0586589,19.4930048 Z M16.1667204,46.1163819 C12.2420254,44.768238 9.0008772,43.0162557 6.77919479,41.1045858 C4.78301464,39.3862568 3.7749298,37.6804652 3.7749298,36.2961386 C3.7749298,33.3509712 8.14453766,29.5939113 15.4322148,27.0404112 C16.3469179,26.7213291 17.2707403,26.4291915 18.2024419,26.1644384 C19.2097972,29.4568057 20.5309661,32.8992192 22.1253495,36.380235 C20.51032,39.9131969 19.1702558,43.4103793 18.1536718,46.7414221 C17.4863573,46.5494376 16.8238213,46.3410664 16.1667204,46.1163819 L16.1667204,46.1163819 Z M27.7766215,68.1611286 C25.2984676,69.040694 23.324721,69.0657689 22.1317695,68.3744854 C19.5927352,66.9031664 18.5376312,61.2219358 19.9770593,53.6022007 C20.148247,52.7017396 20.3442391,51.8061908 20.564817,50.9165807 C23.8615199,51.6494358 27.5108848,52.1767058 31.411359,52.4946148 C33.6380388,55.6438277 35.9701013,58.5385154 38.3203659,61.0733925 C37.8208832,61.558981 37.3095818,62.0321419 36.7868995,62.4924355 C33.6640105,65.2360504 30.5347381,67.18207 27.7769862,68.1611653 L27.7766215,68.1611286 Z M61.2067297,52.7187128 C62.012147,56.8076489 62.1271597,60.5045143 61.5935708,63.3945463 C61.1141505,65.9913776 60.1502396,67.7226107 58.9583459,68.4160204 C56.421792,69.8916285 50.9970802,67.9735799 45.147445,62.9145301 C44.4767017,62.3345441 43.8009974,61.7152594 43.1235057,61.0601586 C45.3914777,58.5671463 47.6579907,55.668866 49.8700796,52.4505871 C53.7612885,52.1036806 57.4373547,51.5363054 60.7711186,50.7619887 C60.9349743,51.4278306 61.0809927,52.0804019 61.2067297,52.7187495 L61.2067297,52.7187128 Z M64.5123696,46.1357013 C64.0724541,46.2821183 63.620793,46.4235497 63.1605598,46.5606553 C62.1417871,43.3197943 60.7668143,39.8734582 59.0848125,36.3132952 C60.6902485,32.8372651 62.0117458,29.4353233 63.0020297,26.2152481 C63.8252115,26.4551096 64.6245371,26.7074719 65.3946809,26.9741679 C72.8430038,29.5506167 77.3860609,33.3606492 77.3860609,36.2961386 C77.3860609,39.423136 72.4792893,43.4826714 64.5126979,46.1357013 L64.5123696,46.1357013 Z" id="Fill-4" fill="#E98699"></path>
                                <path d="M41.5242086,28.7082748 C45.6941092,28.7082748 49.0740874,32.1358664 49.0740874,36.3636399 C49.0740874,40.5917631 45.6941092,44.0193547 41.5242086,44.0193547 C37.3547296,44.0193547 33.9743682,40.5917631 33.9743682,36.3636399 C33.9743682,32.1358664 37.3547296,28.7082748 41.5242086,28.7082748" id="Fill-6" fill="#FFFFFF"></path>
                            </g>
                        </g>
                        <g id="Group-12" transform="translate(0.000000, 261.000000)">
                            <polygon id="Fill-327" fill="url(#linearGradient-25)" points="17.2684321 36.3318619 23.0041124 38.821882 38.0800062 2.49226343 32.3465184 -4.97379915e-14"></polygon>
                            <polygon id="Fill-330" fill="url(#linearGradient-26)" points="12.0852714 7.02140823 3.28626015e-13 19.3840219 12.0852714 31.7443923 16.490081 27.2376801 8.81181165 19.3840219 16.490081 11.5281204"></polygon>
                            <polygon id="Fill-333" fill="url(#linearGradient-27)" points="43.2653594 7.02140823 38.8605498 11.5281204 46.5366266 19.3840219 38.8605498 27.2376801 43.2653594 31.7443923 55.3484382 19.3840219"></polygon>
                        </g>
                        <g id="Group-180" opacity="0.443033854" transform="translate(233.000000, -0.000000)">
                            <polygon id="Fill-170" fill="#F9D2E1" points="0 91 57 91 57 81 0 81"></polygon>
                            <polygon id="Fill-172" fill="#F9D2E1" points="0 74 67 74 67 64 0 64"></polygon>
                            <polygon id="Fill-174" fill="#F9D2E1" points="0 57 32 57 32 47 0 47"></polygon>
                            <polygon id="Fill-176" fill="#FF839B" points="0 40 61 40 61 30 0 30"></polygon>
                            <polygon id="Fill-178" fill="#F9D2E1" points="0 23 50 23 50 13 0 13"></polygon>
                            <polygon id="Fill-221" fill="#E98699" opacity="0.420145089" points="23 9 78 9 78 0 23 0"></polygon>
                        </g>
                        <g id="Group-10" transform="translate(629.000000, 15.000000)">
                            <g id="Group-3" transform="translate(0.000000, -0.000000)">
                                <g id="Group-84">
                                    <mask id="mask-29" fill="white">
                                        <use xlink:href="#path-28"></use>
                                    </mask>
                                    <g id="Clip-83"></g>
                                    <polygon id="Fill-82" fill="url(#linearGradient-30)" mask="url(#mask-29)" points="0.210316737 7.92155226 40.9523613 7.92155226 40.9523613 0.0238361653 0.210316737 0.0238361653"></polygon>
                                </g>
                                <g id="Group-87" transform="translate(0.000000, 13.242314)">
                                    <mask id="mask-32" fill="white">
                                        <use xlink:href="#path-31"></use>
                                    </mask>
                                    <g id="Clip-86"></g>
                                    <polygon id="Fill-85" fill="url(#linearGradient-33)" mask="url(#mask-32)" points="0 7.94538843 33.7621166 7.94538843 33.7621166 0 0 0"></polygon>
                                </g>
                                <g id="Group-90" transform="translate(0.000000, 27.808859)">
                                    <mask id="mask-35" fill="white">
                                        <use xlink:href="#path-34"></use>
                                    </mask>
                                    <g id="Clip-89"></g>
                                    <polygon id="Fill-88" fill="url(#linearGradient-36)" mask="url(#mask-35)" points="0 7.94538843 11.6868865 7.94538843 11.6868865 0 0 0"></polygon>
                                </g>
                            </g>
                            <path d="M1.36666667,70.537531 L1.36666667,42.7605159" id="Line-4" stroke="#E98699" stroke-linecap="square" stroke-dasharray="2"></path>
                        </g>
                    </g>
                </g>
            </g>
        </g>
    </g>
</svg>
