
<svg width="1262px" height="786px" viewBox="0 0 1262 786" version="1.1" xmlns="http://www.w3.org/2000/svg" xmlns:xlink="http://www.w3.org/1999/xlink">
    <defs>
        <linearGradient x1="50.9463874%" y1="34.2152145%" x2="50%" y2="69.3952949%" id="linearGradient-1">
            <stop stop-color="#F8E5E9" offset="0%"></stop>
            <stop stop-color="#E98699" offset="100%"></stop>
        </linearGradient>
    </defs>
    <g id="Website" stroke="none" stroke-width="1" fill="none" fill-rule="evenodd">
        <g id="About-us" transform="translate(-116.000000, -80.000000)" fill="url(#linearGradient-1)" fill-rule="nonzero">
            <g id="Banner">
                <g transform="translate(0.000000, 80.000000)">
                    <path d="M1378,125.908255 L1377.89142,125.753177 L1377.90693,125.706653 L1377.84489,125.691145 L1299.31307,12.5458527 L1299.37511,12.4683135 L1299.25103,12.4683135 L1299.17347,12.3597585 L1299.08041,12.4683135 L703.724515,0.170586378 L703.740026,0.155078526 L703.63145,0.155078526 L703.538384,0.0310157052 L703.47634,0.139570673 L703.321231,0.108554968 L703.352253,0.155078526 L702.483641,0.139570673 L702.840392,0.201602083 L412.801578,16.9500829 L412.708513,16.7794965 L412.615447,16.9500829 L228.314619,0.170586378 L228.33013,0.139570673 L228.221553,0.139570673 L228.112977,0 L228.050933,0.124062821 L227.911335,0.108554968 L227.942356,0.139570673 L116.124087,7.30419856 L160.066542,154.380672 L159.988987,154.380672 L160.082053,154.458212 L160.051031,154.535751 L160.066542,154.535751 L118.17153,324.098611 L118.124997,324.098611 L118.156019,324.207166 L118.140508,324.269197 L118.17153,324.269197 L174.972542,533.020401 L174.879477,532.95837 L175.003564,533.206495 L174.92601,533.222003 L175.003564,533.268527 L174.863966,533.392589 L175.019075,533.361574 L116.155109,785.612304 L116,785.767382 L116.124087,785.751874 L116.062044,786 L116.356751,785.720859 L269.480617,765.886315 L269.496128,765.932839 L269.651238,765.870807 L269.744303,765.8553 L269.744303,765.824284 L348.896561,730.792045 L348.896561,730.807553 L348.989627,730.761029 L349.160247,730.869584 L349.160247,730.823061 L466.733069,784.495738 L466.74858,784.573278 L466.841646,784.542262 L467.027777,784.635309 L466.996755,784.495738 L567.569603,755.899258 L567.554092,755.976797 L567.724712,755.868242 L567.817777,755.930274 L567.833288,755.868242 L725.346747,784.511246 L725.207148,784.69734 L725.424301,784.604293 L725.470834,784.728356 L725.594921,784.55777 L725.687987,784.573278 L725.656965,784.495738 L861.284506,726.06215 L861.253484,726.217228 L861.408594,726.077658 L861.501659,726.310275 L861.579214,726.000118 L1112.90276,784.511246 L1112.88724,784.573278 L1112.98031,784.55777 L1113.11991,784.743864 L1113.16644,784.573278 L1113.32155,784.604293 L1113.244,784.511246 L1313.84681,743.306882 L1313.9709,743.368913 L1314.00192,743.275866 L1314.14152,743.24485 L1314.01743,743.182819 L1375.84398,516.783679 L1375.95256,516.814695 L1375.89051,516.70614 L1375.98358,516.644109 L1375.875,516.628601 L1375.92154,516.458014 L1375.81296,516.520046 L1314.03294,302.263555 L1314.04845,302.263555 L1314.00192,302.123984 L1314.00192,302.123984 L1377.82938,125.892747 L1378,125.908255 Z M1299.17347,12.731947 L1377.51916,125.613606 L1366.2117,122.899732 L1233.31408,91.093126 L1233.37612,91.0776182 L1233.12795,91.0310946 L1233.2055,90.9380475 L1233.12795,91.0310946 L1233.2055,90.9380475 L1273.62698,43.018783 L1299.17347,12.731947 Z M349.113714,730.481888 L333.183993,633.976521 L347.578132,640.489819 L333.183993,633.976521 L333.183993,633.976521 L347.578132,640.489819 L443.683833,684.004854 L349.113714,730.481888 Z M703.600428,0.449727725 L773.244488,88.5653461 L843.229788,177.115184 L843.059168,177.1462 L843.121211,177.161708 L552.989332,278.583064 L605.912613,180.837069 L703.600428,0.449727725 Z M703.817581,0.356680609 L1210.43546,87.30921 L1232.492,91.093126 L843.540006,177.037645 L843.540006,177.006629 L843.477963,177.037645 L843.307342,176.71198 L843.291832,176.836043 L719.669748,20.4238418 L703.817581,0.356680609 Z M1312.66798,411.469852 L1208.03127,481.844487 L1098.40004,248.048102 L1136.58794,277.171849 L1312.66798,411.469852 Z M444.056095,683.927314 L468.858066,628.130061 L468.935621,628.269631 L468.966643,627.974982 L543.434601,659.750572 L583.328704,676.778194 L444.056095,683.927314 Z M443.823431,683.865283 L443.714855,683.803252 L443.730366,683.834267 L426.203019,675.894247 L333.401145,633.867966 L468.687446,627.912951 L458.69841,650.399337 L443.823431,683.865283 Z M348.167548,140.330558 L401.711266,176.603425 L552.539515,278.75365 L552.337873,278.831189 L552.399916,278.831189 L379.080824,353.935719 L364.62464,254.018625 L348.167548,140.330558 Z M1053.27875,555.956515 L1053.27875,555.878976 L1053.2012,555.956515 L1015.92844,496.313314 L964.509722,414.028648 L964.509722,414.028648 L1207.72105,482.030582 L1053.27875,555.956515 Z M828.54094,643.079631 L828.54094,643.079631 L820.583835,489.458843 L827.68784,496.220267 L898.185,563.291729 L828.54094,643.079631 Z M898.293577,563.090127 L820.614857,489.19521 L820.630368,489.19521 L820.630368,489.19521 L964.028883,414.106187 L898.293577,563.090127 Z M693.564858,682.65567 L603.86517,591.996764 L764.775522,515.667114 L820.118507,489.412319 L706.671591,662.604017 L693.564858,682.65567 Z M583.623411,676.716163 L469.137263,627.866427 L603.539441,592.120827 L602.391632,597.005801 L583.623411,676.716163 Z M333.199503,633.728396 L370.099998,561.182661 L402.936629,496.607963 L468.687446,627.757872 L454.510459,628.378186 L333.199503,633.728396 Z M552.927288,279.048299 L820.242595,489.164194 L603.803127,591.826178 L591.751137,517.71415 L552.927288,279.048299 Z M837.040928,249.211191 L843.493474,177.611436 L869.195079,227.949925 L963.889285,413.392826 L832.55827,299.068937 L837.040928,249.211191 Z M832.527249,299.33257 L832.527249,299.33257 L964.075416,413.842554 L872.080111,462.009944 L820.568324,488.9781 L829.657727,344.755071 L832.527249,299.33257 Z M829.03729,350.586023 L820.320149,488.916068 L820.289128,488.885052 L820.289128,488.931576 L819.141319,488.032121 L553.051375,278.877713 L553.051375,278.877713 L832.279074,299.161984 L829.03729,350.586023 Z M490.309678,622.050983 L469.013176,627.711349 L475.605319,576.302817 L495.924633,417.812564 L603.539441,591.934733 L490.309678,622.050983 Z M495.645436,417.719517 L468.765001,627.401192 L403.060716,496.34433 L453.161009,453.790782 L495.645436,417.719517 Z M468.780512,627.4167 L495.660947,417.735025 L495.660947,417.735025 L468.780512,627.4167 L468.780512,627.4167 Z M495.800546,417.176742 L495.738502,417.083695 L495.70748,417.285297 L379.17389,354.106306 L400.051597,345.065228 L552.539515,278.986268 L502.206558,401.59135 L552.539515,278.986268 L552.539515,278.986268 L502.206558,401.59135 L495.800546,417.176742 Z M379.127357,354.276892 L495.645436,417.440376 L403.029694,496.111712 L403.029694,496.111712 L402.533345,493.149712 L379.127357,354.276892 Z M964.432167,413.811538 L1098.0588,247.908531 L1200.81869,467.049996 L1207.75207,481.844487 L964.432167,413.811538 Z M1097.9192,247.737945 L909.973304,195.693592 L1097.9192,247.737945 L1064.80337,288.86477 L964.292569,413.65646 L964.292569,413.65646 L843.617561,177.332294 L909.973304,195.7091 L843.617561,177.332294 L1097.9192,247.737945 L1097.9192,247.737945 Z M843.26081,177.301279 L832.294585,299.006906 L843.26081,177.301279 L843.26081,177.301279 Z M832.310096,298.851827 L832.310096,298.851827 L832.294585,298.991398 L553.175463,278.707127 L553.175463,278.707127 L843.26081,177.285771 L832.310096,298.851827 Z M552.694624,279.234393 L603.461886,591.360942 L495.971166,417.440376 L496.002188,417.40936 L495.971166,417.393852 L510.086109,383.012943 L552.694624,279.234393 Z M402.797031,496.282298 L175.484403,533.128956 L378.863671,354.307908 L402.797031,496.282298 Z M583.871586,676.778194 L599.320469,611.133454 L603.756594,592.306921 L603.927214,592.586063 L603.880681,592.337937 L693.332194,682.748718 L607.060421,678.049838 L583.871586,676.778194 Z M693.828544,682.671178 L693.704457,682.87278 L693.828544,682.671178 L735.630491,670.435483 L693.828544,682.671178 L800.481674,519.838726 L820.320149,489.567398 L828.292766,643.343264 L735.646002,670.45099 L693.828544,682.671178 Z M898.107446,563.725949 L861.455126,725.441836 L828.556451,643.389788 L898.107446,563.725949 Z M898.51073,563.198682 L903.737912,551.350683 L964.277058,414.121695 L975.413903,431.955726 L1052.95302,556.049562 L1001.06898,558.453279 L898.51073,563.198682 Z M1053.32529,556.127101 L1207.75207,482.18566 L1144.97935,653.904112 L1053.32529,556.127101 Z M1312.71451,411.237235 L1098.52413,247.893023 L1179.98751,268.440928 L1313.75374,302.170507 L1312.71451,411.237235 L1312.71451,411.237235 Z M1098.13635,247.474311 L1098.13635,247.474311 L1098.07431,247.536343 L1097.79511,247.319233 L1097.88818,247.536343 L843.757159,177.161708 L1232.66262,91.2326967 L1098.13635,247.474311 Z M348.152037,140.082432 L412.724023,17.2912556 L441.093508,70.3126036 L552.430938,278.427985 L348.152037,140.082432 Z M347.888351,140.190987 L373.48138,317.02703 L378.801627,353.780641 L160.454315,154.520243 L278.352867,145.510181 L347.888351,140.190987 Z M378.646518,500.360863 L402.734987,496.452885 L332.951329,633.650856 L175.422359,533.31505 L175.422359,533.31505 L378.646518,500.360863 Z M236.643986,572.549917 L332.718665,633.759411 L332.64111,633.759411 L332.765198,633.821443 L244.213318,665.969221 L244.197807,665.876174 L244.166785,665.90719 L175.468892,533.578684 L236.643986,572.549917 Z M244.337406,666.108792 L301.402104,645.390301 L332.904796,633.961013 L332.904796,633.961013 L332.904796,633.961013 L336.131069,653.516415 L348.819006,730.435364 L244.337406,666.108792 L244.337406,666.108792 Z M583.825053,676.933273 L625.254738,679.181911 L693.270151,682.888288 L658.991003,702.753847 L567.910843,755.52707 L583.825053,676.933273 Z M693.7665,682.857273 L828.153167,643.544866 L725.594921,784.170073 L693.750989,682.919304 L693.844055,682.919304 L693.7665,682.857273 Z M898.448686,563.369268 L1049.15285,556.390735 L1052.87547,556.220148 L935.783486,659.936666 L861.703301,725.550391 L898.448686,563.369268 Z M861.765345,725.767501 L1053.03058,556.359719 L1063.00411,717.424276 L861.765345,725.767501 Z M1053.30978,556.437258 L1117.07519,624.4547 L1144.88629,654.121222 L1144.85526,654.13673 L1144.87078,654.13673 L1063.26779,717.269197 L1053.30978,556.437258 Z M1086.65827,699.435167 L1144.83975,654.415871 L1113.01133,784.154566 L1063.2833,717.501815 L1086.65827,699.435167 Z M1145.27406,653.888604 L1208.06229,482.108121 L1208.17087,482.139137 L1208.15536,482.123629 L1337.29933,508.812643 L1375.50274,516.70614 L1145.27406,653.888604 Z M1232.89528,91.3257438 L1313.70721,301.984413 L1098.29146,247.660406 L1140.63629,198.485005 L1098.22942,247.737945 L1233.01937,91.201681 L1232.95733,91.1861732 L1233.01937,91.201681 L1232.89528,91.3257438 L1232.89528,91.3257438 L1140.63629,198.485005 L1232.89528,91.3257438 Z M1298.97183,12.623392 L1232.86426,90.9845711 L1232.74017,90.9535554 L1232.74017,90.9690632 L1097.74858,67.8003315 L704.670682,0.341172757 L1298.97183,12.623392 Z M703.383275,0.325664904 L552.818711,278.381462 L552.803201,278.303922 L552.725646,278.474509 L539.851577,254.421829 L412.910155,17.1051614 L703.383275,0.325664904 Z M412.553403,17.1051614 L347.965905,139.896338 L347.965905,139.896338 L347.965905,139.896338 L347.965905,139.896338 L308.180379,93.4658275 L228.376662,0.341172757 L412.553403,17.1051614 Z M347.795285,140.035909 L308.661218,143.028924 L160.407783,154.349657 L228.190531,0.449727725 L347.795285,140.035909 Z M116.434306,7.47478494 L227.973378,0.325664904 L160.252673,154.070515 L160.252673,154.070515 L116.434306,7.47478494 Z M160.299206,154.659814 L378.67754,353.966735 L118.435215,324.129627 L160.299206,154.659814 Z M118.435215,324.300213 L378.739584,354.137321 L248.153094,468.957462 L175.251739,533.051417 L118.435215,324.300213 Z M175.220717,533.625207 L243.965143,666.04676 L243.9031,666.062268 L243.949633,666.093284 L150.884074,753.107845 L116.480839,785.271131 L175.220717,533.625207 Z M116.573904,785.519257 L218.744377,689.990885 L244.058209,666.325902 L255.427718,710.833439 L269.449596,765.731237 L116.573904,785.519257 Z M269.69777,765.63819 L263.477889,741.290861 L244.321895,666.325902 L244.321895,666.325902 L290.420368,694.705272 L348.803495,730.636966 L269.69777,765.63819 Z M349.222291,730.636966 L366.532484,722.123155 L443.792409,684.159932 L466.686537,784.247613 L466.686537,784.247613 L349.222291,730.636966 Z M466.965733,784.325152 L444.071606,684.252979 L502.470244,718.075606 L567.507559,755.74418 L466.965733,784.325152 Z M567.631646,755.573593 L444.195693,684.082393 L583.576879,676.933273 L567.631646,755.573593 Z M567.988398,755.713164 L693.487304,682.996843 L700.188024,704.32014 L725.362258,784.34066 L567.988398,755.713164 Z M725.858607,784.201089 L828.385831,643.622405 L861.331039,725.783008 L860.881222,725.798516 L861.206952,725.876056 L725.858607,784.201089 Z M862.106585,725.922579 L1062.46122,717.61037 L1063.00411,717.594862 L1063.01962,717.734433 L1063.11268,717.672402 L1066.33895,721.999092 L1112.8252,784.309644 L862.106585,725.922579 Z M1113.244,784.325152 L1115.16735,776.447163 L1145.13446,654.291808 L1166.10523,665.364415 L1313.62966,743.167311 L1113.244,784.325152 Z M1313.80028,743.043248 L1145.24304,654.13673 L1375.56478,516.892234 L1313.80028,743.043248 Z M1220.53307,484.511838 L1208.20189,481.96855 L1242.12428,459.156499 L1312.77655,411.640439 L1312.77655,411.640439 L1375.53376,516.551061 L1220.53307,484.511838 Z M1375.37865,515.775669 L1312.99371,411.48536 L1313.00922,411.469852 L1312.96269,411.438837 L1314.00192,302.992424 L1375.37865,515.775669 Z M1313.89334,301.751795 L1293.74465,249.242207 L1233.12795,91.2326967 L1377.61223,125.815208 L1313.89334,301.751795 Z" id="Net"></path>
                </g>
            </g>
        </g>
    </g>
</svg>
