<?xml version="1.0" encoding="utf-8"?>
<svg width="64" height="65" viewBox="0 0 64 65" fill="none" xmlns="http://www.w3.org/2000/svg">
<rect y="0.5" width="64" height="64" rx="16" fill="url(#paint0_linear)"/>
<path fill-rule="evenodd" clip-rule="evenodd" d="M13.6001 38.4062C13.6001 37.3017 14.4955 36.4062 15.6001 36.4062H21.7682C22.8727 36.4062 23.7682 37.3017 23.7682 38.4063V44.4919C23.7682 45.5965 22.8727 46.4919 21.7682 46.4919H15.6001C14.4955 46.4919 13.6001 45.5965 13.6001 44.4919V38.4062Z" fill="white"/>
<path opacity="0.7" fill-rule="evenodd" clip-rule="evenodd" d="M27.2578 38.4063C27.2578 37.3017 28.1532 36.4062 29.2578 36.4062H35.4514C36.556 36.4062 37.4514 37.3017 37.4514 38.4062V44.5173C37.4514 45.6218 36.556 46.5173 35.4514 46.5173H29.2578C28.1532 46.5173 27.2578 45.6218 27.2578 44.5173V38.4063Z" fill="white"/>
<path fill-rule="evenodd" clip-rule="evenodd" d="M40.1123 38.4063C40.1123 37.3017 41.0077 36.4062 42.1123 36.4062H48.3059C49.4105 36.4062 50.3059 37.3017 50.3059 38.4062V44.5173C50.3059 45.6218 49.4105 46.5173 48.3059 46.5173H42.1123C41.0077 46.5173 40.1123 45.6218 40.1123 44.5173V38.4063Z" fill="white"/>
<path d="M18.4207 36.4062V34.4668C18.4207 33.3622 19.3161 32.4668 20.4207 32.4668H42.9329C44.0375 32.4668 44.9329 33.3622 44.9329 34.4668V36.2386" stroke="white" stroke-dasharray="2"/>
<path d="M31.8775 27.0439V36.1173" stroke="white" stroke-linecap="square" stroke-dasharray="2"/>
<path fill-rule="evenodd" clip-rule="evenodd" d="M26.8562 19.2998C26.8562 18.1952 27.7516 17.2998 28.8562 17.2998H35.0498C36.1544 17.2998 37.0498 18.1952 37.0498 19.2998V25.4108C37.0498 26.5154 36.1544 27.4108 35.0498 27.4108H28.8562C27.7516 27.4108 26.8562 26.5154 26.8562 25.4108V19.2998Z" fill="white"/>
<defs>
<linearGradient id="paint0_linear" x1="-36.3693" y1="54.9382" x2="70.9535" y2="112.267" gradientUnits="userSpaceOnUse">
<stop stop-color="#F57B94"/>
<stop offset="1" stop-color="#E3486A"/>
</linearGradient>
</defs>
</svg>
