<svg width="194" height="246" viewBox="0 0 194 246" fill="none" xmlns="http://www.w3.org/2000/svg">
<g style="mix-blend-mode:luminosity" opacity="0.2">
<path opacity="0.75" fill-rule="evenodd" clip-rule="evenodd" d="M164.568 135.282C185.387 135.282 202.265 118.268 202.265 97.2798C202.265 76.2916 185.387 59.2773 164.568 59.2773C143.749 59.2773 126.872 76.2916 126.872 97.2798C126.872 118.268 143.749 135.282 164.568 135.282Z" fill="url(#paint0_linear)"/>
<path opacity="0.75" fill-rule="evenodd" clip-rule="evenodd" d="M90.8141 218.407C90.8141 176.769 124.569 143.014 166.207 143.014C207.845 143.014 241.6 176.769 241.6 218.407V243.456C241.6 244.56 240.705 245.456 239.6 245.456H92.8142C91.7096 245.456 90.8141 244.56 90.8141 243.456V218.407Z" fill="url(#paint1_linear)"/>
<path fill-rule="evenodd" clip-rule="evenodd" d="M135.22 136.405C156.34 136.405 173.462 119.391 173.462 98.4023C173.462 77.4142 156.34 60.3999 135.22 60.3999C114.1 60.3999 96.9786 77.4142 96.9786 98.4023C96.9786 119.391 114.1 136.405 135.22 136.405Z" fill="url(#paint2_linear)"/>
<path fill-rule="evenodd" clip-rule="evenodd" d="M60.4 218.014C60.4 176.593 93.9786 143.014 135.4 143.014H138.366C179.787 143.014 213.366 176.593 213.366 218.014V243.455C213.366 244.56 212.47 245.455 211.366 245.455H62.4C61.2954 245.455 60.4 244.56 60.4 243.455V218.014Z" fill="url(#paint3_linear)"/>
</g>
<defs>
<linearGradient id="paint0_linear" x1="41.5304" y1="171.74" x2="263.964" y2="323.828" gradientUnits="userSpaceOnUse">
<stop stop-color="#F6B4C2"/>
<stop offset="1" stop-color="#F6708E"/>
</linearGradient>
<linearGradient id="paint1_linear" x1="-79.8684" y1="294.595" x2="241.828" y2="620.983" gradientUnits="userSpaceOnUse">
<stop stop-color="#F6B4C2"/>
<stop offset="1" stop-color="#F6708E"/>
</linearGradient>
<linearGradient id="paint2_linear" x1="53.5157" y1="125.049" x2="181.413" y2="193.798" gradientUnits="userSpaceOnUse">
<stop stop-color="#FBA4B5"/>
<stop offset="1" stop-color="#E3486A"/>
</linearGradient>
<linearGradient id="paint3_linear" x1="-26.526" y1="230.15" x2="174.979" y2="390.876" gradientUnits="userSpaceOnUse">
<stop stop-color="#FBA4B5"/>
<stop offset="1" stop-color="#E3486A"/>
</linearGradient>
</defs>
</svg>
