<?xml version="1.0" encoding="utf-8"?>
<svg width="48" height="39" viewBox="0 0 48 39" fill="none"
xmlns="http://www.w3.org/2000/svg">
  <path fill-rule="evenodd" clip-rule="evenodd"
  d="M4.44905 33.2231V37.0573C4.44905 37.6426 4.91336 38.1176 5.48546 38.1176H20.0657C20.6378 38.1176 21.1021 37.6426 21.1021 37.0573V33.3207H25.1731C26.8023 33.3207 28.133 31.9591 28.133 30.2923V24.9906L30.5168 24.944C31.462 24.927 32.0589 23.8921 31.6154 23.0396L29.0119 18.0178C28.4315 16.8981 28.1289 15.6511 28.1289 14.3872C28.1289 6.40069 21.7695 -0.0631549 13.9466 0.000465643C6.14872 0.0640862 -0.0780279 6.55766 0.000739113 14.5356C0.0256129 16.8345 0.576982 19.006 1.53462 20.9231C3.4458 24.7361 4.44905 28.9478 4.44905 33.2231Z"
  fill="url(#paint0_linear)" />
  <path opacity="0.8" fill-rule="evenodd" clip-rule="evenodd"
  d="M43.551 33.2231V37.0573C43.551 37.6426 43.0866 38.1176 42.5145 38.1176H27.9343C27.3622 38.1176 26.8979 37.6426 26.8979 37.0573V33.3207H22.8269C21.1977 33.3207 19.867 31.9591 19.867 30.2923V24.9906L17.4832 24.944C16.538 24.927 15.9411 23.8921 16.3846 23.0396L18.9881 18.0178C19.5685 16.8981 19.8711 15.6511 19.8711 14.3872C19.8711 6.40069 26.2305 -0.0631549 34.0534 0.000465643C41.8513 0.0640862 48.078 6.55766 47.9993 14.5356C47.9744 16.8345 47.423 19.006 46.4654 20.9231C44.5542 24.7361 43.551 28.9478 43.551 33.2231Z"
  fill="url(#paint1_linear)" />
  <defs>
    <linearGradient id="paint0_linear" x1="-18.051" y1="32.4228"
    x2="39.092" y2="57.8596" gradientUnits="userSpaceOnUse">
      <stop stop-color="#F6B4C2" />
      <stop offset="1" stop-color="#F6708E" />
    </linearGradient>
    <linearGradient id="paint1_linear" x1="66.051" y1="32.4228"
    x2="8.90798" y2="57.8596" gradientUnits="userSpaceOnUse">
      <stop stop-color="#F57B94" />
      <stop offset="1" stop-color="#E3486A" />
    </linearGradient>
  </defs>
</svg>
