<?xml version="1.0" encoding="utf-8"?>
<svg width="35" height="36" viewBox="0 0 35 36" fill="none"
xmlns="http://www.w3.org/2000/svg">
  <rect width="15.1579" height="21.7895" rx="2"
  fill="url(#paint0_linear)" />
  <path fill-rule="evenodd" clip-rule="evenodd"
  d="M18.9474 2C18.9474 0.89543 19.8428 0 20.9474 0H32.1053C33.2098 0 34.1053 0.89543 34.1053 2V19.7895C34.1053 20.894 33.2098 21.7895 32.1053 21.7895H20.9474C19.8428 21.7895 18.9474 20.894 18.9474 19.7895V2Z"
  fill="url(#paint1_linear)" />
  <path fill-rule="evenodd" clip-rule="evenodd"
  d="M0 27.5791C0 26.4745 0.895431 25.5791 2 25.5791H32.1053C33.2098 25.5791 34.1053 26.4745 34.1053 27.5791V34.0002C34.1053 35.1047 33.2098 36.0002 32.1053 36.0002H2C0.89543 36.0002 0 35.1047 0 34.0002V27.5791Z"
  fill="url(#paint2_linear)" />
  <defs>
    <linearGradient id="paint0_linear" x1="-8.61379" y1="18.5341"
    x2="20.0936" y2="29.2017" gradientUnits="userSpaceOnUse">
      <stop stop-color="#F57B94" />
      <stop offset="1" stop-color="#E3486A" />
    </linearGradient>
    <linearGradient id="paint1_linear" x1="10.3336" y1="18.5341"
    x2="39.041" y2="29.2017" gradientUnits="userSpaceOnUse">
      <stop stop-color="#F6B4C2" />
      <stop offset="1" stop-color="#F6708E" />
    </linearGradient>
    <linearGradient id="paint2_linear" x1="-19.381" y1="34.4432"
    x2="-1.25796" y2="66.126" gradientUnits="userSpaceOnUse">
      <stop stop-color="#F57B94" />
      <stop offset="1" stop-color="#E3486A" />
    </linearGradient>
  </defs>
</svg>
