<?xml version="1.0" encoding="UTF-8"?>
<svg width="46px" height="48px" viewBox="0 0 46 48" version="1.1" xmlns="http://www.w3.org/2000/svg" xmlns:xlink="http://www.w3.org/1999/xlink">
    <!-- Generator: Sketch 51.1 (57501) - http://www.bohemiancoding.com/sketch -->
    <title>Group 13</title>
    <desc>Created with Sketch.</desc>
    <defs>
        <linearGradient x1="-12.0388617%" y1="1.21379425%" x2="155.65304%" y2="90.7901921%" id="linearGradient-1">
            <stop stop-color="#F6B4C2" offset="0%"></stop>
            <stop stop-color="#F6708E" offset="100%"></stop>
        </linearGradient>
        <linearGradient x1="-12.0388617%" y1="1.21379425%" x2="155.65304%" y2="90.7901921%" id="linearGradient-2">
            <stop stop-color="#F57B94" offset="0%"></stop>
            <stop stop-color="#E3486A" offset="100%"></stop>
        </linearGradient>
        <linearGradient x1="-12.0388617%" y1="1.21379425%" x2="155.65304%" y2="90.7901921%" id="linearGradient-3">
            <stop stop-color="#FBA4B5" offset="0%"></stop>
            <stop stop-color="#E3486A" offset="100%"></stop>
        </linearGradient>
    </defs>
    <g id="Page-1" stroke="none" stroke-width="1" fill="none" fill-rule="evenodd">
        <g id="Tech" transform="translate(-534.000000, -1296.000000)">
            <g id="Tech-index" transform="translate(137.000000, 854.000000)">
                <g id="Technology" transform="translate(2.000000, 209.000000)">
                    <g id="Architecture" transform="translate(279.000000, 200.000000)">
                        <g id="Group-13" transform="translate(116.000000, 23.000000)">
                            <path d="M7.83005904,29.0936865 L31.5297985,35.8786317 C31.727501,35.9352315 31.8823431,36.0892996 31.939933,36.2867159 L38.9065542,60.1680588 C38.9991908,60.4856137 38.8168584,60.8181396 38.4993035,60.9107761 C38.392924,60.9418089 38.2800208,60.9427215 38.1731535,60.9134124 L13.9248398,54.2631326 C13.7195517,54.2068308 13.5595712,54.045801 13.5046128,53.8401492 L7.08656586,29.8241409 C7.00116223,29.5045649 7.19099651,29.1762639 7.5105726,29.0908603 C7.61535951,29.062857 7.72578393,29.0638338 7.83005904,29.0936865 Z" id="Rectangle-5-Copy-6" fill="url(#linearGradient-1)" opacity="0.900390625" transform="translate(22.998394, 45.002648) rotate(-45.000000) translate(-22.998394, -45.002648) "></path>
                            <path d="M7.83005904,18.0936865 L31.5297985,24.8786317 C31.727501,24.9352315 31.8823431,25.0892996 31.939933,25.2867159 L38.9065542,49.1680588 C38.9991908,49.4856137 38.8168584,49.8181396 38.4993035,49.9107761 C38.392924,49.9418089 38.2800208,49.9427215 38.1731535,49.9134124 L13.9248398,43.2631326 C13.7195517,43.2068308 13.5595712,43.045801 13.5046128,42.8401492 L7.08656586,18.8241409 C7.00116223,18.5045649 7.19099651,18.1762639 7.5105726,18.0908603 C7.61535951,18.062857 7.72578393,18.0638338 7.83005904,18.0936865 Z" id="Rectangle-5-Copy-7" fill="url(#linearGradient-2)" transform="translate(22.998394, 34.002648) rotate(-45.000000) translate(-22.998394, -34.002648) "></path>
                            <path d="M7.83005904,7.09368653 L31.5297985,13.8786317 C31.727501,13.9352315 31.8823431,14.0892996 31.939933,14.2867159 L38.9065542,38.1680588 C38.9991908,38.4856137 38.8168584,38.8181396 38.4993035,38.9107761 C38.392924,38.9418089 38.2800208,38.9427215 38.1731535,38.9134124 L13.9248398,32.2631326 C13.7195517,32.2068308 13.5595712,32.045801 13.5046128,31.8401492 L7.08656586,7.82414095 C7.00116223,7.50456486 7.19099651,7.17626394 7.5105726,7.09086031 C7.61535951,7.06285702 7.72578393,7.06383385 7.83005904,7.09368653 Z" id="Rectangle-5-Copy-6" fill="url(#linearGradient-3)" transform="translate(22.998394, 23.002648) rotate(-45.000000) translate(-22.998394, -23.002648) "></path>
                        </g>
                    </g>
                </g>
            </g>
        </g>
    </g>
</svg>