<svg width="260" height="240" viewBox="0 0 260 240" fill="none" xmlns="http://www.w3.org/2000/svg">
<rect width="260" height="240" fill="#E7E7E7"/>
<mask id="mask0" mask-type="alpha" maskUnits="userSpaceOnUse" x="0" y="0" width="260" height="240">
<rect width="260" height="240" fill="#2C2D32"/>
</mask>
<g mask="url(#mask0)">
<path d="M-15.046 -189.401C-12.035 -187.653 -7.1543 -187.653 -4.14331 -189.401C-4.0219 -189.474 -3.92478 -189.571 -3.80337 -189.644L164.642 -92.4102V28.6158L-55.4272 -98.4312V-96.4404L205.776 54.3505V188.147L346.66 269.478L321.723 283.875L184.577 204.704L185.014 203.952L54.5223 128.617V112.156L28.0305 96.8613V49.7376L-55.4272 1.54575V3.53654L26.3307 50.733V95.8659L-7.39712 76.3949C-5.21173 74.6469 -5.45456 72.2191 -8.17415 70.641C-11.1851 68.893 -16.0658 68.893 -19.0768 70.641C-22.0878 72.389 -22.0878 75.2053 -19.0768 76.929C-16.3572 78.5071 -12.1321 78.6285 -9.12115 77.3661L52.8225 113.103V129.564L182.246 204.267H122.148L-55.4272 101.838V103.829L118.676 204.34H-55.4272V206.064H183.485L319.999 284.87L294.163 299.777L195.213 242.651L195.019 242.53H-55.4272V244.253H122.051L68.0717 275.402H-55.4272V277.126H68.5574L125.523 244.253H194.582L292.487 300.772L269.759 313.883L183.12 263.87L182.926 263.749H147.984L77.1775 304.608H-55.4514V306.332H77.6389L148.446 265.472H182.416L245.331 301.792H213.886L183.193 284.069H159.372L106.365 314.66C103.354 313.47 99.2499 313.64 96.5789 315.194C93.5679 316.942 93.5679 319.758 96.5789 321.482C99.5899 323.23 104.471 323.23 107.482 321.482C110.25 319.879 110.444 317.379 108.113 315.631L159.834 285.769H182.732L213.424 303.492H248.318L267.986 314.854L235.983 333.329H188.802L130.38 367.052C127.369 365.789 123.144 365.935 120.424 367.489C117.413 369.237 117.413 372.053 120.424 373.777C123.435 375.525 128.316 375.525 131.327 373.777C134.046 372.198 134.289 369.771 132.104 368.023L189.264 335.029H232.996L217.941 343.72L241.325 357.219L178.045 393.733H111.512L41.3371 353.213C43.5225 351.465 43.2797 349.037 40.5601 347.459C37.5491 345.711 32.6684 345.711 29.6574 347.459C26.6464 349.207 26.6464 352.023 29.6574 353.747C32.377 355.325 36.6021 355.447 39.6131 354.184L75.7449 375.039H-55.4757V377.03L-55.0386 376.763H78.7073L110.808 395.287L111.002 395.408H175.01L148.761 410.558H-1.78795L-40.6393 432.991H-55.5V434.714H-43.626L-55.4272 441.658V443.649L-1.22946 412.379H149.32L243.073 358.263L286.781 383.488L177.681 446.441H60.3014L-55.4272 513.254V515.245L60.7628 448.164H174.694L30.6287 531.341V597.911L-55.4272 647.584V649.575L32.3527 598.907V532.336L288.505 384.483L326.094 406.188L172.145 495.045V628.842L85.312 678.976H88.7601L173.869 629.837V496.041L327.818 407.183L351.007 420.585L236.93 486.427V643.263L182.101 674.921V679H183.825V675.917L238.654 644.258V487.422L352.731 421.58L384.031 439.643L296.761 490.02V678.976H298.485V598.543L342.241 623.816V679H343.965V622.821L298.485 596.552V550.278L356.058 583.515C354.042 585.238 354.358 587.617 357.005 589.147C360.016 590.895 364.896 590.895 367.907 589.147C370.918 587.399 370.918 584.583 367.907 582.859C365.115 581.257 360.768 581.16 357.733 582.519L298.46 548.311V491.039L385.73 440.663L413.606 456.759L371.185 481.231V517.308L381.894 523.499V541.878L458.334 586.015V617.164L520.569 653.095C518.384 654.843 518.626 657.271 521.346 658.849C524.357 660.597 529.238 660.597 532.249 658.849C535.26 657.101 535.26 654.285 532.249 652.561C529.529 650.983 525.304 650.862 522.293 652.124L460.058 616.193V585.044L383.618 540.907V524.519L512.119 598.688C510.103 600.412 510.419 602.791 513.066 604.321C516.077 606.069 520.957 606.069 523.968 604.321C526.979 602.573 526.979 599.757 523.968 598.033C521.176 596.43 516.83 596.333 513.794 597.693L410.765 538.236H462.462L521.735 572.444C519.549 574.192 519.792 576.62 522.512 578.198C525.523 579.946 530.403 579.946 533.414 578.198C536.425 576.45 536.425 573.633 533.414 571.91C530.695 570.331 526.47 570.21 523.459 571.473L463.117 536.634L462.923 536.512H407.924V536.609L372.885 516.386V482.299L415.306 457.827L423.708 462.683L434.635 456.37L612.72 559.164L612.914 559.285H661.478C661.769 560.11 662.474 560.912 663.591 561.567C666.602 563.315 671.482 563.315 674.493 561.567C677.504 559.819 677.504 557.003 674.493 555.279C671.482 553.531 666.602 553.531 663.591 555.279C662.474 555.935 661.769 556.736 661.478 557.561H613.375L436.334 455.375L463.409 439.74L611.408 525.174C609.223 526.922 609.466 529.35 612.185 530.928C615.196 532.676 620.077 532.676 623.088 530.928C626.099 529.18 626.099 526.364 623.088 524.64C620.368 523.062 616.143 522.941 613.132 524.203L465.23 438.623L493.276 422.43L702.393 543.14V644.21L642.222 678.976H645.67L681.535 658.266L717.4 678.976H720.848L683.259 657.271L704.118 645.229V565.743L739.472 586.161V635.809L811.372 677.325C810.716 677.835 810.328 678.417 810.109 679H825.14C824.848 678.174 824.144 677.398 823.051 676.766C820.332 675.188 816.107 675.067 813.096 676.329L741.196 634.814V585.165L704.118 563.752V542.169L495 421.459L525.814 403.663L931.228 637.679V678.976H932.952V636.683L527.538 402.667L552.476 388.271L761.423 508.884L761.618 509.005H913.648L980.715 547.729H980.327V588.856L1056.28 632.702C1054.1 634.45 1054.34 636.878 1057.06 638.456C1060.07 640.204 1064.95 640.204 1067.96 638.456C1070.97 636.708 1070.97 633.891 1067.96 632.168C1065.24 630.59 1061.02 630.468 1058.01 631.731L982.051 587.885V548.506L1097.29 615.027L1097.49 615.149H1352.81L1401.5 586.986V584.995L1352.33 613.376H1097.92L914.304 507.379L914.109 507.257H762.079L554.2 387.251L576.151 374.578L773.88 488.709L774.074 488.83H948.541L1033.53 537.872C1031.34 539.62 1031.59 542.048 1034.31 543.626C1037.32 545.374 1042.2 545.374 1045.21 543.626C1048.22 541.878 1048.22 539.061 1045.21 537.338C1042.49 535.76 1038.26 535.638 1035.25 536.901L949.221 487.228L949.027 487.106H774.56L745.3 470.209H978.457L1162.83 363.774C1165.84 365.036 1170.07 364.891 1172.79 363.337C1175.8 361.589 1175.8 358.773 1172.79 357.049C1169.78 355.301 1164.9 355.301 1161.88 357.049C1159.16 358.627 1158.92 361.055 1161.11 362.803L977.995 468.509H742.289L668.544 425.926L697.513 409.198H748.918L797.045 381.4C800.056 382.662 804.281 382.517 807.001 380.963C810.012 379.215 810.012 376.399 807.001 374.675C803.99 372.927 799.109 372.927 796.098 374.675C793.379 376.253 793.136 378.681 795.321 380.429L748.457 407.474H700.499L812.537 342.798H916.125L973.916 376.156C971.731 377.904 971.974 380.332 974.693 381.91C977.704 383.658 982.585 383.658 985.596 381.91C988.607 380.162 988.607 377.345 985.596 375.622C982.876 374.044 978.651 373.922 975.64 375.185L916.78 341.22L916.586 341.098H812.052L666.796 424.955L605.046 389.314H639.139L666.577 373.485C669.588 374.796 673.886 374.675 676.654 373.097C679.665 371.349 679.665 368.532 676.654 366.809C673.643 365.061 668.763 365.061 665.752 366.809C663.081 368.363 662.789 370.742 664.878 372.49L638.677 387.615H602.06L577.85 373.631L629.547 343.793L613.351 334.446L702.539 282.977H732.285L767.81 303.492C765.624 305.24 765.867 307.667 768.587 309.246C771.598 310.994 776.478 310.994 779.489 309.246C782.5 307.497 782.5 304.681 779.489 302.958C776.77 301.379 772.545 301.258 769.534 302.521L732.94 281.399L732.746 281.277H702.054L637.245 318.69V284.433L697.998 249.352C701.009 250.614 705.234 250.468 707.954 248.915C710.965 247.167 710.965 244.35 707.954 242.627C704.943 240.879 700.062 240.879 697.051 242.627C694.332 244.205 694.089 246.632 696.274 248.38L635.521 283.462V319.709L611.603 333.524L527.489 284.968L566.511 262.437H617.115L697.124 216.261H757.83L842.234 264.987C840.049 266.735 840.292 269.163 843.011 270.741C846.022 272.489 850.903 272.489 853.914 270.741C856.925 268.993 856.925 266.176 853.914 264.453C851.194 262.875 846.969 262.753 843.958 264.016L758.485 214.683L758.291 214.561H696.663L616.653 260.738H569.497L803.917 125.412H969.521L1073.86 65.1785L1074.3 64.9357V-27.6607C1076.51 -27.5393 1078.79 -27.9521 1080.49 -28.9232C1083.5 -30.6712 1083.5 -33.4875 1080.49 -35.2112C1077.48 -36.9592 1072.6 -36.9592 1069.59 -35.2112C1066.58 -33.4632 1066.58 -30.6469 1069.59 -28.9232C1070.46 -28.4133 1071.48 -28.0734 1072.57 -27.8792V63.9403L969.084 123.689H803.48L525.79 283.996L494.271 265.812L774.633 103.975L775.07 103.732V7.00832L870.984 -48.3699C873.995 -47.1074 878.22 -47.2531 880.94 -48.8069C883.951 -50.5549 883.951 -53.3712 880.94 -55.0949C877.929 -56.8429 873.048 -56.8429 870.037 -55.0949C867.318 -53.5168 867.075 -51.089 869.26 -49.341L773.759 5.77013L773.322 6.01289V102.737L492.523 264.817L459.427 245.71L623.889 150.783L624.326 150.54V67.5334L341.853 -95.712C344.038 -97.4601 343.795 -99.8879 341.076 -101.466C338.065 -103.214 333.184 -103.214 330.173 -101.466C327.162 -99.7179 327.162 -96.9017 330.173 -95.1779C332.892 -93.5999 337.118 -93.4785 340.129 -94.7409L547.862 25.1683H485.409L373.395 -39.4841C375.58 -41.2321 375.338 -43.6599 372.618 -45.238C369.607 -46.986 364.726 -46.986 361.715 -45.238C358.704 -43.49 358.704 -40.6738 361.715 -38.95C364.435 -37.3719 368.66 -37.2505 371.671 -38.513L484.753 26.7464L484.947 26.8677H550.849L622.651 68.3104V149.326L490.265 225.753V184.578L571.61 137.624L572.047 137.381V95.696C573.723 95.5988 575.349 95.1861 576.636 94.4335C579.647 92.6855 579.647 89.8692 576.636 88.1455C573.625 86.3975 568.745 86.3975 565.734 88.1455C562.723 89.8935 562.723 92.7097 565.734 94.4335C567.021 95.1861 568.648 95.5746 570.323 95.696V136.386L488.978 183.34L488.541 183.582V226.749L457.775 244.52L423.805 224.904L403.189 236.8V146.898L474.943 105.48C477.954 106.742 482.179 106.597 484.899 105.043C487.91 103.295 487.91 100.479 484.899 98.755C481.888 97.007 477.007 97.007 473.996 98.755C471.276 100.333 471.033 102.761 473.219 104.509L401.902 145.684L401.465 145.927V182.611L347.826 151.633V116.842L464.817 49.3006C467.828 50.5631 472.053 50.4174 474.773 48.8636C477.784 47.1156 477.784 44.2994 474.773 42.5756C471.762 40.8276 466.881 40.8276 463.87 42.5756C461.151 44.1537 460.908 46.5815 463.093 48.3295L346.515 115.628L346.078 115.871V152.652L401.441 184.626V237.844L372.084 254.79L347.267 240.466V207.909L309.63 186.18C311.816 184.432 311.573 182.004 308.853 180.426C305.842 178.678 300.961 178.678 297.951 180.426C294.94 182.174 294.94 184.991 297.951 186.714C300.67 188.292 304.895 188.414 307.906 187.151L345.543 208.88V239.446L263.47 192.055V120.702L386.993 49.3978L387.43 49.155V22.2792L317.57 -18.0466C319.756 -19.7946 319.513 -22.2224 316.793 -23.8005C313.782 -25.5485 308.902 -25.5485 305.891 -23.8005C302.88 -22.0525 302.88 -19.2363 305.891 -17.5125C308.61 -15.9344 312.835 -15.813 315.846 -17.0755L385.706 23.2503V48.1353L262.183 119.44L261.746 119.683V193.027L370.384 255.737L348.433 268.41L207.548 187.078V53.2822L166.414 29.5383V-93.4785L-2.44357 -190.858C-1.30231 -192.46 -1.8608 -194.378 -4.11903 -195.689C-7.13002 -197.437 -12.0107 -197.437 -15.0217 -195.689C-18.057 -193.965 -18.057 -191.149 -15.046 -189.401Z" fill="#DADADA"/>
</g>
</svg>
