<svg fill="none" height="48" viewBox="0 0 48 48" width="48" xmlns="http://www.w3.org/2000/svg"><g fill="#868686"><g clip-rule="evenodd" fill-rule="evenodd"><path d="m29.7417 35.6296h10.7027v-3h-7.212c-1.0061 1.1643-2.1826 2.1772-3.4907 3z"/><path d="m21.1111 36h-16.1111v-3h16.1111z"/><path d="m35 22.5c0 7.4558-6.0442 13.5-13.5 13.5-3.2149 0-6.1674-1.1238-8.486-3h7.986v-.0117c.1657.0078.3324.0117.5.0117 5.799 0 10.5-4.701 10.5-10.5s-4.701-10.5-10.5-10.5-10.5 4.701-10.5 10.5c0 3.4952 1.7077 6.5914 4.3343 8.5h-4.323c-1.88297-2.3207-3.0113-5.2786-3.0113-8.5 0-7.4558 6.0442-13.5 13.5-13.5s13.5 6.0442 13.5 13.5z"/></g><path d="m43.9054 34.2963-5.0124 3.7207v-7.4414z"/></g></svg>