<svg xmlns="http://www.w3.org/2000/svg" viewBox="0 0 206.689 89.238"><path d="M521.875,604.866H511.817V550.28h10.057V554.9a13.592,13.592,0,0,1,11.628-5.771,17.07,17.07,0,0,1,12.2,4.78c2.639,2.639,5.358,7.093,5.358,14.183,0,8.08-3.545,12.451-5.606,14.428a17.5,17.5,0,0,1-12.122,4.619,13.536,13.536,0,0,1-11.46-5.774v23.5Zm2.393-44.442a9.464,9.464,0,0,0-3.384,7.667,10.152,10.152,0,0,0,3.3,7.751,9.776,9.776,0,0,0,6.6,2.39,9.549,9.549,0,0,0,6.761-2.555,10.471,10.471,0,0,0,3.135-7.587,10.754,10.754,0,0,0-3.051-7.5,10.527,10.527,0,0,0-6.845-2.558A9.084,9.084,0,0,0,524.268,560.424Z" transform="translate(-511.817 -515.628)" fill="#0e63af"/><path d="M584.446,550.28h10.061v35.7H584.446v-4.619a12.8,12.8,0,0,1-10.964,5.774c-10.967,0-18.225-8.577-18.225-19.047,0-10.554,7.174-18.963,17.728-18.963,2.722,0,8.08.493,11.46,5.771V550.28Zm-18.8,17.812a9.9,9.9,0,1,0,9.9-10.061A9.776,9.776,0,0,0,565.647,568.091Z" transform="translate(-511.817 -515.628)" fill="#0e63af"/><path d="M600.562,550.28h10.057v5.361a12.054,12.054,0,0,1,4.455-4.948,10.923,10.923,0,0,1,5.935-1.564,12.343,12.343,0,0,1,4.287.822l-1.319,9.4a7.566,7.566,0,0,0-4.7-1.319,8.214,8.214,0,0,0-6.677,2.887c-1.9,2.39-1.981,5.442-1.981,7.916v17.15H600.562v-35.7Z" transform="translate(-511.817 -515.628)" fill="#0e63af"/><path d="M655.043,550.28H665.1v35.7H655.043v-4.619a12.8,12.8,0,0,1-10.964,5.774c-10.967,0-18.225-8.577-18.225-19.047,0-10.554,7.174-18.963,17.728-18.963,2.722,0,8.08.493,11.46,5.771V550.28Zm-18.8,17.812a9.9,9.9,0,1,0,9.9-10.061A9.776,9.776,0,0,0,636.244,568.091Z" transform="translate(-511.817 -515.628)" fill="#0e63af"/><path d="M679.807,548.742l15.25,23.819a2.034,2.034,0,0,0,3.426,0l15.25-23.819c8.426-13.16-.314-30.887-15.924-31.59q-0.516-.023-1.038-0.023t-1.038.023C680.121,517.855,671.381,535.582,679.807,548.742Z" transform="translate(-511.817 -515.628)" fill="none" stroke="#0e63af" stroke-miterlimit="10" stroke-width="3"/><path d="M691.506,517.128s-8.64,22.946,5.263,56.369" transform="translate(-511.817 -515.628)" fill="none" stroke="#0e63af" stroke-miterlimit="10" stroke-width="3"/><path d="M702.033,517.128s8.64,22.946-5.263,56.369" transform="translate(-511.817 -515.628)" fill="none" stroke="#0e63af" stroke-miterlimit="10" stroke-width="3"/><path d="M676.533,540.421s4.334-5.5,12.32-2.5c0,0,8.013-4.833,15.833,0,0,0,8.32-2.148,12.124,2.5" transform="translate(-511.817 -515.628)" fill="none" stroke="#0e63af" stroke-miterlimit="10" stroke-width="3"/><path d="M669.047,581.115a2.435,2.435,0,1,0,2.435,2.436A2.437,2.437,0,0,0,669.047,581.115Zm0,4.2a1.765,1.765,0,1,1,1.765-1.765A1.767,1.767,0,0,1,669.047,585.315Zm0.884-2.082a0.791,0.791,0,0,0-.9-0.8h-0.823v2.227h0.472v-0.621H669.1l0.453,0.622h0.584l-0.553-.759A0.759,0.759,0,0,0,669.932,583.233Zm-0.9.338H668.68v-0.663h0.351c0.428,0,.428.245,0.428,0.325S669.46,583.571,669.032,583.571Z" transform="translate(-511.817 -515.628)" fill="#0e63af"/></svg>
