<?xml version="1.0" encoding="UTF-8"?>
<svg viewBox="0 0 441 441" version="1.1" xmlns="http://www.w3.org/2000/svg" xmlns:xlink="http://www.w3.org/1999/xlink">
    <!-- Generator: Sketch 51.1 (57501) - http://www.bohemiancoding.com/sketch -->
    <title>marketing</title>
    <desc>Created with Sketch.</desc>
    <defs>
        <linearGradient x1="-12.0388617%" y1="1.21379425%" x2="155.65304%" y2="90.7901921%" id="linearGradient-1">
            <stop stop-color="#FCEBF1" offset="0%"></stop>
            <stop stop-color="#FE92AA" stop-opacity="0.719089674" offset="100%"></stop>
        </linearGradient>
        <linearGradient x1="28.1695986%" y1="24.8412002%" x2="155.65304%" y2="90.7901921%" id="linearGradient-2">
            <stop stop-color="#F57B94" offset="0%"></stop>
            <stop stop-color="#E3486A" offset="100%"></stop>
        </linearGradient>
        <linearGradient x1="-12.0388617%" y1="1.21379425%" x2="155.65304%" y2="90.7901921%" id="linearGradient-3">
            <stop stop-color="#FEEBEF" offset="0%"></stop>
            <stop stop-color="#FEC3D0" stop-opacity="0.719089674" offset="100%"></stop>
        </linearGradient>
    </defs>
    <g id="Page-1" stroke="none" stroke-width="1" fill="none" fill-rule="evenodd">
        <g id="Partner" transform="translate(-740.000000, -966.000000)" fill-rule="nonzero">
            <g id="marketing" transform="translate(740.000000, 966.000000)">
                <circle id="Oval" fill="#FEF6F9" cx="220.5" cy="220.5" r="220.5"></circle>
                <g id="Group" transform="translate(93.600000, 28.800000)" fill="url(#linearGradient-1)">
                    <path d="M126.4752,0.45 C57.1041,0.45 0.6678,56.8872 0.6678,126.2583 C0.6678,168.8229 21.9411,208.179 57.5712,231.534 C59.1642,232.5789 60.3972,234.0918 61.1001,235.863 L74.9367,270.7794 L178.0128,270.7794 L191.8503,235.863 C192.5532,234.0918 193.7853,232.5798 195.3792,231.534 C231.0093,208.179 252.2817,168.8229 252.2817,126.2583 C252.2817,56.8872 195.8445,0.45 126.4752,0.45 Z" id="Shape"></path>
                </g>
                <path d="M226.8252,299.5785 L226.8252,253.2879 C224.5941,253.4391 222.345,253.5237 220.0752,253.5237 C217.8054,253.5237 215.5563,253.4391 213.3252,253.2879 L213.3252,299.5785 L226.8252,299.5785 Z" id="Shape" stroke="#E98699" stroke-dasharray="2"></path>
                <path d="M220.0752,254.4237 C165.285,254.4237 120.7098,209.8476 120.7098,155.0583 C120.7098,100.269 165.285,55.692 220.0752,55.692 C274.8645,55.692 319.4397,100.269 319.4397,155.0583 C319.4406,209.8476 274.8645,254.4237 220.0752,254.4237 Z" id="Shape" fill="url(#linearGradient-2)"></path>
                <path d="M220.0752,229.8969 C178.8075,229.8969 145.2366,196.3233 145.2366,155.0583 C145.2366,113.7915 178.8084,80.2188 220.0752,80.2188 C261.342,80.2188 294.9138,113.7924 294.9138,155.0583 C294.9147,196.3242 261.342,229.8969 220.0752,229.8969 Z" id="Shape" fill="#FFFFFF"></path>
                <circle id="Oval" fill="url(#linearGradient-2)" cx="220.077" cy="155.061" r="50.3136"></circle>
                <path d="M220.0752,177.6195 C207.6336,177.6195 197.5131,167.499 197.5131,155.0583 C197.5131,142.6167 207.6336,132.4962 220.0752,132.4962 C232.5159,132.4962 242.6373,142.6167 242.6373,155.0583 C242.6382,167.499 232.5168,177.6195 220.0752,177.6195 Z" id="Shape" fill="#FFFFFF"></path>
                <path d="M186.273,384.3486 L186.273,402.75 C186.273,407.7 190.323,411.75 195.273,411.75 L244.8783,411.75 C249.8283,411.75 253.8783,407.7 253.8783,402.75 L253.8783,384.3486 L186.273,384.3486 Z" id="Shape" fill="#FCC0CE"></path>
                <path d="M286.3278,380.7486 C286.3278,383.2236 284.3028,385.2486 281.8278,385.2486 L158.3226,385.2486 C155.8476,385.2486 153.8226,383.2236 153.8226,380.7486 L153.8226,303.1785 C153.8226,300.7035 155.8476,298.6785 158.3226,298.6785 L281.8278,298.6785 C284.3028,298.6785 286.3278,300.7035 286.3278,303.1785 L286.3278,380.7486 Z" id="Shape" fill="url(#linearGradient-3)"></path>
                <g id="Group" transform="translate(105.300000, 149.400000)">
                    <path d="M182.79,184.8852 L46.7604,184.8852 C43.0317,184.8852 40.0104,181.8639 40.0104,178.1352 C40.0104,174.4065 43.0317,171.3852 46.7604,171.3852 L182.79,171.3852 C186.5187,171.3852 189.54,174.4065 189.54,178.1352 C189.54,181.863 186.5178,184.8852 182.79,184.8852 Z" id="Shape" stroke="#E98699"></path>
                    <path d="M182.79,213.741 L46.7604,213.741 C43.0317,213.741 40.0104,210.7197 40.0104,206.991 C40.0104,203.2623 43.0317,200.241 46.7604,200.241 L182.79,200.241 C186.5187,200.241 189.54,203.2623 189.54,206.991 C189.54,210.7197 186.5178,213.741 182.79,213.741 Z" id="Shape" stroke="#E98699"></path>
                    <path d="M114.7752,0.0855 L0.3357,0.0855 L4.7646,4.8573 C5.7744,5.9454 5.7744,7.7265 4.7646,8.8146 L0.3357,13.5855 L114.7752,13.5855 C118.5039,13.5855 121.5252,10.5642 121.5252,6.8355 C121.5252,3.1068 118.5039,0.0855 114.7752,0.0855 Z" id="Shape" fill="#E03E5E"></path>
                </g>
                <path d="M50.6295,179.532 C49.1445,179.532 48.7809,178.6653 49.8231,177.6069 L68.9481,158.1597 C69.9894,157.1013 69.9894,155.3688 68.9481,154.3104 L49.8231,134.8659 C48.7818,133.8066 49.1445,132.9408 50.6295,132.9408 L88.4781,132.9408 C89.9631,132.9408 92.0043,133.8309 93.015,134.919 L110.9646,154.2564 C111.9744,155.3445 111.9744,157.1256 110.9646,158.2137 L93.015,177.552 C92.0043,178.641 89.9631,179.5311 88.4781,179.5311 L50.6295,179.532 Z" id="Shape" stroke="#E98699"></path>
                <path d="M65.8809,177.6078 L85.0059,158.1606 C86.0472,157.1022 86.0472,155.3697 85.0059,154.3113 L65.8809,134.8668 C64.8396,133.8075 65.2023,132.9417 66.6873,132.9417 L50.6295,132.9417 C49.1445,132.9417 48.7809,133.8075 49.8231,134.8668 L68.9481,154.3113 C69.9894,155.3706 69.9894,157.1031 68.9481,158.1606 L49.8231,177.6078 C48.7818,178.6662 49.1445,179.5329 50.6295,179.5329 L66.6882,179.5329 C65.2023,179.532 64.8396,178.6662 65.8809,177.6078 Z" id="Shape" fill="#E03E5E"></path>
            </g>
        </g>
    </g>
</svg>
