<?xml version="1.0" encoding="utf-8"?>
<svg width="60" height="60" viewBox="0 0 60 60" fill="none" xmlns="http://www.w3.org/2000/svg">
<circle cx="30" cy="34" r="18" fill="white"/>
<path d="M44.5321 20.8716L46.6153 18.7884C47.0058 18.3979 47.0058 17.7649 46.6154 17.3743L45.2839 16.0423C44.8934 15.6517 44.2601 15.6516 43.8696 16.0422L41.592 18.3198C38.8653 16.3874 35.6834 15.1965 32.358 14.8636V10.8833H35.2413C35.7936 10.8833 36.2413 10.4356 36.2413 9.88328V8C36.2413 7.44772 35.7936 7 35.2413 7H25.5915C25.0392 7 24.5915 7.44772 24.5915 8V9.88328C24.5915 10.4356 25.0392 10.8833 25.5915 10.8833H28.4748V14.8636C25.1494 15.1965 21.9675 16.3874 19.2408 18.3198L16.9633 16.0422C16.5727 15.6516 15.9394 15.6517 15.5489 16.0423L14.2174 17.3743C13.827 17.7649 13.8271 18.3979 14.2175 18.7884L16.3007 20.8716C13.6963 23.6291 11.9565 27.089 11.2964 30.8242C10.6362 34.5593 11.0845 38.406 12.5859 41.8892C14.0873 45.3724 16.576 48.3396 19.7447 50.4243C22.9134 52.509 26.6234 53.62 30.4164 53.62C34.2094 53.62 37.9194 52.509 41.0881 50.4243C44.2568 48.3396 46.7456 45.3724 48.247 41.8892C49.7483 38.406 50.1966 34.5593 49.5365 30.8242C48.8763 27.089 47.1366 23.6291 44.5321 20.8716ZM30.4164 49.7161C27.3442 49.7161 24.3411 48.8051 21.7867 47.0983C19.2323 45.3915 17.2413 42.9655 16.0657 40.1272C14.89 37.2889 14.5824 34.1657 15.1818 31.1526C15.7811 28.1395 17.2605 25.3717 19.4328 23.1994C21.6052 21.027 24.3729 19.5477 27.386 18.9483C30.3992 18.349 33.5224 18.6566 36.3607 19.8322C39.199 21.0079 41.6249 22.9988 43.3317 25.5532C45.0385 28.1076 45.9495 31.1108 45.9495 34.183C45.9449 38.3012 44.3069 42.2494 41.3949 45.1614C38.4829 48.0735 34.5346 49.7115 30.4164 49.7161Z" fill="url(#paint0_linear)"/>
<path d="M30.4164 22.5332V34.183H18.7666C18.7666 36.4872 19.4499 38.7395 20.73 40.6554C22.0101 42.5712 23.8295 44.0643 25.9582 44.9461C28.087 45.8278 30.4294 46.0586 32.6892 45.609C34.9491 45.1595 37.0249 44.05 38.6541 42.4207C40.2834 40.7915 41.3929 38.7157 41.8424 36.4558C42.292 34.196 42.0612 31.8536 41.1795 29.7248C40.2977 27.5961 38.8046 25.7767 36.8888 24.4966C34.9729 23.2165 32.7206 22.5332 30.4164 22.5332Z" fill="url(#paint1_linear)"/>
<defs>
<linearGradient id="paint0_linear" x1="-11.0676" y1="46.6549" x2="58.8008" y2="77.7425" gradientUnits="userSpaceOnUse">
<stop stop-color="#F6B4C2"/>
<stop offset="1" stop-color="#F6708E"/>
</linearGradient>
<linearGradient id="paint1_linear" x1="5.52607" y1="42.3519" x2="44.5978" y2="63.2229" gradientUnits="userSpaceOnUse">
<stop stop-color="#F57B94"/>
<stop offset="1" stop-color="#E3486A"/>
</linearGradient>
</defs>
</svg>
