<?xml version="1.0" encoding="utf-8"?>
<svg width="48" height="48" viewBox="0 0 48 48" fill="none"
xmlns="http://www.w3.org/2000/svg">
  <path d="M39.6853 32.6869C39.5915 32.7807 39.4643 32.8336 39.3316 32.834C39.3313 32.834 39.331 32.834 39.3307 32.834H8.66752C8.66721 32.834 8.66691 32.834 8.6666 32.834C8.53391 32.8336 8.40675 32.7807 8.3129 32.6869C8.21898 32.5929 8.16609 32.4656 8.16577 32.3328V12.3351C8.16609 12.2023 8.21898 12.075 8.3129 11.9811C8.40682 11.8872 8.53411 11.8343 8.66691 11.834H39.3313C39.4641 11.8343 39.5914 11.8872 39.6853 11.9811C39.7794 12.0752 39.8323 12.2027 39.8324 12.3357V32.3322C39.8323 32.4653 39.7794 32.5928 39.6853 32.6869Z"
  stroke="#2C2D32" stroke-width="3" />
  <path d="M4 37.999H44V40.999H4V37.999Z" fill="#2C2D32" />
  <path fill-rule="evenodd" clip-rule="evenodd"
  d="M33 22.5L27.3443 28L25.9306 26.6243L30.1717 22.5L25.9306 18.3748L27.3443 17L33 22.5ZM17.8274 22.5L22.0695 26.6243L20.6558 28L15 22.5L20.6558 17L22.0695 18.3748L17.8274 22.5Z"
  fill="#2C2D32" stroke="#2C2D32" stroke-linejoin="round" />
</svg>
