<svg width="192" height="225" viewBox="0 0 192 225" fill="none" xmlns="http://www.w3.org/2000/svg">
<g style="mix-blend-mode:luminosity" opacity="0.2">
<path fill-rule="evenodd" clip-rule="evenodd" d="M48.4139 204.9V222.665C48.4139 225.377 50.5652 227.578 53.2159 227.578H120.771C123.422 227.578 125.573 225.377 125.573 222.665V205.352H144.435C151.984 205.352 158.15 199.044 158.15 191.321V166.756L169.194 166.54C173.574 166.462 176.34 161.666 174.284 157.717L162.222 134.449C159.533 129.261 158.13 123.483 158.13 117.627V117.627V117.627C158.13 80.6231 128.665 50.6739 92.4193 50.9687C56.2891 51.2635 27.4385 81.3504 27.8034 118.315C27.9187 128.966 30.4734 139.028 34.9104 147.91C43.7656 165.577 48.4139 185.091 48.4139 204.9Z" fill="url(#paint0_linear)"/>
<path opacity="0.8" fill-rule="evenodd" clip-rule="evenodd" d="M229.586 204.9V222.665C229.586 225.377 227.435 227.578 224.784 227.578H157.229C154.578 227.578 152.427 225.377 152.427 222.665V205.352H133.565C126.016 205.352 119.85 199.044 119.85 191.321V166.756L108.806 166.54C104.426 166.462 101.66 161.666 103.716 157.717L115.778 134.449C118.467 129.261 119.87 123.483 119.87 117.627V117.627V117.627C119.87 80.6231 149.335 50.6739 185.581 50.9687C221.711 51.2635 250.562 81.3504 250.197 118.315C250.081 128.966 247.527 139.028 243.09 147.91C234.234 165.577 229.586 185.091 229.586 204.9Z" fill="url(#paint1_linear)"/>
</g>
<defs>
<linearGradient id="paint0_linear" x1="-55.8361" y1="201.192" x2="208.926" y2="319.049" gradientUnits="userSpaceOnUse">
<stop stop-color="#F6B4C2"/>
<stop offset="1" stop-color="#F6708E"/>
</linearGradient>
<linearGradient id="paint1_linear" x1="333.836" y1="201.192" x2="69.0736" y2="319.049" gradientUnits="userSpaceOnUse">
<stop stop-color="#F57B94"/>
<stop offset="1" stop-color="#E3486A"/>
</linearGradient>
</defs>
</svg>
