<svg width="260" height="240" viewBox="0 0 260 240" fill="none" xmlns="http://www.w3.org/2000/svg">
<rect width="260" height="240" fill="#E7E7E7"/>
<mask id="mask0" mask-type="alpha" maskUnits="userSpaceOnUse" x="0" y="0" width="260" height="240">
<rect width="260" height="240" fill="#2C2D32"/>
</mask>
<g mask="url(#mask0)">
<path d="M-37.6013 -563.505C-34.6316 -561.781 -29.8179 -561.781 -26.8483 -563.505C-26.7285 -563.577 -26.6327 -563.673 -26.513 -563.745L139.62 -467.843V-348.475L-77.4282 -473.781V-471.818L180.189 -323.093V-191.129L319.14 -110.912L294.545 -96.7123L159.282 -174.798L159.713 -175.541L31.012 -249.844V-266.079L4.88387 -281.164V-327.642L-77.4282 -375.174V-373.211L3.20746 -326.661V-282.146L-30.0574 -301.35C-27.902 -303.074 -28.1415 -305.469 -30.8238 -307.025C-33.7934 -308.749 -38.6071 -308.749 -41.5768 -307.025C-44.5464 -305.301 -44.5464 -302.524 -41.5768 -300.823C-38.8945 -299.267 -34.7274 -299.147 -31.7578 -300.392L29.3356 -265.145V-248.91L156.983 -175.229H97.7094L-77.4282 -276.255V-274.292L94.2848 -175.158H-77.4282V-173.458H158.204L292.844 -95.7306L267.363 -81.028L169.771 -137.372L169.58 -137.491H-77.4282V-135.791H97.6136L44.3755 -105.069H-77.4282V-103.369H44.8544L101.038 -135.791H169.149L265.71 -80.0463L243.294 -67.1157L157.845 -116.443L157.653 -116.563H123.191L53.3562 -76.2629H-77.4521V-74.5628H53.8113L123.646 -114.863H157.15L219.202 -79.0406H188.188L157.917 -96.5208H134.423L82.1427 -66.3495C79.173 -67.5228 75.1257 -67.3552 72.4913 -65.8227C69.5217 -64.0986 69.5217 -61.321 72.4913 -59.6208C75.461 -57.8967 80.2747 -57.8967 83.2444 -59.6208C85.9745 -61.2012 86.1661 -63.6676 83.867 -65.3917L134.878 -94.8446H157.462L187.733 -77.3644H222.147L241.546 -66.1579L209.981 -47.9354H163.449L105.828 -14.6752C102.858 -15.9203 98.6913 -15.7767 96.0091 -14.2441C93.0394 -12.5201 93.0394 -9.74243 96.0091 -8.0423C98.9787 -6.31824 103.792 -6.31824 106.762 -8.0423C109.444 -9.59875 109.684 -11.9933 107.528 -13.7173L163.904 -46.2592H207.036L192.187 -37.6868L215.25 -24.373L152.84 11.6409H87.2198L18.0078 -28.3241C20.1632 -30.0482 19.9237 -32.4427 17.2415 -33.9992C14.2718 -35.7233 9.4581 -35.7233 6.48845 -33.9992C3.5188 -32.2751 3.5188 -29.4974 6.48845 -27.7972C9.17072 -26.2408 13.3378 -26.1211 16.3075 -27.3663L51.9433 -6.79712H-77.4761V-4.83356L-77.045 -5.09698H54.865L86.5253 13.1733L86.7169 13.2931H149.846L123.957 28.2351H-24.5252L-62.8433 50.3607H-77.5V52.0608H-65.789L-77.4282 58.9092V60.8727L-23.9744 30.031H124.508L216.974 -23.3434L260.082 1.53589L152.48 63.6265H36.7118L-77.4282 129.524V131.488L37.1669 65.3266H149.535L-5.5536 152.364V218.022L-77.4282 262.015V263.978L-3.85323 219.004V153.346L261.783 2.51764L298.855 23.9249L147.02 111.565V243.529L61.3791 292.976H64.7798L148.72 244.51V112.547L300.556 24.9067L323.427 38.1246L210.915 103.065V257.752L156.839 288.977V293H158.539V289.959L212.616 258.734V104.046L325.127 39.1063L355.997 56.9218L269.925 106.609V292.976H271.626V213.645L314.781 238.572V293H316.482V237.59L271.626 211.681V166.041L328.408 198.823C326.42 200.523 326.732 202.869 329.342 204.378C332.312 206.102 337.126 206.102 340.095 204.378C343.065 202.654 343.065 199.876 340.095 198.176C337.341 196.596 333.054 196.5 330.061 197.841L271.602 164.102V107.614L357.674 57.9274L385.167 73.8033L343.328 97.9403V133.523L353.89 139.629V157.756L429.281 201.289V232.011L490.661 267.45C488.506 269.174 488.745 271.569 491.428 273.125C494.397 274.849 499.211 274.849 502.181 273.125C505.15 271.401 505.15 268.624 502.181 266.923C499.498 265.367 495.331 265.247 492.362 266.492L430.981 231.053V200.331L355.59 156.798V140.635L482.327 213.788C480.339 215.489 480.651 217.835 483.261 219.344C486.231 221.068 491.044 221.068 494.014 219.344C496.984 217.62 496.984 214.842 494.014 213.142C491.26 211.562 486.973 211.466 483.98 212.807L382.365 154.164H433.352L491.811 187.903C489.656 189.627 489.895 192.022 492.577 193.578C495.547 195.302 500.361 195.302 503.33 193.578C506.3 191.854 506.3 189.077 503.33 187.377C500.648 185.82 496.481 185.7 493.511 186.946L433.999 152.584L433.807 152.464H379.563V152.56L345.005 132.613V98.9939L386.843 74.8569L395.13 79.646L405.907 73.4202L581.547 174.805L581.739 174.925H629.636C629.924 175.739 630.618 176.529 631.72 177.176C634.689 178.9 639.503 178.9 642.473 177.176C645.442 175.452 645.442 172.674 642.473 170.974C639.503 169.25 634.689 169.25 631.72 170.974C630.618 171.62 629.924 172.411 629.636 173.225H582.194L407.583 72.4384L434.286 57.0175L580.254 141.282C578.098 143.006 578.338 145.4 581.02 146.957C583.99 148.681 588.804 148.681 591.773 146.957C594.743 145.233 594.743 142.455 591.773 140.755C589.091 139.198 584.924 139.079 581.954 140.324L436.082 55.916L463.743 39.9444L669.99 159.001V258.686L610.645 292.976H614.046L649.418 272.551L684.79 292.976H688.191L651.118 271.569L671.69 259.692V181.294L706.56 201.433V250.401L777.472 291.348C776.826 291.851 776.442 292.425 776.227 293H791.051C790.764 292.186 790.069 291.42 788.992 290.797C786.309 289.241 782.142 289.121 779.173 290.366L708.26 249.419V200.451L671.69 179.331V158.043L465.443 38.9866L495.834 21.4346L895.683 252.245V292.976H897.384V251.263L497.535 20.4528L522.13 6.25317L728.209 125.214L728.401 125.334H878.345L944.491 163.527H944.108V204.091L1019.02 247.336C1016.86 249.06 1017.1 251.455 1019.79 253.011C1022.76 254.735 1027.57 254.735 1030.54 253.011C1033.51 251.287 1033.51 248.509 1030.54 246.809C1027.86 245.253 1023.69 245.133 1020.72 246.378L945.808 203.133V164.293L1059.47 229.904L1059.66 230.023H1311.48L1359.5 202.247V200.283L1311 228.275H1060.09L878.991 123.73L878.8 123.61H728.856L523.83 5.24744L545.48 -7.25214L740.495 105.315L740.687 105.435H912.759L996.58 153.805C994.424 155.529 994.664 157.924 997.346 159.48C1000.32 161.204 1005.13 161.204 1008.1 159.48C1011.07 157.756 1011.07 154.978 1008.1 153.278C1005.42 151.722 1001.25 151.602 998.28 152.847L913.43 103.855L913.238 103.735H741.166L712.308 87.0691H942.264L1124.11 -17.9078C1127.08 -16.6627 1131.24 -16.8063 1133.93 -18.3389C1136.9 -20.0629 1136.9 -22.8406 1133.93 -24.5407C1130.96 -26.2648 1126.14 -26.2648 1123.17 -24.5407C1120.49 -22.9843 1120.25 -20.5897 1122.41 -18.8656L941.809 85.3929H709.338L636.605 43.3925L665.176 26.8941H715.876L763.342 -0.523376C766.312 0.721802 770.479 0.578125 773.161 -0.954407C776.131 -2.67847 776.131 -5.45618 773.161 -7.15631C770.192 -8.88037 765.378 -8.88037 762.408 -7.15631C759.726 -5.59985 759.487 -3.20526 761.642 -1.4812L715.421 25.194H668.122L778.622 -38.5967H880.787L937.785 -5.69562C935.63 -3.97156 935.87 -1.57703 938.552 -0.0205688C941.521 1.70349 946.335 1.70349 949.305 -0.0205688C952.275 -1.74463 952.275 -4.52228 949.305 -6.22241C946.623 -7.77887 942.456 -7.89862 939.486 -6.65344L881.434 -40.1531L881.242 -40.2729H778.143L634.881 42.4348L573.979 7.28278H607.603L634.666 -8.32965C637.635 -7.03662 641.874 -7.15631 644.604 -8.71277C647.574 -10.4368 647.574 -13.2145 644.604 -14.9147C641.635 -16.6387 636.821 -16.6387 633.851 -14.9147C631.217 -13.3821 630.93 -11.0355 632.989 -9.3114L607.148 5.60663H571.034L547.157 -8.18597L598.144 -37.6149L582.17 -46.8339L670.134 -97.5983H699.471L734.508 -77.3644C732.353 -75.6403 732.592 -73.2458 735.274 -71.6893C738.244 -69.9653 743.058 -69.9653 746.027 -71.6893C748.997 -73.4134 748.997 -76.1911 746.027 -77.8912C743.345 -79.4477 739.178 -79.5674 736.208 -78.3222L700.118 -99.1548L699.926 -99.2745H669.655L605.735 -62.3745V-96.1616L665.655 -130.763C668.625 -129.518 672.792 -129.661 675.474 -131.194C678.444 -132.918 678.444 -135.696 675.474 -137.396C672.505 -139.12 667.691 -139.12 664.721 -137.396C662.039 -135.839 661.799 -133.445 663.955 -131.721L604.035 -97.1194V-61.3688L580.445 -47.7438L497.487 -95.6348L535.972 -117.856H585.882L664.793 -163.4H724.665L807.911 -115.342C805.756 -113.618 805.995 -111.223 808.678 -109.667C811.647 -107.943 816.461 -107.943 819.431 -109.667C822.4 -111.391 822.4 -114.169 819.431 -115.869C816.748 -117.425 812.581 -117.545 809.611 -116.3L725.312 -164.957L725.12 -165.077H664.338L585.427 -119.532H538.918L770.12 -253.004H933.451L1036.36 -312.413L1036.79 -312.652V-403.98C1038.97 -403.861 1041.22 -404.268 1042.9 -405.226C1045.87 -406.95 1045.87 -409.727 1042.9 -411.427C1039.93 -413.152 1035.11 -413.152 1032.14 -411.427C1029.17 -409.703 1029.17 -406.926 1032.14 -405.226C1033.01 -404.723 1034.01 -404.387 1035.09 -404.196V-313.634L933.02 -254.704H769.689L495.81 -96.5926L464.725 -114.528L741.238 -274.148L741.669 -274.388V-369.786L836.266 -424.406C839.236 -423.161 843.403 -423.304 846.086 -424.837C849.055 -426.561 849.055 -429.339 846.086 -431.039C843.116 -432.763 838.302 -432.763 835.333 -431.039C832.65 -429.482 832.411 -427.088 834.566 -425.364L740.375 -371.008L739.944 -370.768V-275.369L463 -115.509L430.358 -134.355L592.563 -227.981L592.995 -228.221V-310.09L314.398 -471.1C316.554 -472.824 316.314 -475.218 313.632 -476.775C310.662 -478.499 305.848 -478.499 302.879 -476.775C299.909 -475.051 299.909 -472.273 302.879 -470.573C305.561 -469.016 309.728 -468.897 312.698 -470.142L517.58 -351.875H455.984L345.508 -415.642C347.663 -417.366 347.424 -419.76 344.741 -421.317C341.772 -423.041 336.958 -423.041 333.988 -421.317C331.019 -419.593 331.019 -416.815 333.988 -415.115C336.671 -413.559 340.838 -413.439 343.807 -414.684L455.337 -350.319L455.528 -350.199H520.526L591.342 -309.324V-229.418L460.773 -154.038V-194.649L541.002 -240.96L541.433 -241.199V-282.314C543.085 -282.409 544.69 -282.816 545.959 -283.559C548.929 -285.283 548.929 -288.06 545.959 -289.761C542.99 -291.485 538.176 -291.485 535.206 -289.761C532.236 -288.037 532.236 -285.259 535.206 -283.559C536.475 -282.816 538.08 -282.433 539.732 -282.314V-242.181L459.504 -195.87L459.073 -195.631V-153.056L428.73 -135.528L395.225 -154.876L374.893 -143.143V-231.813L445.662 -272.664C448.631 -271.418 452.798 -271.562 455.481 -273.095C458.45 -274.819 458.45 -277.596 455.481 -279.296C452.511 -281.021 447.697 -281.021 444.728 -279.296C442.045 -277.74 441.806 -275.345 443.961 -273.621L373.624 -233.01L373.193 -232.77V-196.589L320.29 -227.143V-261.457L435.675 -328.073C438.645 -326.828 442.812 -326.972 445.494 -328.504C448.464 -330.228 448.464 -333.006 445.494 -334.706C442.524 -336.43 437.711 -336.43 434.741 -334.706C432.059 -333.15 431.819 -330.755 433.975 -329.031L318.996 -262.654L318.565 -262.415V-226.138L373.169 -194.601V-142.113L344.214 -125.399L319.739 -139.527V-171.638L282.618 -193.069C284.773 -194.793 284.534 -197.187 281.852 -198.744C278.882 -200.468 274.068 -200.468 271.099 -198.744C268.129 -197.02 268.129 -194.242 271.099 -192.542C273.781 -190.986 277.948 -190.866 280.918 -192.111L318.038 -170.68V-140.533L237.091 -187.274V-257.65L358.919 -327.978L359.35 -328.217V-354.725L290.449 -394.498C292.605 -396.222 292.365 -398.617 289.683 -400.173C286.713 -401.897 281.9 -401.897 278.93 -400.173C275.96 -398.449 275.96 -395.671 278.93 -393.971C281.612 -392.415 285.779 -392.295 288.749 -393.54L357.65 -353.767V-329.223L235.822 -258.895L235.391 -258.655V-186.316L342.538 -124.465L320.888 -111.966L181.937 -192.183V-324.146L141.368 -347.565V-468.897L-25.1719 -564.942C-24.0463 -566.522 -24.5971 -568.414 -26.8243 -569.707C-29.794 -571.431 -34.6077 -571.431 -37.5774 -569.707C-40.5709 -568.007 -40.5709 -565.229 -37.6013 -563.505Z" fill="#DADADA"/>
</g>
</svg>
