<svg width="260" height="240" viewBox="0 0 260 240" fill="none" xmlns="http://www.w3.org/2000/svg">
<rect width="260" height="240" fill="#E7E7E7"/>
<mask id="mask0" mask-type="alpha" maskUnits="userSpaceOnUse" x="0" y="0" width="260" height="240">
<rect width="260" height="240" fill="#2C2D32"/>
</mask>
<g mask="url(#mask0)">
<path d="M39.3987 -598.505C42.3684 -596.781 47.1821 -596.781 50.1517 -598.505C50.2715 -598.577 50.3673 -598.673 50.487 -598.745L216.62 -502.843V-383.475L-0.428154 -508.781V-506.818L257.189 -358.093V-226.129L396.14 -145.912L371.545 -131.712L236.282 -209.798L236.713 -210.541L108.012 -284.844V-301.079L81.8839 -316.164V-362.642L-0.428154 -410.174V-408.211L80.2075 -361.661V-317.146L46.9426 -336.35C49.098 -338.074 48.8585 -340.469 46.1762 -342.025C43.2066 -343.749 38.3929 -343.749 35.4232 -342.025C32.4536 -340.301 32.4536 -337.524 35.4232 -335.823C38.1055 -334.267 42.2726 -334.147 45.2422 -335.392L106.336 -300.145V-283.91L233.983 -210.229H174.709L-0.428154 -311.255V-309.292L171.285 -210.158H-0.428154V-208.458H235.204L369.844 -130.731L344.363 -116.028L246.771 -172.372L246.58 -172.491H-0.428154V-170.791H174.614L121.375 -140.069H-0.428154V-138.369H121.854L178.038 -170.791H246.149L342.71 -115.046L320.294 -102.116L234.845 -151.443L234.653 -151.563H200.191L130.356 -111.263H-0.452102V-109.563H130.811L200.646 -149.863H234.15L296.202 -114.041H265.188L234.917 -131.521H211.423L159.143 -101.349C156.173 -102.523 152.126 -102.355 149.491 -100.823C146.522 -99.0986 146.522 -96.3209 149.491 -94.6208C152.461 -92.8967 157.275 -92.8967 160.244 -94.6208C162.975 -96.2012 163.166 -98.6676 160.867 -100.392L211.878 -129.845H234.462L264.733 -112.364H299.147L318.546 -101.158L286.981 -82.9354H240.449L182.828 -49.6752C179.858 -50.9203 175.691 -50.7766 173.009 -49.2441C170.039 -47.5201 170.039 -44.7424 173.009 -43.0423C175.979 -41.3182 180.792 -41.3182 183.762 -43.0423C186.444 -44.5988 186.684 -46.9933 184.528 -48.7173L240.904 -81.2592H284.036L269.187 -72.6868L292.25 -59.373L229.84 -23.3591H164.22L95.0078 -63.3241C97.1632 -65.0482 96.9237 -67.4428 94.2415 -68.9992C91.2718 -70.7233 86.4581 -70.7233 83.4884 -68.9992C80.5188 -67.2751 80.5188 -64.4974 83.4884 -62.7972C86.1707 -61.2408 90.3378 -61.1211 93.3075 -62.3663L128.943 -41.7971H-0.476051V-39.8336L-0.0449727 -40.097H131.865L163.525 -21.8267L163.717 -21.7069H226.846L200.957 -6.76489H52.4748L14.1567 15.3607H-0.5V17.0608H11.211L-0.428154 23.9092V25.8727L53.0256 -4.96899H201.508L293.974 -58.3434L337.082 -33.4641L229.48 28.6265H113.712L-0.428154 94.5244V96.4879L114.167 30.3266H226.535L84.4464 112.364V178.022L-0.428154 227.015V228.978L86.1468 179.004V113.346L338.783 -32.4824L375.855 -11.0751L224.02 76.5652V208.529L138.379 257.976H141.78L225.72 209.51V77.5471L377.556 -10.0933L400.427 3.12457L287.915 68.0646V222.752L233.839 253.977V258H235.539V254.959L289.616 223.734V69.0464L402.127 4.10632L432.997 21.9218L346.925 71.6086V257.976H348.626V178.645L391.781 203.572V258H393.482V202.59L348.626 176.681V131.041L405.408 163.823C403.42 165.523 403.732 167.869 406.342 169.378C409.312 171.102 414.126 171.102 417.095 169.378C420.065 167.654 420.065 164.876 417.095 163.176C414.341 161.596 410.054 161.5 407.061 162.841L348.602 129.102V72.6143L434.674 22.9274L462.167 38.8033L420.328 62.9403V98.5233L430.89 104.629V122.756L506.281 166.289V197.011L567.661 232.45C565.506 234.174 565.745 236.569 568.428 238.125C571.397 239.849 576.211 239.849 579.181 238.125C582.15 236.401 582.15 233.624 579.181 231.923C576.498 230.367 572.331 230.247 569.362 231.492L507.981 196.053V165.331L432.59 121.798V105.635L559.327 178.788C557.339 180.489 557.651 182.835 560.261 184.344C563.231 186.068 568.045 186.068 571.014 184.344C573.984 182.62 573.984 179.842 571.014 178.142C568.26 176.562 563.973 176.466 560.98 177.807L459.365 119.164H510.352L568.811 152.903C566.656 154.627 566.895 157.022 569.577 158.578C572.547 160.303 577.361 160.303 580.33 158.578C583.3 156.854 583.3 154.077 580.33 152.377C577.648 150.82 573.481 150.7 570.511 151.946L510.999 117.584L510.807 117.464H456.563V117.56L422.005 97.6133V63.9939L463.843 39.8569L472.13 44.646L482.907 38.4202L658.547 139.805L658.739 139.925H706.636C706.924 140.739 707.618 141.529 708.72 142.176C711.689 143.9 716.503 143.9 719.473 142.176C722.442 140.452 722.442 137.674 719.473 135.974C716.503 134.25 711.689 134.25 708.72 135.974C707.618 136.62 706.924 137.411 706.636 138.225H659.194L484.583 37.4384L511.286 22.0175L657.254 106.282C655.098 108.006 655.338 110.4 658.02 111.957C660.99 113.681 665.804 113.681 668.773 111.957C671.743 110.233 671.743 107.455 668.773 105.755C666.091 104.198 661.924 104.079 658.954 105.324L513.082 20.916L540.743 4.9444L746.99 124.001V223.686L687.645 257.976H691.046L726.418 237.551L761.79 257.976H765.191L728.118 236.569L748.69 224.692V146.294L783.56 166.433V215.401L854.472 256.348C853.826 256.851 853.442 257.425 853.227 258H868.051C867.764 257.186 867.069 256.42 865.992 255.797C863.309 254.241 859.142 254.121 856.173 255.366L785.26 214.419V165.451L748.69 144.331V123.043L542.443 3.98663L572.834 -13.5654L972.683 217.245V257.976H974.384V216.263L574.535 -14.5472L599.13 -28.7468L805.209 90.2142L805.401 90.3339H955.345L1021.49 128.527H1021.11V169.091L1096.02 212.336C1093.86 214.06 1094.1 216.455 1096.79 218.011C1099.76 219.735 1104.57 219.735 1107.54 218.011C1110.51 216.287 1110.51 213.509 1107.54 211.809C1104.86 210.253 1100.69 210.133 1097.72 211.378L1022.81 168.133V129.293L1136.47 194.904L1136.66 195.023H1388.48L1436.5 167.247V165.283L1388 193.275H1137.09L955.991 88.7296L955.8 88.6099H805.856L600.83 -29.7526L622.48 -42.2521L817.495 70.3155L817.687 70.4352H989.759L1073.58 118.805C1071.42 120.529 1071.66 122.924 1074.35 124.48C1077.32 126.204 1082.13 126.204 1085.1 124.48C1088.07 122.756 1088.07 119.978 1085.1 118.278C1082.42 116.722 1078.25 116.602 1075.28 117.847L990.43 68.8548L990.238 68.7351H818.166L789.308 52.0691H1019.26L1201.11 -52.9078C1204.08 -51.6627 1208.24 -51.8064 1210.93 -53.3389C1213.9 -55.0629 1213.9 -57.8406 1210.93 -59.5407C1207.96 -61.2648 1203.14 -61.2648 1200.17 -59.5407C1197.49 -57.9843 1197.25 -55.5897 1199.41 -53.8656L1018.81 50.3929H786.338L713.605 8.39252L742.176 -8.1059H792.876L840.342 -35.5234C843.312 -34.2782 847.479 -34.4219 850.161 -35.9544C853.131 -37.6785 853.131 -40.4562 850.161 -42.1563C847.192 -43.8804 842.378 -43.8804 839.408 -42.1563C836.726 -40.5999 836.487 -38.2053 838.642 -36.4812L792.421 -9.80603H745.122L855.622 -73.5967H957.787L1014.79 -40.6956C1012.63 -38.9715 1012.87 -36.577 1015.55 -35.0206C1018.52 -33.2965 1023.34 -33.2965 1026.3 -35.0206C1029.27 -36.7446 1029.27 -39.5223 1026.3 -41.2224C1023.62 -42.7789 1019.46 -42.8986 1016.49 -41.6534L958.434 -75.1531L958.242 -75.2729H855.143L711.881 7.43475L650.979 -27.7172H684.603L711.666 -43.3297C714.635 -42.0366 718.874 -42.1563 721.604 -43.7128C724.574 -45.4368 724.574 -48.2145 721.604 -49.9147C718.635 -51.6387 713.821 -51.6387 710.851 -49.9147C708.217 -48.3822 707.929 -46.0355 709.989 -44.3114L684.148 -29.3934H648.034L624.157 -43.186L675.144 -72.6149L659.17 -81.8339L747.134 -132.598H776.471L811.508 -112.364C809.353 -110.64 809.592 -108.246 812.274 -106.689C815.244 -104.965 820.058 -104.965 823.027 -106.689C825.997 -108.413 825.997 -111.191 823.027 -112.891C820.345 -114.448 816.178 -114.567 813.208 -113.322L777.118 -134.155L776.926 -134.275H746.655L682.735 -97.3745V-131.162L742.655 -165.763C745.625 -164.518 749.792 -164.661 752.474 -166.194C755.444 -167.918 755.444 -170.696 752.474 -172.396C749.505 -174.12 744.691 -174.12 741.721 -172.396C739.039 -170.839 738.8 -168.445 740.955 -166.721L681.035 -132.119V-96.3688L657.445 -82.7438L574.487 -130.635L612.972 -152.856H662.882L741.793 -198.4H801.665L884.911 -150.342C882.756 -148.618 882.995 -146.223 885.678 -144.667C888.647 -142.943 893.461 -142.943 896.431 -144.667C899.4 -146.391 899.4 -149.169 896.431 -150.869C893.748 -152.425 889.581 -152.545 886.611 -151.3L802.312 -199.957L802.12 -200.077H741.338L662.427 -154.532H615.918L847.12 -288.004H1010.45L1113.36 -347.413L1113.79 -347.652V-438.98C1115.97 -438.861 1118.22 -439.268 1119.9 -440.226C1122.87 -441.95 1122.87 -444.727 1119.9 -446.427C1116.93 -448.152 1112.11 -448.152 1109.14 -446.427C1106.17 -444.703 1106.17 -441.926 1109.14 -440.226C1110.01 -439.723 1111.01 -439.388 1112.09 -439.196V-348.634L1010.02 -289.704H846.689L572.81 -131.593L541.725 -149.528L818.238 -309.148L818.669 -309.388V-404.786L913.266 -459.406C916.236 -458.161 920.403 -458.304 923.086 -459.837C926.055 -461.561 926.055 -464.339 923.086 -466.039C920.116 -467.763 915.302 -467.763 912.333 -466.039C909.65 -464.482 909.411 -462.088 911.566 -460.364L817.375 -406.008L816.944 -405.768V-310.369L540 -150.509L507.358 -169.355L669.563 -262.981L669.995 -263.221V-345.09L391.398 -506.1C393.554 -507.824 393.314 -510.218 390.632 -511.775C387.662 -513.499 382.848 -513.499 379.879 -511.775C376.909 -510.051 376.909 -507.273 379.879 -505.573C382.561 -504.016 386.728 -503.897 389.698 -505.142L594.58 -386.875H532.984L422.508 -450.642C424.663 -452.366 424.424 -454.76 421.741 -456.317C418.772 -458.041 413.958 -458.041 410.988 -456.317C408.019 -454.593 408.019 -451.815 410.988 -450.115C413.671 -448.559 417.838 -448.439 420.807 -449.684L532.337 -385.319L532.528 -385.199H597.526L668.342 -344.324V-264.418L537.773 -189.038V-229.649L618.002 -275.96L618.433 -276.199V-317.314C620.085 -317.409 621.69 -317.816 622.959 -318.559C625.929 -320.283 625.929 -323.06 622.959 -324.761C619.99 -326.485 615.176 -326.485 612.206 -324.761C609.236 -323.037 609.236 -320.259 612.206 -318.559C613.475 -317.816 615.08 -317.433 616.732 -317.314V-277.181L536.504 -230.87L536.073 -230.631V-188.056L505.73 -170.528L472.225 -189.876L451.893 -178.143V-266.813L522.662 -307.664C525.631 -306.418 529.798 -306.562 532.481 -308.095C535.45 -309.819 535.45 -312.596 532.481 -314.296C529.511 -316.021 524.697 -316.021 521.728 -314.296C519.045 -312.74 518.806 -310.345 520.961 -308.621L450.624 -268.01L450.193 -267.77V-231.589L397.29 -262.143V-296.457L512.675 -363.073C515.645 -361.828 519.812 -361.972 522.494 -363.504C525.464 -365.228 525.464 -368.006 522.494 -369.706C519.524 -371.43 514.711 -371.43 511.741 -369.706C509.059 -368.15 508.819 -365.755 510.975 -364.031L395.996 -297.654L395.565 -297.415V-261.138L450.169 -229.601V-177.113L421.214 -160.399L396.739 -174.527V-206.638L359.618 -228.069C361.773 -229.793 361.534 -232.187 358.852 -233.744C355.882 -235.468 351.068 -235.468 348.099 -233.744C345.129 -232.02 345.129 -229.242 348.099 -227.542C350.781 -225.986 354.948 -225.866 357.918 -227.111L395.038 -205.68V-175.533L314.091 -222.274V-292.65L435.919 -362.978L436.35 -363.217V-389.725L367.449 -429.498C369.605 -431.222 369.365 -433.617 366.683 -435.173C363.713 -436.897 358.9 -436.897 355.93 -435.173C352.96 -433.449 352.96 -430.671 355.93 -428.971C358.612 -427.415 362.779 -427.295 365.749 -428.54L434.65 -388.767V-364.223L312.822 -293.895L312.391 -293.655V-221.316L419.538 -159.465L397.888 -146.966L258.937 -227.183V-359.146L218.368 -382.565V-503.897L51.8281 -599.942C52.9537 -601.522 52.4029 -603.414 50.1757 -604.707C47.206 -606.431 42.3923 -606.431 39.4226 -604.707C36.429 -603.007 36.4291 -600.229 39.3987 -598.505Z" fill="#DADADA"/>
</g>
</svg>
