<svg width="60" height="60" viewBox="0 0 60 60" fill="none" xmlns="http://www.w3.org/2000/svg">
<path d="M30.5 54C43.4787 54 54 43.4787 54 30.5C54 17.5213 43.4787 7 30.5 7C17.5213 7 7 17.5213 7 30.5C7 43.4787 17.5213 54 30.5 54Z" fill="url(#paint0_linear_2648_4374)"/>
<path d="M30.5002 47.0991C39.6673 47.0991 47.0986 39.6677 47.0986 30.5007C47.0986 21.3337 39.6673 13.9023 30.5002 13.9023C21.3332 13.9023 13.9019 21.3337 13.9019 30.5007C13.9019 39.6677 21.3332 47.0991 30.5002 47.0991Z" fill="url(#paint1_linear_2648_4374)"/>
<path d="M31.0673 36.7143C28.5571 36.7143 27.5701 35.5933 27.4361 34.1554H24.7554C24.9016 36.824 26.9 38.3228 29.2395 38.8224V41.4665H32.8951V38.8467C35.2712 38.3959 37.1599 37.0189 37.1599 34.521C37.1599 31.0604 34.1989 29.8784 31.4329 29.1595C28.6668 28.4406 27.7773 27.6973 27.7773 26.5397C27.7773 25.2115 29.008 24.2854 31.0673 24.2854C33.2363 24.2854 34.0405 25.3212 34.1136 26.8443H36.8065C36.7212 24.7485 35.4418 22.8232 32.8951 22.2018V19.5332H29.2395V22.1652C26.8756 22.677 24.9747 24.2123 24.9747 26.5641C24.9747 29.3788 27.3021 30.7801 30.7017 31.5965C33.748 32.3276 34.3573 33.3999 34.3573 34.5332C34.3573 35.3739 33.7602 36.7143 31.0673 36.7143Z" fill="white"/>
<defs>
<linearGradient id="paint0_linear_2648_4374" x1="-19.7087" y1="46.9781" x2="59.1065" y2="89.079" gradientUnits="userSpaceOnUse">
<stop stop-color="#F6B4C2"/>
<stop offset="1" stop-color="#F6708E"/>
</linearGradient>
<linearGradient id="paint1_linear_2648_4374" x1="-4.96288" y1="42.1394" x2="50.7054" y2="71.8759" gradientUnits="userSpaceOnUse">
<stop stop-color="#F57B94"/>
<stop offset="1" stop-color="#E3486A"/>
</linearGradient>
</defs>
</svg>
