<svg width="49" height="54" viewBox="0 0 49 54" fill="none" xmlns="http://www.w3.org/2000/svg">
<g clip-path="url(#clip0)">
<path d="M6.53345 54C2.92286 54 0 50.9792 0 47.2475V6.75247C0 3.02084 2.92286 0 6.53345 0L22.8862 0.0197441C37.4241 0.0197441 49.1919 12.3005 49.0009 27.3653C48.8099 42.1931 36.851 54 22.5041 54H6.53345Z" fill="#E13F5E"/>
<path d="M9.81944 42.1931H8.97888C8.52039 42.1931 8.15742 41.8179 8.15742 41.3441V34.5718C8.15742 34.098 8.52039 33.7229 8.97888 33.7229H15.5314C15.9899 33.7229 16.3529 34.098 16.3529 34.5718V35.4406C16.3529 39.1722 13.43 42.1931 9.81944 42.1931Z" fill="white"/>
<path d="M8.97889 21.9159H29.4007C33.0113 21.9159 35.9342 18.8951 35.9342 15.1634V14.3539C35.9342 13.8603 35.5521 13.4655 35.0745 13.4655H14.71C11.0994 13.4655 8.17653 16.4863 8.17653 20.2179V21.0669C8.17653 21.5408 8.5395 21.9159 8.97889 21.9159Z" fill="white"/>
<path d="M8.97888 32.0446H19.6005C23.2111 32.0446 26.134 29.0238 26.134 25.2921V24.4431C26.134 23.9693 25.771 23.5941 25.3125 23.5941H8.97888C8.52039 23.5941 8.15742 23.9693 8.15742 24.4431V31.1956C8.17653 31.6695 8.5395 32.0446 8.97888 32.0446Z" fill="white"/>
</g>
<defs>
<clipPath id="clip0">
<rect width="49" height="54" fill="white"/>
</clipPath>
</defs>
</svg>
