<?xml version="1.0" encoding="utf-8"?>
<svg height="83px" viewBox="0 0 59 83" version="1.1"
xmlns="http://www.w3.org/2000/svg"
xmlns:xlink="http://www.w3.org/1999/xlink">
  <!-- Generator: Sketch 51.1 (57501) - http://www.bohemiancoding.com/sketch -->
  <title>ic-Innovation</title>
  <desc>Created with Sketch.</desc>
  <defs>
    <linearGradient x1="-12.0388617%" y1="1.21379425%"
    x2="155.65304%" y2="90.7901921%" id="linearGradient-1">
      <stop stop-color="#F6B4C2" offset="0%"></stop>
      <stop stop-color="#F6708E" offset="100%"></stop>
    </linearGradient>
  </defs>
  <g id="Page-1" stroke="none" stroke-width="1" fill="none"
  fill-rule="evenodd">
    <g id="Tech" transform="translate(-1233.000000, -2939.000000)">
      <g id="Agile-dwarves"
      transform="translate(0.000000, 2731.000000)">
        <g id="Innovation"
        transform="translate(1081.000000, 152.000000)">
          <g id="ic-Innovation"
          transform="translate(152.000000, 56.000000)">
            <g id="Group-11">
              <g id="light-bulb-2" fill="url(#linearGradient-1)"
              fill-rule="nonzero">
                <path d="M59,29.4445426 C59,37.3896658 55.8455373,44.596852 50.7195353,49.8854015 C46.8257454,53.9194579 44.3120329,59.0604201 43.4741288,64.5457529 C43.1044652,66.9071517 41.0589932,68.653603 38.6438577,68.653603 L20.3331873,68.653603 C17.9426961,68.653603 15.8725799,66.9317496 15.5275605,64.5703508 C14.6650121,59.085018 12.1266554,53.8702621 8.23286547,49.8608036 C3.2054405,44.6460478 0.0756220135,37.5618512 0.00168929335,29.7643153 C-0.170820387,13.3821107 12.8906268,0.123839903 29.3036907,0.000850378881 C45.6921104,-0.122139146 59,13.1115337 59,29.4445426 Z"
                id="XMLID_49_"></path>
              </g>
              <path d="M17.5952381,74 L41.4345052,74" id="Line-5"
              stroke="#E98699" stroke-width="4"
              stroke-linecap="square"></path>
              <path d="M17.5952381,81 L41.4345052,81"
              id="Line-5-Copy" stroke="#E98699" stroke-width="4"
              stroke-linecap="square"></path>
            </g>
            <g id="renewable-energy"
            transform="translate(18.000000, 13.000000)"
            fill="#E03E5E" fill-rule="nonzero">
              <path d="M23.9545399,18.114214 C23.8172858,17.5459845 23.3920379,17.0893155 22.8279359,16.9054369 L14.417376,14.1544347 L20.3905032,2.43430876 C20.7654664,1.69688859 20.5411285,0.80014439 19.8597719,0.317239007 C19.175101,-0.16398456 18.2376357,-0.0916664801 17.6449629,0.4929327 L0.502478706,17.3110909 C0.0822592769,17.72336 -0.0901941142,18.3195077 0.0454600775,18.8861675 C0.182714234,19.454397 0.607962126,19.9110661 1.17206414,20.0949446 L9.58262402,22.8459468 L3.60949683,34.5660728 C3.23453355,35.3034929 3.45887153,36.2002371 4.14022814,36.6831425 C4.82261329,37.1629085 5.75825008,37.0927207 6.35503709,36.5074488 L23.4975213,19.6892906 C23.9177407,19.2770215 24.0901941,18.6808738 23.9545399,18.114214 Z"
              id="Shape"></path>
            </g>
          </g>
        </g>
      </g>
    </g>
  </g>
</svg>
