<svg width="60" height="60" viewBox="0 0 60 60" fill="none" xmlns="http://www.w3.org/2000/svg">
<path fill-rule="evenodd" clip-rule="evenodd" d="M10.449 44.2231V48.0573C10.449 48.6426 10.9134 49.1176 11.4855 49.1176H26.0657C26.6378 49.1176 27.1021 48.6426 27.1021 48.0573V44.3207H31.1731C32.8023 44.3207 34.133 42.9591 34.133 41.2923V35.9906L36.5168 35.944C37.462 35.927 38.0589 34.8921 37.6154 34.0396L35.0119 29.0178C34.4315 27.8981 34.1289 26.6511 34.1289 25.3872C34.1289 17.4007 27.7695 10.9368 19.9466 11.0005C12.1487 11.0641 5.92197 17.5577 6.00074 25.5356C6.02561 27.8345 6.57698 30.006 7.53462 31.9231C9.4458 35.7361 10.449 39.9478 10.449 44.2231Z" fill="url(#paint0_linear_2648_4394)"/>
<path opacity="0.8" fill-rule="evenodd" clip-rule="evenodd" d="M49.551 44.2231V48.0573C49.551 48.6426 49.0866 49.1176 48.5145 49.1176H33.9343C33.3622 49.1176 32.8979 48.6426 32.8979 48.0573V44.3207H28.8269C27.1977 44.3207 25.867 42.9591 25.867 41.2923V35.9906L23.4832 35.944C22.538 35.927 21.9411 34.8921 22.3846 34.0396L24.9881 29.0178C25.5685 27.8981 25.8711 26.6511 25.8711 25.3872C25.8711 17.4007 32.2305 10.9368 40.0534 11.0005C47.8513 11.0641 54.078 17.5577 53.9993 25.5356C53.9744 27.8345 53.423 30.006 52.4654 31.9231C50.5542 35.7361 49.551 39.9478 49.551 44.2231Z" fill="url(#paint1_linear_2648_4394)"/>
<defs>
<linearGradient id="paint0_linear_2648_4394" x1="-12.051" y1="43.4228" x2="45.092" y2="68.8596" gradientUnits="userSpaceOnUse">
<stop stop-color="#F6B4C2"/>
<stop offset="1" stop-color="#F6708E"/>
</linearGradient>
<linearGradient id="paint1_linear_2648_4394" x1="72.051" y1="43.4228" x2="14.908" y2="68.8596" gradientUnits="userSpaceOnUse">
<stop stop-color="#F57B94"/>
<stop offset="1" stop-color="#E3486A"/>
</linearGradient>
</defs>
</svg>
