<svg width="60" height="60" viewBox="0 0 60 60" fill="none" xmlns="http://www.w3.org/2000/svg">
<path d="M25.6113 11C27.2319 11 28.7216 11.5711 29.8867 12.5225V20.8232C25.1483 21.4772 21.499 25.5417 21.499 30.46C21.4991 35.3781 25.1484 39.4417 29.8867 40.0957V48.2803C28.7216 49.2316 27.2319 49.8027 25.6113 49.8027C22.6152 49.8027 20.0005 47.8147 19.1514 45.0361C15.628 44.6331 12.8819 41.6487 12.8818 38.0371C12.8818 37.4478 12.9551 36.8689 13.0986 36.3066C11.1876 35.0072 10 32.8235 10 30.4824C10.0001 28.2425 11.0399 26.1965 12.7842 24.8799C12.3873 24.0828 12.1758 23.1993 12.1758 22.2988C12.1758 19.0926 14.7984 16.4854 18.0215 16.4854C18.3359 16.4854 18.6505 16.5105 18.96 16.5605C19.512 13.406 22.2843 11 25.6113 11Z" fill="url(#paint0_linear_2648_4348)"/>
<path d="M36.3887 11C39.7156 11.0001 42.488 13.4061 43.04 16.5605C43.3495 16.5105 43.6641 16.4854 43.9785 16.4854C47.2015 16.4855 49.8242 19.0927 49.8242 22.2988C49.8242 23.1993 49.6127 24.0828 49.2158 24.8799C50.96 26.1965 51.9999 28.2425 52 30.4824C52 32.8234 50.8124 35.0072 48.9014 36.3066C49.0449 36.8689 49.1172 37.4478 49.1172 38.0371C49.1171 41.6487 46.372 44.6331 42.8486 45.0361C41.9996 47.8146 39.3848 49.8026 36.3887 49.8027C34.7681 49.8027 33.2784 49.2316 32.1133 48.2803V40.1475C37.0723 39.7005 40.959 35.5354 40.959 30.46C40.959 25.3845 37.0724 21.2185 32.1133 20.7715V12.5225C33.2784 11.5712 34.7681 11 36.3887 11Z" fill="url(#paint1_linear_2648_4348)"/>
<path fill-rule="evenodd" clip-rule="evenodd" d="M38.2906 30.9224L37.4079 30.8654C37.4165 30.7312 37.4209 30.5957 37.4209 30.4591C37.4209 30.3225 37.4165 30.1871 37.4079 30.0529L38.2906 29.9959C38.3005 30.149 38.3055 30.3035 38.3055 30.4591C38.3055 30.6148 38.3005 30.7693 38.2906 30.9224ZM38.1708 29.0781L37.3031 29.2498C37.2502 28.9825 37.1801 28.7215 37.0941 28.468L37.9317 28.1837C38.0302 28.4738 38.1103 28.7724 38.1708 29.0781ZM37.5771 27.3287L36.7841 27.7205C36.6641 27.4775 36.5284 27.2434 36.3786 27.0195L37.1136 26.5274C37.2848 26.7832 37.4398 27.0508 37.5771 27.3287ZM36.5495 25.7934L35.8847 26.3768C35.7063 26.1735 35.5148 25.982 35.3115 25.8036L35.8949 25.1388C36.1271 25.3425 36.3458 25.5612 36.5495 25.7934ZM35.1609 24.5747L34.6688 25.3097C34.4449 25.1599 34.2108 25.0242 33.9678 24.9042L34.3596 24.1112C34.6375 24.2485 34.9051 24.4035 35.1609 24.5747ZM33.5046 23.7566L33.2203 24.5942C32.9668 24.5082 32.7058 24.4381 32.4385 24.3852L32.6102 23.5175C32.9159 23.578 33.2145 23.6581 33.5046 23.7566ZM31.6924 23.3977L31.6354 24.2804C31.5012 24.2718 31.3658 24.2674 31.2292 24.2674C31.0926 24.2674 30.9571 24.2718 30.8229 24.2804L30.7659 23.3977C30.919 23.3878 31.0735 23.3828 31.2292 23.3828C31.3848 23.3828 31.5393 23.3878 31.6924 23.3977ZM29.8481 23.5175L30.0198 24.3852C29.7525 24.4381 29.4916 24.5082 29.238 24.5942L28.9537 23.7566C29.2439 23.6581 29.5425 23.578 29.8481 23.5175ZM28.0987 24.1112L28.4905 24.9042C28.2475 25.0242 28.0134 25.1599 27.7895 25.3097L27.2974 24.5747C27.5532 24.4035 27.8208 24.2485 28.0987 24.1112ZM26.5634 25.1388L27.1469 25.8036C26.9436 25.982 26.752 26.1735 26.5736 26.3768L25.9088 25.7934C26.1125 25.5612 26.3312 25.3425 26.5634 25.1388ZM25.3447 26.5274L26.0798 27.0195C25.9299 27.2434 25.7943 27.4775 25.6742 27.7205L24.8812 27.3287C25.0185 27.0508 25.1735 26.7832 25.3447 26.5274ZM24.5266 28.1837L25.3642 28.468C25.2782 28.7215 25.2081 28.9825 25.1552 29.2498L24.2875 29.0781C24.348 28.7724 24.4282 28.4738 24.5266 28.1837ZM24.1678 29.9959C24.1579 30.149 24.1528 30.3035 24.1528 30.4591C24.1528 30.6148 24.1579 30.7693 24.1678 30.9224L25.0505 30.8654C25.0418 30.7312 25.0374 30.5957 25.0374 30.4591C25.0374 30.3225 25.0418 30.1871 25.0505 30.0529L24.1678 29.9959ZM24.2875 31.8402L25.1552 31.6685C25.2081 31.9358 25.2782 32.1967 25.3642 32.4503L24.5266 32.7346C24.4282 32.4444 24.348 32.1458 24.2875 31.8402ZM24.8812 33.5896L25.6742 33.1978C25.7943 33.4408 25.9299 33.6749 26.0798 33.8988L25.3447 34.3909C25.1735 34.1351 25.0185 33.8675 24.8812 33.5896ZM25.9088 35.1249L26.5736 34.5414C26.752 34.7447 26.9436 34.9363 27.1469 35.1147L26.5634 35.7795C26.3312 35.5758 26.1125 35.3571 25.9088 35.1249ZM27.2974 36.3436L27.7895 35.6085C28.0134 35.7584 28.2475 35.894 28.4905 36.0141L28.0987 36.8071C27.8208 36.6698 27.5532 36.5148 27.2974 36.3436ZM28.9537 37.1617L29.238 36.3241C29.4916 36.4101 29.7525 36.4802 30.0198 36.5331L29.8481 37.4008C29.5425 37.3403 29.2439 37.2601 28.9537 37.1617ZM30.7659 37.5205L30.8229 36.6378C30.9571 36.6465 31.0926 36.6509 31.2292 36.6509C31.3658 36.6509 31.5012 36.6465 31.6354 36.6378L31.6924 37.5205C31.5393 37.5304 31.3848 37.5355 31.2292 37.5355C31.0735 37.5355 30.919 37.5304 30.7659 37.5205ZM32.6102 37.4008L32.4385 36.5331C32.7058 36.4802 32.9668 36.4101 33.2203 36.3241L33.5046 37.1617C33.2145 37.2601 32.9159 37.3403 32.6102 37.4008ZM34.3596 36.8071L33.9678 36.0141C34.2108 35.894 34.4449 35.7584 34.6688 35.6085L35.1609 36.3436C34.9051 36.5148 34.6375 36.6698 34.3596 36.8071ZM35.8949 35.7795L35.3115 35.1147C35.5148 34.9363 35.7063 34.7447 35.8847 34.5414L36.5495 35.1249C36.3458 35.3571 36.1271 35.5758 35.8949 35.7795ZM37.1136 34.3909L36.3786 33.8988C36.5284 33.6749 36.6641 33.4408 36.7841 33.1978L37.5771 33.5896C37.4398 33.8675 37.2848 34.1351 37.1136 34.3909ZM37.9317 32.7346L37.0941 32.4503C37.1801 32.1967 37.2502 31.9358 37.3031 31.6685L38.1708 31.8402C38.1103 32.1458 38.0302 32.4444 37.9317 32.7346Z" fill="#E98699"/>
<path fill-rule="evenodd" clip-rule="evenodd" d="M31.2291 33.9982C33.1832 33.9982 34.7672 32.4141 34.7672 30.46C34.7672 28.506 33.1832 26.9219 31.2291 26.9219C29.275 26.9219 27.6909 28.506 27.6909 30.46C27.6909 32.4141 29.275 33.9982 31.2291 33.9982Z" fill="#E03E5E"/>
<defs>
<linearGradient id="paint0_linear_2648_4348" x1="-0.928596" y1="44.3779" x2="38.9468" y2="55.2946" gradientUnits="userSpaceOnUse">
<stop stop-color="#F57B94"/>
<stop offset="1" stop-color="#E3486A"/>
</linearGradient>
<linearGradient id="paint1_linear_2648_4348" x1="20.8978" y1="44.3779" x2="60.7732" y2="55.2946" gradientUnits="userSpaceOnUse">
<stop stop-color="#FBA4B5"/>
<stop offset="1" stop-color="#E3486A"/>
</linearGradient>
</defs>
</svg>
