<?xml version="1.0" encoding="UTF-8"?>
<svg width="1180px" viewBox="0 0 1180 312" version="1.1" xmlns="http://www.w3.org/2000/svg" xmlns:xlink="http://www.w3.org/1999/xlink">
    <!-- Generator: Sketch 51.1 (57501) - http://www.bohemiancoding.com/sketch -->
    <title>Group 10</title>
    <desc>Created with Sketch.</desc>
    <defs>
        <linearGradient x1="50%" y1="-165.810954%" x2="50%" y2="83.6252918%" id="linearGradient-1">
            <stop stop-color="#FFD4D4" offset="0%"></stop>
            <stop stop-color="#FCB9C8" stop-opacity="0" offset="100%"></stop>
        </linearGradient>
        <polygon id="path-2" points="0.225600182 0.0248814186 43.9283163 0.0248814186 43.9283163 8.26892479 0.225600182 8.26892479"></polygon>
        <linearGradient x1="-12.0388617%" y1="1.21379425%" x2="155.65304%" y2="90.7901921%" id="linearGradient-4">
            <stop stop-color="#F57B94" offset="0%"></stop>
            <stop stop-color="#E3486A" offset="100%"></stop>
        </linearGradient>
        <polygon id="path-5" points="0 0 36.2155658 0 36.2155658 8.2938062 0 8.2938062"></polygon>
        <polygon id="path-7" points="0 0 12.5361574 0 12.5361574 8.2938062 0 8.2938062"></polygon>
        <polygon id="path-9" points="0 0 28 0 28 6 0 6"></polygon>
        <polygon id="path-11" points="0 0 17.6183833 0 17.6183833 6.45073816 0 6.45073816"></polygon>
        <polygon id="path-13" points="0 0 21.9222034 0 21.9222034 6.45073816 0 6.45073816"></polygon>
        <polygon id="path-15" points="0 0 26 0 26 5 0 5"></polygon>
        <polygon id="path-17" points="0 0 17 0 17 6 0 6"></polygon>
        <polygon id="path-19" points="0 0 12 0 12 6 0 6"></polygon>
        <polygon id="path-21" points="0 0 31 0 31 5 0 5"></polygon>
        <polygon id="path-23" points="0 0 18 0 18 6 0 6"></polygon>
        <polygon id="path-25" points="0 0 23.915131 0 23.915131 5.52920414 0 5.52920414"></polygon>
        <polygon id="path-27" points="0 0 17 0 17 5 0 5"></polygon>
        <polygon id="path-29" points="0 0 29.3639722 0 29.3639722 5.52920414 0 5.52920414"></polygon>
        <polygon id="path-31" points="0 0 23.915131 0 23.915131 5.52920414 0 5.52920414"></polygon>
        <polygon id="path-33" points="0 0 17 0 17 6 0 6"></polygon>
        <polygon id="path-35" points="0 0 29.3639722 0 29.3639722 5.52920414 0 5.52920414"></polygon>
        <polygon id="path-37" points="0 0 23.915131 0 23.915131 5.52920414 0 5.52920414"></polygon>
        <polygon id="path-39" points="0 0 17 0 17 5 0 5"></polygon>
        <polygon id="path-41" points="0 0 10 0 10 6 0 6"></polygon>
        <polygon id="path-43" points="0 0 23.915131 0 23.915131 5.52920414 0 5.52920414"></polygon>
    </defs>
    <g id="Page-1" stroke="none" stroke-width="1" fill="none" fill-rule="evenodd">
        <g id="Tech" transform="translate(-139.000000, -401.000000)">
            <g id="Group-10" transform="translate(140.000000, 401.000000)">
                <g id="Group-9">
                    <path d="M4.16624157,303 C61.2891993,303 123.399649,181 190.949824,172.5 C258.5,164 281.394507,217.5 356.198381,217.5 C431.002254,217.5 459.290298,91 567.009296,91 C674.728295,91 689.984724,190 774.420035,190 C858.855347,190 869.59831,135 950.549155,141.5 C1031.5,148 1099.47687,303 1160,303" id="Path-6" stroke="#E98699" fill="url(#linearGradient-1)"></path>
                    <circle id="Oval-4" stroke="#FFFFFF" stroke-width="3" fill="#E98699" cx="8" cy="303" r="7"></circle>
                    <circle id="Oval-4-Copy-8" stroke="#FFFFFF" stroke-width="3" fill="#E98699" cx="1159" cy="302" r="7"></circle>
                    <circle id="Oval-4-Copy" stroke="#FFFFFF" stroke-width="3" fill="#E98699" cx="199" cy="171" r="7"></circle>
                    <circle id="Oval-4-Copy-3" stroke="#FFFFFF" stroke-width="3" fill="#E98699" cx="359" cy="216" r="7"></circle>
                    <circle id="Oval-4-Copy-5" stroke="#FFFFFF" stroke-width="3" fill="#E98699" cx="777" cy="190" r="7"></circle>
                    <circle id="Oval-4-Copy-6" stroke="#FFFFFF" stroke-width="3" fill="#E98699" cx="944" cy="141" r="7"></circle>
                    <g id="Group-3" transform="translate(567.000000, 0.000000)">
                        <g id="Group-84">
                            <mask id="mask-3" fill="white">
                                <use xlink:href="#path-2"></use>
                            </mask>
                            <g id="Clip-83"></g>
                            <polygon id="Fill-82" fill="url(#linearGradient-4)" mask="url(#mask-3)" points="0.225600182 8.26892479 43.9283163 8.26892479 43.9283163 0.0248814186 0.225600182 0.0248814186"></polygon>
                        </g>
                        <g id="Group-87" transform="translate(0.000000, 13.823010)">
                            <mask id="mask-6" fill="white">
                                <use xlink:href="#path-5"></use>
                            </mask>
                            <g id="Clip-86"></g>
                            <polygon id="Fill-85" fill="url(#linearGradient-4)" mask="url(#mask-6)" points="0 8.2938062 36.2155658 8.2938062 36.2155658 0 0 0"></polygon>
                        </g>
                        <g id="Group-90" transform="translate(0.000000, 29.028322)">
                            <mask id="mask-8" fill="white">
                                <use xlink:href="#path-7"></use>
                            </mask>
                            <g id="Clip-89"></g>
                            <polygon id="Fill-88" fill="url(#linearGradient-4)" mask="url(#mask-8)" points="0 8.2938062 12.5361574 8.2938062 12.5361574 0 0 0"></polygon>
                        </g>
                    </g>
                    <g id="Group-3-Copy-2" transform="translate(193.000000, 119.000000)">
                        <g id="Group-84">
                            <mask id="mask-10" fill="white">
                                <use xlink:href="#path-9"></use>
                            </mask>
                            <g id="Clip-83"></g>
                            <polygon id="Fill-82" fill="#FCE9F0" mask="url(#mask-10)" points="0 6 28 6 28 0 0 0"></polygon>
                        </g>
                        <g id="Group-87" transform="translate(0.000000, 10.000000)">
                            <mask id="mask-12" fill="white">
                                <use xlink:href="#path-11"></use>
                            </mask>
                            <g id="Clip-86"></g>
                            <polygon id="Fill-85" fill="#FCE9F0" mask="url(#mask-12)" points="0 6.45073816 17.6183833 6.45073816 17.6183833 0 0 0"></polygon>
                        </g>
                        <g id="Group-90" transform="translate(0.000000, 22.000000)">
                            <mask id="mask-14" fill="white">
                                <use xlink:href="#path-13"></use>
                            </mask>
                            <g id="Clip-89"></g>
                            <polygon id="Fill-88" fill="#FCE9F0" mask="url(#mask-14)" points="0 6.45073816 21.9222034 6.45073816 21.9222034 0 0 0"></polygon>
                        </g>
                    </g>
                    <g id="Group-3-Copy-3" transform="translate(1153.000000, 252.000000)">
                        <g id="Group-84">
                            <mask id="mask-16" fill="white">
                                <use xlink:href="#path-15"></use>
                            </mask>
                            <g id="Clip-83"></g>
                            <polygon id="Fill-82" fill="#FCE9F0" mask="url(#mask-16)" points="0 5 26 5 26 0 0 0"></polygon>
                        </g>
                        <g id="Group-87" transform="translate(0.000000, 9.000000)">
                            <mask id="mask-18" fill="white">
                                <use xlink:href="#path-17"></use>
                            </mask>
                            <g id="Clip-86"></g>
                            <polygon id="Fill-85" fill="#FCE9F0" mask="url(#mask-18)" points="0 6 17 6 17 0 0 0"></polygon>
                        </g>
                        <g id="Group-90" transform="translate(0.000000, 19.000000)">
                            <mask id="mask-20" fill="white">
                                <use xlink:href="#path-19"></use>
                            </mask>
                            <g id="Clip-89"></g>
                            <polygon id="Fill-88" fill="#FCE9F0" mask="url(#mask-20)" points="0 6 12 6 12 0 0 0"></polygon>
                        </g>
                    </g>
                    <g id="Group-3-Copy-4" transform="translate(938.000000, 94.000000)">
                        <g id="Group-84">
                            <mask id="mask-22" fill="white">
                                <use xlink:href="#path-21"></use>
                            </mask>
                            <g id="Clip-83"></g>
                            <polygon id="Fill-82" fill="#FCE9F0" mask="url(#mask-22)" points="0 5 31 5 31 0 0 0"></polygon>
                        </g>
                        <g id="Group-87" transform="translate(0.000000, 9.000000)">
                            <mask id="mask-24" fill="white">
                                <use xlink:href="#path-23"></use>
                            </mask>
                            <g id="Clip-86"></g>
                            <polygon id="Fill-85" fill="#FCE9F0" mask="url(#mask-24)" points="0 6 18 6 18 0 0 0"></polygon>
                        </g>
                        <g id="Group-90" transform="translate(0.000000, 19.000000)">
                            <mask id="mask-26" fill="white">
                                <use xlink:href="#path-25"></use>
                            </mask>
                            <g id="Clip-89"></g>
                            <polygon id="Fill-88" fill="#FCE9F0" mask="url(#mask-26)" points="0 5.52920414 23.915131 5.52920414 23.915131 0 0 0"></polygon>
                        </g>
                    </g>
                    <g id="Group-3-Copy-5" transform="translate(0.000000, 253.000000)">
                        <g id="Group-84">
                            <mask id="mask-28" fill="white">
                                <use xlink:href="#path-27"></use>
                            </mask>
                            <g id="Clip-83"></g>
                            <polygon id="Fill-82" fill="#FCE9F0" mask="url(#mask-28)" points="0 5 17 5 17 0 0 0"></polygon>
                        </g>
                        <g id="Group-87" transform="translate(0.000000, 9.000000)">
                            <mask id="mask-30" fill="white">
                                <use xlink:href="#path-29"></use>
                            </mask>
                            <g id="Clip-86"></g>
                            <polygon id="Fill-85" fill="#FCE9F0" mask="url(#mask-30)" points="0 5.52920414 29.3639722 5.52920414 29.3639722 0 0 0"></polygon>
                        </g>
                        <g id="Group-90" transform="translate(0.000000, 19.000000)">
                            <mask id="mask-32" fill="white">
                                <use xlink:href="#path-31"></use>
                            </mask>
                            <g id="Clip-89"></g>
                            <polygon id="Fill-88" fill="#FCE9F0" mask="url(#mask-32)" points="0 5.52920414 23.915131 5.52920414 23.915131 0 0 0"></polygon>
                        </g>
                    </g>
                    <g id="Group-3-Copy-6" transform="translate(354.000000, 163.000000)">
                        <g id="Group-84">
                            <mask id="mask-34" fill="white">
                                <use xlink:href="#path-33"></use>
                            </mask>
                            <g id="Clip-83"></g>
                            <polygon id="Fill-82" fill="#FCE9F0" mask="url(#mask-34)" points="0 6 17 6 17 0 0 0"></polygon>
                        </g>
                        <g id="Group-87" transform="translate(0.000000, 10.000000)">
                            <mask id="mask-36" fill="white">
                                <use xlink:href="#path-35"></use>
                            </mask>
                            <g id="Clip-86"></g>
                            <polygon id="Fill-85" fill="#FCE9F0" mask="url(#mask-36)" points="0 5.52920414 29.3639722 5.52920414 29.3639722 0 0 0"></polygon>
                        </g>
                        <g id="Group-90" transform="translate(0.000000, 20.000000)">
                            <mask id="mask-38" fill="white">
                                <use xlink:href="#path-37"></use>
                            </mask>
                            <g id="Clip-89"></g>
                            <polygon id="Fill-88" fill="#FCE9F0" mask="url(#mask-38)" points="0 5.52920414 23.915131 5.52920414 23.915131 0 0 0"></polygon>
                        </g>
                    </g>
                    <g id="Group-3-Copy-7" transform="translate(774.000000, 143.000000)">
                        <g id="Group-84">
                            <mask id="mask-40" fill="white">
                                <use xlink:href="#path-39"></use>
                            </mask>
                            <g id="Clip-83"></g>
                            <polygon id="Fill-82" fill="#FCE9F0" mask="url(#mask-40)" points="0 5 17 5 17 0 0 0"></polygon>
                        </g>
                        <g id="Group-87" transform="translate(0.000000, 9.000000)">
                            <mask id="mask-42" fill="white">
                                <use xlink:href="#path-41"></use>
                            </mask>
                            <g id="Clip-86"></g>
                            <polygon id="Fill-85" fill="#FCE9F0" mask="url(#mask-42)" points="0 6 10 6 10 0 0 0"></polygon>
                        </g>
                        <g id="Group-90" transform="translate(0.000000, 19.000000)">
                            <mask id="mask-44" fill="white">
                                <use xlink:href="#path-43"></use>
                            </mask>
                            <g id="Clip-89"></g>
                            <polygon id="Fill-88" fill="#FCE9F0" mask="url(#mask-44)" points="0 5.52920414 23.915131 5.52920414 23.915131 0 0 0"></polygon>
                        </g>
                    </g>
                    <path d="M568.5,75.5 L568.5,45.4687805" id="Line-4" stroke="#E98699" stroke-linecap="square" stroke-dasharray="2"></path>
                </g>
                <circle id="Oval-4-Copy-4" stroke="#FFFFFF" stroke-width="3" fill="#E98699" cx="567" cy="89" r="7"></circle>
            </g>
        </g>
    </g>
</svg>
