
<svg width="64px" height="64px" viewBox="0 0 64 64" version="1.1" xmlns="http://www.w3.org/2000/svg" xmlns:xlink="http://www.w3.org/1999/xlink">
    <defs>
        <linearGradient x1="34.3464592%" y1="1.21379425%" x2="76.6581966%" y2="90.7901921%" id="linearGradient-1">
            <stop stop-color="#FBA4B5" offset="0%"></stop>
            <stop stop-color="#E3486A" offset="100%"></stop>
        </linearGradient>
        <linearGradient x1="-12.0388617%" y1="37.6944264%" x2="281.470071%" y2="88.7247816%" id="linearGradient-2">
            <stop stop-color="#F6B4C2" offset="0%"></stop>
            <stop stop-color="#F6708E" offset="100%"></stop>
        </linearGradient>
        <linearGradient x1="34.3542461%" y1="1.21379425%" x2="76.6449355%" y2="90.7901921%" id="linearGradient-3">
            <stop stop-color="#FBA4B5" offset="0%"></stop>
            <stop stop-color="#E3486A" offset="100%"></stop>
        </linearGradient>
        <linearGradient x1="-12.0388617%" y1="37.6972146%" x2="281.470071%" y2="88.7160075%" id="linearGradient-4">
            <stop stop-color="#F6B4C2" offset="0%"></stop>
            <stop stop-color="#F6708E" offset="100%"></stop>
        </linearGradient>
        <linearGradient x1="-12.0388617%" y1="1.21379425%" x2="155.65304%" y2="90.7901921%" id="linearGradient-5">
            <stop stop-color="#F57B94" offset="0%"></stop>
            <stop stop-color="#E3486A" offset="100%"></stop>
        </linearGradient>
    </defs>
    <g id="Website" stroke="none" stroke-width="1" fill="none" fill-rule="evenodd">
        <g id="About-us" transform="translate(-1088.000000, -1168.000000)">
            <g id="Padding-Group-9">
                <g transform="translate(0.000000, 880.000000)">
                    <g id="Stacked-Group" transform="translate(140.000000, 83.000000)">
                        <g id="Stacked-Group-6">
                            <g id="We-stand-for" transform="translate(0.000000, 165.000000)">
                                <g id="Sustainable" transform="translate(800.000000, 0.000000)">
                                    <g id="circular-graphic-of-business-cycle-or-circuit" transform="translate(148.000000, 40.000000)">
                                        <path d="M61.1793109,20.3786139 L52.9173545,24.290598 C56.225204,31.4381941 55.2084277,40.0899802 49.8391446,46.303303 L46.191792,42.6558477 C45.9965326,42.4605829 45.6799501,42.4605784 45.4846853,42.6558378 C45.390914,42.7496064 45.3382337,42.8767855 45.3382337,43.0093962 L45.3382337,57.4633822 L59.7922437,57.4633822 C60.0683861,57.4633822 60.2922437,57.2395246 60.2922437,56.9633822 C60.2922437,56.8307739 60.2395653,56.703597 60.1457971,56.6098288 L56.3378693,52.801901 C64.503002,43.7824634 66.1080713,30.9226455 61.1793109,20.3786139 Z" id="Path" fill="url(#linearGradient-1)" fill-rule="nonzero"></path>
                                        <path d="M43.5881822,61.1766495 L39.6726495,52.9182416 C32.528095,56.2291327 23.8727604,55.2093149 17.6600713,49.8401584 L21.3074578,46.1926692 C21.5027172,45.9974043 21.5027127,45.6808218 21.3074478,45.4855624 C21.2136801,45.3917973 21.0865052,45.3391208 20.9538994,45.3391208 L6.49986535,45.3391208 L6.49986535,59.7931308 C6.49986535,60.0692732 6.72372297,60.2931308 6.99986535,60.2931308 C7.13247359,60.2931308 7.25965055,60.2404524 7.35341874,60.1466842 L11.1613465,56.3387564 C20.1814178,64.5032554 33.0413624,66.1083248 43.5881822,61.1766495 Z" id="Path" fill="url(#linearGradient-2)" opacity="0.75"></path>
                                        <path d="M14.1244832,17.6603248 L17.7718407,21.3076823 C17.9671028,21.5029444 18.2836853,21.5029444 18.4789474,21.3076823 C18.5727156,21.2139141 18.6253941,21.0867371 18.6253941,20.9541289 L18.6253941,6.50011881 L4.65246133,6.50011881 C4.37631895,6.50011881 4.15246133,6.72397644 4.15246133,7.00011881 C4.15246133,7.12112019 4.19634065,7.23801641 4.27596232,7.32913021 L7.62449109,11.1609663 C-0.536332673,20.1847129 -2.14152871,33.0445307 2.78723168,43.5886891 L11.0461465,39.6731564 C7.73538218,32.5283485 8.7552,23.8731406 14.1244832,17.6603248 Z" id="Path" fill="url(#linearGradient-3)" fill-rule="nonzero"></path>
                                        <path d="M56.610209,3.81745042 L52.8029149,7.62474455 C43.7791683,-0.535952475 30.9193505,-2.14114851 20.3753188,2.78761188 L24.2903446,11.0460198 C31.4380673,7.7381703 40.0902337,8.75494653 46.3029228,14.1242297 L42.6555653,17.7715872 C42.4603031,17.9668493 42.4603031,18.2834318 42.6555653,18.478694 C42.7493335,18.5724622 42.8765104,18.6251406 43.0091187,18.6251406 L57.4637624,18.6251406 L57.4637624,4.17100381 C57.4637624,3.89486144 57.2399048,3.67100381 56.9637624,3.67100381 C56.8311541,3.67100381 56.7039772,3.72368223 56.610209,3.81745042 Z" id="Path" fill="url(#linearGradient-4)" opacity="0.75"></path>
                                        <path d="M31.981497,44.4938139 C38.8917188,44.4938139 44.4935604,38.8919723 44.4935604,31.9817505 C44.4935604,25.0715287 38.8917188,19.4696871 31.981497,19.4696871 C25.0712752,19.4696871 19.4694337,25.0715287 19.4694337,31.9817505 C19.4694337,38.8919723 25.0712752,44.4938139 31.981497,44.4938139 Z" id="Oval" fill="url(#linearGradient-5)"></path>
                                    </g>
                                </g>
                            </g>
                        </g>
                    </g>
                </g>
            </g>
        </g>
    </g>
</svg>
