<svg viewBox="0 0 32 32" fill="none" xmlns="http://www.w3.org/2000/svg">
  <path
    d="M20.595 7.78874L17.5022 11.0445L20.5201 19.9079C20.6199 20.1508 20.6864 20.3216 20.7197 20.4202C20.7529 20.5189 20.7571 20.6289 20.7321 20.7503C20.7072 20.8718 20.6365 20.9856 20.5201 21.0919L16.6292 25.3495C16.4629 25.5164 16.2509 25.5999 15.9932 25.5999C15.7355 25.5999 15.5151 25.5164 15.3322 25.3495L11.4662 21.0919C11.3 20.8945 11.221 20.7314 11.2293 20.6024C11.2376 20.4733 11.3166 20.2419 11.4662 19.9079L14.4842 11.0218L11.4164 7.78874C11.2002 7.6066 11.1462 7.32959 11.2542 6.95771C11.3623 6.58584 11.5993 6.3999 11.9651 6.3999H20.0712C20.437 6.3999 20.6656 6.58584 20.7571 6.95771C20.8485 7.32959 20.7945 7.6066 20.595 7.78874Z"
    stroke="currentColor" stroke-width="3" />
</svg>
