<?xml version="1.0" encoding="utf-8"?>
<svg width="46" height="37" viewBox="0 0 46 37" fill="none"
xmlns="http://www.w3.org/2000/svg">
  <path fill-rule="evenodd" clip-rule="evenodd"
  d="M18.4025 0.631348C28.5482 0.631348 36.7638 6.38703 36.7638 13.4999C36.7638 20.6129 28.5482 26.3685 18.4025 26.3685C16.8116 26.3685 15.2728 26.2177 13.8122 25.9664C11.6474 27.4493 9.1958 28.5301 6.56158 29.1835C5.85738 29.3595 5.10102 29.4851 4.31858 29.5857C3.84912 29.5857 3.48398 29.2841 3.40573 28.8568C3.30141 28.3792 3.64047 28.0776 3.92736 27.7509C4.94453 26.645 6.09211 25.6648 6.97888 23.5787C2.7537 21.2161 0.0412369 17.5716 0.0412369 13.4999C0.0412369 6.38703 8.25687 0.631348 18.4025 0.631348Z"
  fill="url(#paint0_linear)" />
  <path opacity="0.766853" fill-rule="evenodd" clip-rule="evenodd"
  d="M27.2553 7.69336C17.2908 7.69336 9.22188 13.3351 9.22188 20.3073C9.22188 27.2794 17.2908 32.9212 27.2553 32.9212C28.8178 32.9212 30.3292 32.7734 31.7636 32.527C33.8897 33.9806 36.2976 35.0399 38.8848 35.6805C39.5764 35.853 40.3192 35.9761 41.0877 36.0747H41.1646C41.5488 36.0747 41.9074 35.779 41.9843 35.3602C42.0867 34.8921 41.7537 34.5965 41.472 34.2762C40.4729 33.1922 39.3459 32.2314 38.4749 30.1865C42.6247 27.8707 45.2887 24.2984 45.2887 20.3073C45.2887 13.3351 37.2198 7.69336 27.2553 7.69336Z"
  fill="url(#paint1_linear)" />
  <defs>
    <linearGradient id="paint0_linear" x1="-20.8271" y1="25.2598"
    x2="33.4243" y2="62.0145" gradientUnits="userSpaceOnUse">
      <stop stop-color="#F57B94" />
      <stop offset="1" stop-color="#E3486A" />
    </linearGradient>
    <linearGradient id="paint1_linear" x1="65.7844" y1="31.8344"
    x2="12.5678" y2="67.9591" gradientUnits="userSpaceOnUse">
      <stop stop-color="#F6B4C2" />
      <stop offset="1" stop-color="#F6708E" />
    </linearGradient>
  </defs>
</svg>
