<svg width="64" height="64" viewBox="0 0 64 64" fill="none" xmlns="http://www.w3.org/2000/svg">
<rect width="64" height="64" rx="16" fill="url(#paint0_linear_2670_1169)"/>
<path d="M32.4001 51.1996C42.7831 51.1996 51.2001 42.7826 51.2001 32.3996C51.2001 22.0167 42.7831 13.5996 32.4001 13.5996C22.0171 13.5996 13.6001 22.0167 13.6001 32.3996C13.6001 42.7826 22.0171 51.1996 32.4001 51.1996Z" fill="url(#paint1_linear_2670_1169)"/>
<path d="M32.4003 45.6785C39.7339 45.6785 45.679 39.7334 45.679 32.3998C45.679 25.0662 39.7339 19.1211 32.4003 19.1211C25.0667 19.1211 19.1216 25.0662 19.1216 32.3998C19.1216 39.7334 25.0667 45.6785 32.4003 45.6785Z" fill="url(#paint2_linear_2670_1169)"/>
<path d="M32.8542 37.3718C30.8461 37.3718 30.0565 36.475 29.9493 35.3247H27.8047C27.9217 37.4596 29.5204 38.6586 31.392 39.0583V41.1736H34.3165V39.0778C36.2173 38.7171 37.7283 37.6155 37.7283 35.6172C37.7283 32.8487 35.3595 31.9031 33.1467 31.328C30.9338 30.7529 30.2222 30.1582 30.2222 29.2321C30.2222 28.1696 31.2068 27.4287 32.8542 27.4287C34.5894 27.4287 35.2328 28.2573 35.2913 29.4758H37.4456C37.3774 27.7992 36.3538 26.259 34.3165 25.7618V23.627H31.392V25.7326C29.5009 26.142 27.9802 27.3702 27.9802 29.2516C27.9802 31.5035 29.8421 32.6245 32.5618 33.2776C34.9988 33.8625 35.4862 34.7203 35.4862 35.6269C35.4862 36.2995 35.0086 37.3718 32.8542 37.3718Z" fill="#E13F5E"/>
<defs>
<linearGradient id="paint0_linear_2670_1169" x1="-36.3693" y1="54.4382" x2="70.9535" y2="111.767" gradientUnits="userSpaceOnUse">
<stop stop-color="#F57B94"/>
<stop offset="1" stop-color="#E3486A"/>
</linearGradient>
<linearGradient id="paint1_linear_2670_1169" x1="-7.76688" y1="45.5821" x2="55.2853" y2="79.2628" gradientUnits="userSpaceOnUse">
<stop stop-color="#F6B4C2"/>
<stop offset="1" stop-color="#F6708E"/>
</linearGradient>
<linearGradient id="paint2_linear_2670_1169" x1="4.02979" y1="41.7107" x2="48.5644" y2="65.4999" gradientUnits="userSpaceOnUse">
<stop stop-color="white" stop-opacity="0.5"/>
<stop offset="1" stop-color="white"/>
</linearGradient>
</defs>
</svg>
