<svg width="64" height="64" viewBox="0 0 64 64" fill="none" xmlns="http://www.w3.org/2000/svg">
<rect width="64" height="64" rx="16" fill="url(#paint0_linear_2670_1541)"/>
<path opacity="0.7" fill-rule="evenodd" clip-rule="evenodd" d="M26.5969 27.6211C29.744 27.6211 32.2953 25.069 32.2953 21.9209C32.2953 18.7728 29.744 16.2207 26.5969 16.2207C23.4497 16.2207 20.8984 18.7728 20.8984 21.9209C20.8984 25.069 23.4497 27.6211 26.5969 27.6211Z" fill="white"/>
<path opacity="0.7" fill-rule="evenodd" clip-rule="evenodd" d="M33.9198 31.7065C31.9393 30.0441 29.3851 29.043 26.5971 29.043C20.3027 29.043 15.2002 34.1455 15.2002 40.4398V42.6415C15.2002 43.3925 15.809 44.0013 16.56 44.0013H33.0019C31.868 42.4252 31.2002 40.4912 31.2002 38.4013C31.2002 35.7976 32.2368 33.4359 33.9198 31.7065Z" fill="white"/>
<path d="M47.2713 42.276C47.9337 41.1904 48.3201 39.9208 48.3201 38.5592C48.3201 34.4928 45.0265 31.1992 40.9601 31.1992C36.8937 31.1992 33.6001 34.4928 33.6001 38.5592C33.6001 42.6256 36.8937 45.9192 40.9601 45.9192C42.3217 45.9192 43.5913 45.5144 44.6769 44.8704L49.4057 49.5992L52.0001 47.0048L47.2713 42.276ZM40.9601 42.2392C38.9361 42.2392 37.2801 40.5832 37.2801 38.5592C37.2801 36.5352 38.9361 34.8792 40.9601 34.8792C42.9841 34.8792 44.6401 36.5352 44.6401 38.5592C44.6401 40.5832 42.9841 42.2392 40.9601 42.2392Z" fill="white"/>
<defs>
<linearGradient id="paint0_linear_2670_1541" x1="-36.3693" y1="54.4382" x2="70.9535" y2="111.767" gradientUnits="userSpaceOnUse">
<stop stop-color="#F57B94"/>
<stop offset="1" stop-color="#E3486A"/>
</linearGradient>
</defs>
</svg>
