<svg width="64" height="64" viewBox="0 0 64 64" fill="none" xmlns="http://www.w3.org/2000/svg">
<rect width="64" height="64" rx="16" fill="url(#paint0_linear_2670_1282)"/>
<path opacity="0.7" fill-rule="evenodd" clip-rule="evenodd" d="M51.6854 33.4581L47.7524 29.1566C47.4919 28.8985 47.141 28.7539 46.7754 28.7539C46.4099 28.7539 46.059 28.8985 45.7985 29.1566L41.8604 33.4581C41.7319 33.586 41.6299 33.7383 41.5603 33.9062C41.4906 34.074 41.4548 34.2541 41.4548 34.436C41.4548 34.6178 41.4906 34.7979 41.5603 34.9658C41.6299 35.1336 41.7319 35.2859 41.8604 35.4138H45.1186C44.5092 37.7175 43.306 39.8184 41.6308 41.5043C39.9556 43.1901 37.8677 44.4012 35.5781 45.0149C32.9025 45.7191 30.0767 45.5822 27.4807 44.6225C24.8847 43.6629 22.6431 41.9265 21.0571 39.6469L18.3101 41.5494C20.2889 44.3938 23.0862 46.5602 26.3255 47.7572C29.5648 48.9543 33.0909 49.1244 36.4292 48.2449C39.4316 47.444 42.1541 45.8205 44.2938 43.5551C46.4334 41.2897 47.9062 38.4714 48.5481 35.4138H51.6829C51.8113 35.2859 51.9132 35.1337 51.9829 34.9659C52.0525 34.7982 52.0885 34.6183 52.0887 34.4365C52.089 34.2547 52.0535 34.0747 51.9842 33.9068C51.915 33.7388 51.8135 33.5864 51.6854 33.4581Z" fill="white"/>
<path d="M37.728 27.7753L30.6892 34.1303L27.7223 31.1634C27.1756 30.6167 26.291 30.6167 25.7443 31.1634C25.1977 31.71 25.1977 32.5947 25.7443 33.1413L29.7002 37.0972C30.2468 37.6438 31.1315 37.6438 31.6781 37.0972L39.7059 29.7532C40.2525 29.2066 40.2525 28.3219 39.7059 27.7753C39.1592 27.2286 38.2746 27.2286 37.728 27.7753Z" fill="white"/>
<path opacity="0.7" fill-rule="evenodd" clip-rule="evenodd" d="M23.1799 30.411C23.3084 30.2831 23.4104 30.1308 23.4801 29.963C23.5497 29.7951 23.5855 29.615 23.5855 29.4332C23.5855 29.2513 23.5497 29.0712 23.4801 28.9034C23.4104 28.7355 23.3084 28.5832 23.1799 28.4553H19.5113C20.1354 26.1807 21.3401 24.11 23.0058 22.4489C24.6715 20.7877 26.7402 19.5938 29.0064 18.9859C31.6822 18.281 34.5084 18.4181 37.1043 19.3788C39.7002 20.3395 41.941 22.0776 43.5249 24.359L46.2745 22.454C44.2951 19.608 41.4968 17.4403 38.2561 16.2424C35.0154 15.0445 31.4878 14.8738 28.1478 15.7535C25.1686 16.5507 22.4649 18.1576 20.3331 20.398C18.2013 22.6385 16.7235 25.426 16.0617 28.4553H12.4056C12.2771 28.5832 12.1751 28.7355 12.1055 28.9034C12.0358 29.0712 12 29.2513 12 29.4332C12 29.615 12.0358 29.7951 12.1055 29.963C12.1751 30.1308 12.2771 30.2831 12.4056 30.411L16.53 34.558C16.7905 34.816 17.1414 34.9607 17.507 34.9607C17.8726 34.9607 18.2235 34.816 18.4839 34.558L23.1799 30.411Z" fill="white"/>
<defs>
<linearGradient id="paint0_linear_2670_1282" x1="-36.3693" y1="54.4382" x2="70.9535" y2="111.767" gradientUnits="userSpaceOnUse">
<stop stop-color="#F57B94"/>
<stop offset="1" stop-color="#E3486A"/>
</linearGradient>
</defs>
</svg>
