<?xml version="1.0" encoding="utf-8"?>
<svg width="60" height="60" viewBox="0 0 60 60" fill="none" xmlns="http://www.w3.org/2000/svg">
<path d="M30.5 54C43.4787 54 54 43.4787 54 30.5C54 17.5213 43.4787 7 30.5 7C17.5213 7 7 17.5213 7 30.5C7 43.4787 17.5213 54 30.5 54Z" fill="url(#paint0_linear)"/>
<path d="M30.5 47.0981C39.667 47.0981 47.0984 39.6668 47.0984 30.4997C47.0984 21.3327 39.667 13.9014 30.5 13.9014C21.333 13.9014 13.9016 21.3327 13.9016 30.4997C13.9016 39.6668 21.333 47.0981 30.5 47.0981Z" fill="url(#paint1_linear)"/>
<path d="M31.0675 36.7143C28.5574 36.7143 27.5704 35.5933 27.4364 34.1554H24.7556C24.9018 36.824 26.9002 38.3228 29.2398 38.8224V41.4665H32.8953V38.8467C35.2714 38.3959 37.1601 37.0189 37.1601 34.521C37.1601 31.0604 34.1991 29.8784 31.4331 29.1595C28.6671 28.4406 27.7775 27.6973 27.7775 26.5397C27.7775 25.2115 29.0082 24.2854 31.0675 24.2854C33.2365 24.2854 34.0407 25.3212 34.1138 26.8443H36.8068C36.7215 24.7485 35.442 22.8232 32.8953 22.2018V19.5332H29.2398V22.1652C26.8758 22.677 24.9749 24.2123 24.9749 26.5641C24.9749 29.3788 27.3023 30.7801 30.702 31.5965C33.7483 32.3276 34.3575 33.3999 34.3575 34.5332C34.3575 35.3739 33.7605 36.7143 31.0675 36.7143Z" fill="white"/>
<defs>
<linearGradient id="paint0_linear" x1="-19.7087" y1="46.9781" x2="59.1065" y2="89.079" gradientUnits="userSpaceOnUse">
<stop stop-color="#F6B4C2"/>
<stop offset="1" stop-color="#F6708E"/>
</linearGradient>
<linearGradient id="paint1_linear" x1="-4.96312" y1="42.1384" x2="50.7051" y2="71.8749" gradientUnits="userSpaceOnUse">
<stop stop-color="#F57B94"/>
<stop offset="1" stop-color="#E3486A"/>
</linearGradient>
</defs>
</svg>
